G04 ================== begin FILE IDENTIFICATION RECORD ==================*
G04 Layout Name:  E:/Cadence/SDR/board/SDR_2832 - crystal.brd*
G04 Film Name:    PASTEMASK_TOP*
G04 File Format:  Gerber RS274X*
G04 File Origin:  Cadence Allegro 16.6-P004*
G04 Origin Date:  Wed Mar 18 23:05:28 2020*
G04 *
G04 Layer:  VIA CLASS/PASTEMASK_TOP*
G04 Layer:  PIN/PASTEMASK_TOP*
G04 Layer:  PACKAGE GEOMETRY/PASTEMASK_TOP*
G04 *
G04 Offset:    (0.00 0.00)*
G04 Mirror:    No*
G04 Mode:      Positive*
G04 Rotation:  0*
G04 FullContactRelief:  No*
G04 UndefLineWidth:     60.00*
G04 ================== end FILE IDENTIFICATION RECORD ====================*
%FSLAX25Y25*MOIN*%
%IR0*IPPOS*OFA0.00000B0.00000*MIA0B0*SFA1.00000B1.00000*%
%AMMACRO19*
4,1,4,.05602,.05602,
.05602,-.05602,
-.05602,-.05602,
-.05602,.05602,
.05602,.05602,
0.0*
%
%ADD19MACRO19*%
%ADD18R,.00787X.03346*%
%ADD17R,.03346X.00787*%
%ADD20R,.08465X.12795*%
%ADD14R,.01181X.0315*%
%ADD13R,.0315X.01181*%
%ADD16R,.06102X.02362*%
%AMMACRO15*
4,1,4,-.03362,-.03362,
-.03362,.03362,
.03362,.03362,
.03362,-.03362,
-.03362,-.03362,
0.0*
%
%ADD15MACRO15*%
%ADD12O,.05118X.02362*%
%ADD21R,.08465X.0374*%
%ADD11R,.04528X.05709*%
%ADD10R,.05709X.04528*%
G75*
%LPD*%
G75*
G36*
G01X474539Y414039D02*
Y420763D01*
X481263D01*
Y414039D01*
X474539D01*
G37*
G36*
G01X605802Y425502D02*
Y414298D01*
X594598D01*
Y425502D01*
X605802D01*
G37*
G54D10*
X401100Y396157D03*
Y403243D03*
X424500Y389157D03*
Y396243D03*
X450600Y382157D03*
Y389243D03*
X448500Y427957D03*
Y435043D03*
X458200Y427957D03*
Y435043D03*
X466400Y437157D03*
Y444243D03*
X472300Y391757D03*
Y398843D03*
X474700Y437257D03*
Y444343D03*
X480800Y391857D03*
Y398943D03*
X490100Y391957D03*
Y399043D03*
X502800Y391957D03*
Y399043D03*
X579000Y406857D03*
Y413943D03*
X586600Y440857D03*
Y447943D03*
X595000Y440857D03*
Y447943D03*
X604200Y440357D03*
Y447443D03*
Y454757D03*
Y461843D03*
X612400Y440357D03*
Y447443D03*
Y454757D03*
Y461843D03*
X630100Y383157D03*
Y390243D03*
X642900Y383157D03*
Y390243D03*
G54D11*
X409157Y396200D03*
X416243D03*
X434157Y407900D03*
X434357Y389200D03*
X441443D03*
X441243Y407900D03*
X450557D03*
X450657Y417700D03*
X457643Y407900D03*
X457743Y417700D03*
X482457Y435200D03*
Y444500D03*
Y453800D03*
X489543Y435200D03*
Y444500D03*
Y453800D03*
X497457Y433400D03*
Y442400D03*
X504543Y433400D03*
Y442400D03*
X541557Y406000D03*
X540457Y425200D03*
X548643Y406000D03*
X547543Y425200D03*
X604157Y400000D03*
X611243D03*
X622357Y425400D03*
X624857Y434600D03*
Y443600D03*
X629443Y425400D03*
X631943Y434600D03*
Y443600D03*
X641857Y434600D03*
X648943D03*
G54D20*
X657383Y396400D03*
G54D21*
X680217Y387345D03*
Y396400D03*
Y405455D03*
G54D12*
X416166Y404160D03*
Y411640D03*
X424434Y407900D03*
G54D13*
X470026Y412479D03*
Y414447D03*
Y416416D03*
Y418384D03*
Y420353D03*
Y422321D03*
X485774Y416416D03*
Y414447D03*
Y412479D03*
Y420353D03*
Y418384D03*
Y422321D03*
G54D14*
X474947Y409526D03*
X472979D03*
Y425274D03*
X474947D03*
X480853Y409526D03*
X478884D03*
X476916D03*
Y425274D03*
X478884D03*
X480853D03*
X482821Y409526D03*
Y425274D03*
G54D15*
X477901Y417401D03*
G54D16*
X570270Y383400D03*
Y388400D03*
Y393400D03*
Y398400D03*
X591530Y383400D03*
Y388400D03*
Y393400D03*
Y398400D03*
G54D17*
X588586Y411239D03*
Y412813D03*
Y414388D03*
Y415963D03*
Y417538D03*
Y419113D03*
Y420687D03*
Y422262D03*
Y423837D03*
Y425412D03*
Y426987D03*
Y428561D03*
X611814Y415963D03*
Y414388D03*
Y412813D03*
Y411239D03*
Y420687D03*
Y419113D03*
Y417538D03*
Y426987D03*
Y425412D03*
Y423837D03*
Y422262D03*
Y428561D03*
G54D18*
X593113Y408286D03*
X591539D03*
Y431514D03*
X593113D03*
X597838Y408286D03*
X596263D03*
X594688D03*
Y431514D03*
X596263D03*
X597838D03*
X604137Y408286D03*
X602562D03*
X600987D03*
X599413D03*
Y431514D03*
X600987D03*
X602562D03*
X604137D03*
X608861Y408286D03*
X607287D03*
X605712D03*
Y431514D03*
X607287D03*
X608861D03*
G54D19*
X600200Y419900D03*
M02*
