G04 ================== begin FILE IDENTIFICATION RECORD ==================*
G04 Layout Name:  E:/Cadence/SDR/board/SDR_2832 - crystal.brd*
G04 Film Name:    TOP*
G04 File Format:  Gerber RS274X*
G04 File Origin:  Cadence Allegro 16.6-P004*
G04 Origin Date:  Wed Mar 18 23:05:28 2020*
G04 *
G04 Layer:  VIA CLASS/TOP*
G04 Layer:  PIN/TOP*
G04 Layer:  ETCH/TOP*
G04 *
G04 Offset:    (0.00 0.00)*
G04 Mirror:    No*
G04 Mode:      Positive*
G04 Rotation:  0*
G04 FullContactRelief:  No*
G04 UndefLineWidth:     60.00*
G04 ================== end FILE IDENTIFICATION RECORD ====================*
%FSLAX25Y25*MOIN*%
%IR0*IPPOS*OFA0.00000B0.00000*MIA0B0*SFA1.00000B1.00000*%
%ADD18C,.024*%
%ADD23C,.04921*%
%ADD17C,.04724*%
%AMMACRO25*
21,1,.04724,.04724,0.0,0.0,70.*%
%ADD25MACRO25*%
%ADD22R,.04921X.04921*%
%ADD16R,.04724X.04724*%
%ADD12C,.06299*%
%ADD27R,.00787X.03346*%
%ADD26R,.03346X.00787*%
%ADD29R,.08465X.12795*%
%ADD15R,.06299X.06299*%
%ADD20R,.01181X.0315*%
%AMMACRO28*
4,1,32,.07677,.08858,
.08858,.07677,
.08858,-.07677,
.0884,-.078821,
.087867,-.08081,
.086996,-.082676,
.085815,-.084362,
.084358,-.085818,
.082671,-.086999,
.080805,-.087869,
.078816,-.088401,
.07677,-.08858,
-.07677,-.08858,
-.078821,-.0884,
-.08081,-.087867,
-.082676,-.086996,
-.084362,-.085815,
-.085818,-.084358,
-.086999,-.082671,
-.087869,-.080805,
-.088401,-.078816,
-.08858,-.07677,
-.08858,.07677,
-.0884,.078821,
-.087867,.08081,
-.086996,.082676,
-.085815,.084362,
-.084358,.085818,
-.082671,.086999,
-.080805,.087869,
-.078816,.088401,
-.07677,.08858,
.07677,.08858,
0.0*
%
%ADD28MACRO28*%
%ADD19R,.0315X.01181*%
%ADD24R,.06102X.02362*%
%ADD14O,.05118X.02362*%
%AMMACRO21*
4,1,35,-.03937,-.05315,
-.05315,-.03937,
-.05315,.03937,
-.052941,.041763,
-.05232,.044083,
-.051305,.046259,
-.049928,.048227,
-.04823,.049925,
-.046262,.051303,
-.044086,.052318,
-.041766,.05294,
-.039374,.05315,
-.03937,.05315,
.03937,.05315,
.041763,.052941,
.044083,.05232,
.046259,.051305,
.048227,.049928,
.049925,.04823,
.051303,.046262,
.052318,.044086,
.05294,.041766,
.05315,.039374,
.05315,.03937,
.05315,-.03937,
.052941,-.041763,
.05232,-.044083,
.051305,-.046259,
.049928,-.048227,
.04823,-.049925,
.046262,-.051303,
.044086,-.052318,
.041766,-.05294,
.039374,-.05315,
.03937,-.05315,
-.03937,-.05315,
0.0*
%
%ADD21MACRO21*%
%ADD10C,.00945*%
%ADD30R,.08465X.0374*%
%ADD13R,.04528X.05709*%
%ADD11R,.05709X.04528*%
%ADD31C,.01*%
%ADD32C,.02*%
%ADD33C,.03*%
%ADD34C,.04*%
%ADD35C,.015*%
%ADD36C,.0035*%
%ADD37C,.07302*%
%ADD41C,.05728*%
%ADD45O,.0612X.03364*%
%ADD38R,.07302X.07302*%
%ADD44R,.07104X.03364*%
%ADD42R,.06712X.0553*%
%ADD40R,.0553X.06712*%
%ADD43R,.05728X.05728*%
%ADD39R,.09468X.04742*%
G75*
%LPD*%
G75*
G36*
G01X700100Y365500D02*
X393700D01*
Y479900D01*
X700100D01*
Y365500D01*
G37*
%LPC*%
G75*
G36*
G01X597830Y373098D02*
X506264D01*
X500298Y379064D01*
Y384198D01*
X487298D01*
Y386061D01*
G02Y386139I1702J39D01*
G01Y389192D01*
X486744D01*
Y394722D01*
X493456D01*
Y393458D01*
X499444D01*
Y394722D01*
X506156D01*
Y389192D01*
X505302D01*
Y381136D01*
X508336Y378102D01*
X595758D01*
X601098Y383442D01*
Y395898D01*
X591530D01*
G02X589679Y396718I1J2502D01*
G01X587978D01*
Y400082D01*
X589679D01*
G02X591530Y400902I1852J-1682D01*
G01X601392D01*
Y401940D01*
X600233Y403098D01*
X592637D01*
X590538Y405198D01*
Y408286D01*
G02X590626Y408697I1001J1D01*
G01X590644Y408736D01*
Y410344D01*
X589036D01*
X588997Y410326D01*
G02X588586Y410238I-410J913D01*
G01X585378D01*
X585202Y410061D01*
Y407787D01*
X583270Y405856D01*
X582356D01*
Y404092D01*
X575644D01*
Y409622D01*
X582356D01*
Y408740D01*
G03X583039Y408457I400J0D01*
G01X583198Y408617D01*
Y410891D01*
X584346Y412038D01*
X583942Y412442D01*
X583859D01*
G02X583857I-1J1501D01*
G01X582356D01*
Y411178D01*
X575644D01*
Y411942D01*
X571128D01*
X564798Y418271D01*
Y430129D01*
X568571Y433902D01*
X576141D01*
G03X576278Y434677I-1J400D01*
G01X573280Y435769D01*
X575239Y441150D01*
X580620Y439191D01*
X578890Y434438D01*
G03X579266Y433902I376J-136D01*
G01X581171D01*
X584785Y437515D01*
G02X585037Y437729I1417J-1413D01*
G03X584921Y438092I-116J163D01*
G01X583244D01*
Y443622D01*
X588672D01*
X589544Y444495D01*
G03X589262Y445178I-283J283D01*
G01X583244D01*
Y446692D01*
X529171D01*
G03X521985Y443715I1J-10163D01*
G03X518752Y435909I7806J-7806D01*
G01Y435600D01*
G02X514142Y424473I-15736J1D01*
G01X510481Y420811D01*
G02X507551Y418632I-8880J8882D01*
G03X507789Y417882I189J-353D01*
G03X522674Y424319I-3510J28545D01*
G02X528185Y426458I2826J888D01*
G01X537692D01*
Y428556D01*
X543222D01*
Y421844D01*
X537692D01*
Y423948D01*
X536425D01*
X536419Y423954D01*
X528185D01*
G02X524364Y422470I-2685J1252D01*
G02X510998Y415895I-20085J23957D01*
G03X511006Y415112I86J-391D01*
G02X524027Y409000I-5914J-29525D01*
G01X524082Y408956D01*
X528462D01*
Y407246D01*
X537519D01*
X537525Y407252D01*
X538792D01*
Y409356D01*
X544322D01*
Y402644D01*
X538792D01*
Y404748D01*
X538479D01*
X538473Y404742D01*
X528462D01*
Y403032D01*
X522538D01*
Y406985D01*
G03X505093Y413196I-17446J-21398D01*
G01X491440D01*
G03X491157Y412513I0J-400D01*
G01X501861Y401808D01*
X506156D01*
Y400294D01*
X509004D01*
G02Y397792I1153J-1251D01*
G01X506156D01*
Y396278D01*
X499444D01*
Y400686D01*
X488903Y411228D01*
X485774D01*
G02X485204Y411365I-1J1251D01*
G01X485162Y411386D01*
X483914D01*
Y410778D01*
X485492D01*
X491352Y404918D01*
Y401808D01*
X493456D01*
Y400294D01*
X494775D01*
X497552Y397518D01*
Y397256D01*
X497599Y397200D01*
G02X494697Y396672I-1299J-1100D01*
G01X494739Y396791D01*
X494139Y397391D01*
G03X493456Y397109I-283J-283D01*
G01Y396278D01*
X486744D01*
Y401808D01*
X488848D01*
Y403882D01*
X484456Y408274D01*
X483914D01*
Y407449D01*
X482104D01*
Y401708D01*
X484156D01*
Y396178D01*
X477444D01*
Y401708D01*
X479602D01*
Y405266D01*
G03X478919Y405549I-400J0D01*
G01X475320Y401950D01*
G03X475461Y401608I141J-142D01*
G01X475656D01*
Y396078D01*
X468944D01*
Y401608D01*
X471439D01*
X472546Y402716D01*
G03X472263Y403398I-283J282D01*
G01X471576D01*
G02X471519Y405475I-1376J1002D01*
G01X471579Y405402D01*
X471981D01*
X473346Y406766D01*
G03X473063Y407449I-283J283D01*
G01X471886D01*
Y411386D01*
X470638D01*
X470596Y411365D01*
G02X470026Y411228I-569J1114D01*
G01X467697D01*
X462918Y406448D01*
X460408D01*
Y404544D01*
X454878D01*
Y411256D01*
X460408D01*
Y408952D01*
X461882D01*
X466404Y413474D01*
X465172Y414706D01*
G03X464625Y414723I-283J-283D01*
G02X461804Y415859I-1125J1277D01*
G01X461798Y415932D01*
X461282Y416448D01*
X460508D01*
Y414344D01*
X454978D01*
Y421056D01*
X460508D01*
Y418952D01*
X462957D01*
G03X463239Y419634I-1J400D01*
G01X460575Y422298D01*
X449478D01*
X447498Y424278D01*
Y425192D01*
X445144D01*
Y430722D01*
X451030D01*
G03X451312Y431405I-1J400D01*
G01X450440Y432278D01*
X445144D01*
Y437808D01*
X451856D01*
Y433694D01*
X452949Y432602D01*
X454844D01*
Y437809D01*
X459952D01*
G03X460235Y438491I0J400D01*
G01X459551Y439176D01*
G02X459359Y439398I1414J1417D01*
G01X456294D01*
G02X453025Y439631I-1500J2002D01*
G01X446426Y446230D01*
X444236D01*
Y451958D01*
X449964D01*
Y449768D01*
X456330Y443402D01*
X463044D01*
Y447008D01*
X469756D01*
Y441477D01*
X463876D01*
G03X463593Y440795I0J-400D01*
G01X464465Y439922D01*
X469756D01*
Y434392D01*
X467652D01*
Y433355D01*
X473656Y427351D01*
X473946D01*
Y434492D01*
X471344D01*
Y440022D01*
X478056D01*
Y434492D01*
X475948D01*
Y427351D01*
X477882D01*
Y431451D01*
X479692Y433260D01*
Y438556D01*
X481456D01*
Y441144D01*
X479692D01*
Y447856D01*
X485222D01*
Y441144D01*
X483458D01*
Y438556D01*
X485222D01*
Y431844D01*
X481108D01*
X479886Y430621D01*
Y429667D01*
G03X480568Y429385I400J1D01*
G01X480985Y429802D01*
X494692D01*
Y436756D01*
X496456D01*
Y439044D01*
X494692D01*
Y445756D01*
X500222D01*
Y439044D01*
X498458D01*
Y436756D01*
X500222D01*
Y430044D01*
X498458D01*
Y429130D01*
X497127Y427798D01*
X481854D01*
Y427351D01*
X483914D01*
Y426276D01*
X501767D01*
G03X502088Y426913I-1J400D01*
G02X501598Y428400I2011J1487D01*
G01Y433993D01*
X501778Y434172D01*
Y436756D01*
X507308D01*
Y430044D01*
X506602D01*
Y428400D01*
G02X506112Y426913I-2501J0D01*
G03X506433Y426276I322J-237D01*
G01X506759D01*
X509098Y428615D01*
Y443900D01*
G02X514594Y457167I18763J-1D01*
G02X528300Y462844I13706J-13706D01*
G01X597027D01*
X600584Y466402D01*
X608667D01*
X610460Y464608D01*
X615756D01*
Y459078D01*
X609044D01*
Y463192D01*
X608239Y463997D01*
G03X607556Y463714I-283J-283D01*
G01Y459078D01*
X600844D01*
Y459960D01*
G03X600161Y460243I-400J0D01*
G01X599410Y459492D01*
X528446D01*
G03X517337Y454890I0J-15709D01*
G01X516852Y454405D01*
G03X512502Y443901I10506J-10503D01*
G01Y427418D01*
G03X513210Y427163I400J0D01*
G03X516248Y435600I-10195J8437D01*
G01Y435909D01*
G02X520215Y445485I13543J-1D01*
G02X529171Y449194I8955J-8956D01*
G01X583244D01*
Y450708D01*
X589956D01*
Y445872D01*
G03X590639Y445589I400J0D01*
G01X591644Y446594D01*
Y450708D01*
X598356D01*
Y445178D01*
X593060D01*
X592188Y444305D01*
G03X592470Y443622I283J-283D01*
G01X598356D01*
Y438092D01*
X595984D01*
X595690Y437797D01*
Y433689D01*
X598412D01*
Y434724D01*
G02X600248Y437583I1001J1376D01*
G03X600844Y437932I196J349D01*
G01Y443122D01*
X607556D01*
Y438417D01*
X608300Y437673D01*
X609044Y438417D01*
Y443122D01*
X615756D01*
Y437592D01*
X611051D01*
X609862Y436403D01*
Y431514D01*
G02X609774Y431103I-1001J-1D01*
G01X609756Y431064D01*
Y429456D01*
X611364D01*
X611403Y429474D01*
G02X611814Y429562I410J-913D01*
G01X614072D01*
X620111Y435602D01*
X622092D01*
Y437956D01*
X623856D01*
Y440244D01*
X622092D01*
Y446956D01*
X627622D01*
Y440244D01*
X625858D01*
Y437956D01*
X627622D01*
Y431244D01*
X622092D01*
Y433598D01*
X620941D01*
X617576Y430234D01*
G03X617772Y429561I283J-283D01*
G02X618851Y427011I-372J-1661D01*
G03X619192Y426402I341J-209D01*
G01X619592D01*
Y428756D01*
X625122D01*
Y422044D01*
X622316D01*
G03X622009Y421388I0J-400D01*
G02X621997Y419198I-1309J-1088D01*
G03X622302Y418540I305J-258D01*
G01X674723D01*
X689507Y433323D01*
X689442Y433453D01*
G02X690926Y431909I3258J1647D01*
G01X688801Y429784D01*
G03X689083Y429101I283J-283D01*
G01X690115D01*
X690926Y428291D01*
G02X689442Y426747I1774J-3191D01*
G01X689507Y426877D01*
X689285Y427098D01*
X688115D01*
X675978Y414962D01*
X613989D01*
Y410344D01*
X609756D01*
Y406502D01*
X616785D01*
X619016Y408733D01*
X619007Y408827D01*
G02X620527Y407307I1693J173D01*
G01X620433Y407316D01*
X617615Y404498D01*
X606297D01*
X605841Y404954D01*
G03X605158Y404672I-283J-283D01*
G01Y403356D01*
X606922D01*
Y397587D01*
X609508Y395002D01*
X614464D01*
X620698Y401236D01*
Y403900D01*
G02X625702I2502J0D01*
G01Y400408D01*
X631108Y395002D01*
X649392D01*
X650098Y395708D01*
Y400008D01*
X652649Y402558D01*
Y403299D01*
X662117D01*
Y398902D01*
X680217D01*
G02X680984Y398781I-2J-2502D01*
G01X681014Y398772D01*
X684951D01*
Y394028D01*
X681014D01*
X680984Y394019D01*
G02X680217Y393898I-769J2381D01*
G01X662117D01*
Y389501D01*
X661510D01*
X658908Y386898D01*
X610508D01*
X609802Y386192D01*
Y383192D01*
X607208Y380598D01*
X606958D01*
Y380036D01*
X604768D01*
X597830Y373098D01*
G37*
G36*
G01X427002Y386392D02*
Y381159D01*
G02X421998I-2502J-2659D01*
G01Y386392D01*
X421144D01*
Y391922D01*
X427856D01*
Y386392D01*
X427002D01*
G37*
G36*
G01X584091Y392500D02*
G03X583902Y392301I11J-199D01*
G01Y390250D01*
G03X584491Y389898I400J0D01*
G02X586676Y389402I809J-1498D01*
G01X587978D01*
Y390082D01*
X595082D01*
Y386718D01*
X587978D01*
Y387398D01*
X586676D01*
G02X584228Y387078I-1376J1002D01*
G03X583902Y386923I-126J-155D01*
G01Y386615D01*
X586115Y384402D01*
X587978D01*
Y385082D01*
X595082D01*
Y381718D01*
X587978D01*
Y382398D01*
X585285D01*
X581898Y385785D01*
Y393215D01*
X582373Y393689D01*
X582346Y393798D01*
G02X584091Y392500I1654J402D01*
G37*
G36*
G01X444208Y387698D02*
Y385844D01*
X438678D01*
Y392556D01*
X444208D01*
Y390702D01*
X445580D01*
X445623Y390744D01*
X447244D01*
Y392008D01*
X453956D01*
Y386478D01*
X447244D01*
Y387742D01*
X446867D01*
X446824Y387698D01*
X444208D01*
G37*
G36*
G01X411922Y399556D02*
Y392844D01*
X406392D01*
Y393698D01*
X404456D01*
Y393392D01*
X397744D01*
Y398922D01*
X404456D01*
Y398702D01*
X406392D01*
Y399556D01*
X411922D01*
G37*
G36*
G01X419008Y393742D02*
Y392844D01*
X413478D01*
Y399556D01*
X419008D01*
Y398744D01*
X421144D01*
Y399008D01*
X421998D01*
Y399971D01*
X421932Y400037D01*
Y406648D01*
G02X422502Y409489I1124J1252D01*
G02X424434Y410402I1932J-1588D01*
G01X431392D01*
Y411256D01*
X436922D01*
Y404544D01*
X431392D01*
Y405398D01*
X426936D01*
Y402109D01*
X427002Y402043D01*
Y399008D01*
X427856D01*
Y393478D01*
X421144D01*
Y393742D01*
X419008D01*
G37*
G36*
G01X684951Y403084D02*
X681014D01*
X680984Y403074D01*
G02X679450I-767J2381D01*
G01X679420Y403084D01*
X675483D01*
Y407826D01*
X677716D01*
Y409047D01*
X677698Y409064D01*
Y413800D01*
G02X682702I2502J0D01*
G01Y411136D01*
X682718Y411119D01*
Y407826D01*
X684951D01*
Y403084D01*
G37*
G36*
G01X444008Y405398D02*
Y404544D01*
X438478D01*
Y411256D01*
X444008D01*
Y410402D01*
X447792D01*
Y411256D01*
X453322D01*
Y404544D01*
X447792D01*
Y405398D01*
X444008D01*
G37*
G36*
G01X634708Y433598D02*
Y431244D01*
X629178D01*
Y437956D01*
X634708D01*
Y435602D01*
X639092D01*
Y437956D01*
X644622D01*
Y431244D01*
X639092D01*
Y433598D01*
X634708D01*
G37*
G36*
G01X492308Y447856D02*
Y441144D01*
X486778D01*
Y447856D01*
X488542D01*
Y450444D01*
X486778D01*
Y457156D01*
X492308D01*
Y450444D01*
X490544D01*
Y447856D01*
X492308D01*
G37*
G36*
G01X607556Y450208D02*
Y444678D01*
X600844D01*
Y450208D01*
X601698D01*
Y451992D01*
X600844D01*
Y457522D01*
X607556D01*
Y451992D01*
X606702D01*
Y450208D01*
X607556D01*
G37*
G36*
G01X615756D02*
Y444678D01*
X609044D01*
Y450208D01*
X609898D01*
Y451992D01*
X609044D01*
Y457522D01*
X615756D01*
Y451992D01*
X614902D01*
Y450208D01*
X615756D01*
G37*
G54D37*
X692700Y445100D03*
X414500Y378500D03*
X404500D03*
G54D41*
X643906Y408400D03*
X615906Y382900D03*
X565850Y441520D03*
X447100Y460906D03*
G54D45*
X416166Y404160D03*
Y411640D03*
G54D38*
X692700Y415100D03*
X434500Y378500D03*
G54D44*
X591530Y393400D03*
X570270Y398400D03*
Y393400D03*
Y388400D03*
Y383400D03*
G54D42*
X642900Y383157D03*
X630100D03*
X480800Y391857D03*
X474700Y444343D03*
X472300Y391757D03*
X450600Y382157D03*
X401100Y403243D03*
G54D40*
X648943Y434600D03*
X631943Y443600D03*
X629443Y425400D03*
X547543Y425200D03*
X548643Y406000D03*
X504543Y442400D03*
X489543Y435200D03*
X482457Y453800D03*
X450657Y417700D03*
X434357Y389200D03*
X611243Y400000D03*
G54D43*
X632094Y408400D03*
G54D39*
X680217Y387345D03*
%LPD*%
G75*
G36*
G01X487800Y384700D02*
Y389192D01*
X493456D01*
Y392600D01*
X499444D01*
Y389192D01*
X503800D01*
Y384700D01*
X487800D01*
G37*
G36*
G01X652649Y400884D02*
Y389501D01*
X659836D01*
G02X660118Y388818I-1J-400D01*
G01X658700Y387400D01*
X646256D01*
Y393008D01*
X639544D01*
Y387400D01*
X633456D01*
Y393008D01*
X626744D01*
Y387400D01*
X610300D01*
X609300Y386400D01*
Y383400D01*
X607640Y381740D01*
G02X606958Y382023I-282J283D01*
G01Y385764D01*
X601600D01*
Y396644D01*
X607156D01*
X609300Y394500D01*
X616600D01*
Y395400D01*
X623300Y402100D01*
X630900Y394500D01*
X649600D01*
X650600Y395500D01*
Y399800D01*
X651966Y401166D01*
G02X652649Y400884I283J-283D01*
G37*
G54D10*
X394900Y397100D03*
Y403100D03*
X398500Y390700D03*
X404800D03*
X409700Y391000D03*
X411000Y405200D03*
X406800Y404400D03*
X410200Y410100D03*
X409800Y415000D03*
X414500Y390800D03*
X413400Y417200D03*
X417900Y371400D03*
X418600Y386500D03*
X418200Y390600D03*
X421000Y417400D03*
X422400Y371000D03*
X427800Y370700D03*
X429500Y392900D03*
X429200Y395600D03*
X429300Y399100D03*
X430000Y402100D03*
X428000Y413800D03*
X432500Y414000D03*
X428400Y416500D03*
X434200Y394300D03*
X433000Y402100D03*
X436900D03*
X435600Y413100D03*
X437600Y441000D03*
X437800Y438300D03*
X441800Y374900D03*
X441300Y379800D03*
X441900Y384300D03*
X442600Y394700D03*
X438400Y394500D03*
X441100Y402700D03*
X443000Y415200D03*
Y412900D03*
X439300Y413000D03*
X440500Y417100D03*
X438100Y420300D03*
X438300Y425000D03*
X437900Y428700D03*
X438000Y433800D03*
X446300Y376700D03*
X444600Y383400D03*
X444200Y379100D03*
X445900Y394300D03*
X446000Y402500D03*
X447700Y412600D03*
X448100Y422200D03*
X446600Y423500D03*
X448200Y440100D03*
X451300Y377300D03*
X450100Y394100D03*
X450000Y402400D03*
X453600Y412500D03*
X453400Y436800D03*
X451700Y438900D03*
X455500Y377200D03*
X455900Y382100D03*
X456200Y387100D03*
X455900Y390700D03*
X454300Y393500D03*
X456500Y401100D03*
X464800Y450000D03*
X471900Y430900D03*
X470400Y433600D03*
X474700Y449800D03*
X470600Y449700D03*
X476200Y453900D03*
X476600Y458800D03*
X485200Y402600D03*
Y404800D03*
X481400Y459800D03*
X489500Y409000D03*
X486900Y459800D03*
X495800Y401700D03*
X493200Y404700D03*
X495700Y449700D03*
X495500Y453300D03*
X495700Y458000D03*
X492000Y459700D03*
X498600Y409100D03*
X500100Y406200D03*
X500500Y411900D03*
X499800Y428000D03*
X498900Y449200D03*
X503300Y404800D03*
X507100Y410900D03*
X503100Y449300D03*
X507200Y449700D03*
X508400Y403200D03*
X511600Y403000D03*
X512800Y409600D03*
X508200Y453500D03*
X511600Y456400D03*
X513400Y442400D03*
X514100Y439500D03*
X515700Y440800D03*
X514100Y444900D03*
X516800Y443600D03*
X514400Y447300D03*
X517800Y452900D03*
X516700Y451400D03*
X515400Y449600D03*
X514000Y459100D03*
X516700Y461700D03*
X521700Y440500D03*
X523300Y442800D03*
X519000Y446700D03*
X522400Y449100D03*
X523100Y456600D03*
X521000Y455500D03*
X519100Y454100D03*
X518900Y464200D03*
X522500Y465700D03*
X527400Y444900D03*
X526900Y450400D03*
X528300Y458100D03*
X525700Y457300D03*
X527300Y465800D03*
X533300Y445200D03*
X532900Y450700D03*
X531900Y458100D03*
X531800Y465900D03*
X539400Y415500D03*
X539800Y419700D03*
X538800Y445300D03*
X538200Y450700D03*
X538700Y458200D03*
X535500D03*
X536100Y466000D03*
X540300Y399400D03*
X540500Y411300D03*
X544800Y415700D03*
X543900Y430500D03*
X539900Y430600D03*
X540500Y435700D03*
X545100Y440500D03*
X540400Y440200D03*
X543200Y445400D03*
Y450700D03*
X542000Y458100D03*
X543900Y464900D03*
X539900Y466100D03*
X546400Y399100D03*
X550400Y411700D03*
X545300Y411400D03*
X549600Y420200D03*
X545400Y420100D03*
X549700Y430800D03*
X545700Y435300D03*
X550300Y440800D03*
X547600Y445600D03*
X548100Y450800D03*
X549900Y458000D03*
X546300D03*
X547800Y464900D03*
X553000Y399300D03*
X553200Y404200D03*
X554800Y407600D03*
X552300Y415500D03*
X552500Y424000D03*
X552900Y428400D03*
X551900Y435100D03*
X555800Y440600D03*
X552500Y445300D03*
X553300Y450700D03*
X553400Y458200D03*
X555400Y465000D03*
X551200D03*
X556300Y434700D03*
X559900Y445600D03*
X556700Y445400D03*
X557500Y450700D03*
X560600D03*
X560900Y458500D03*
X556600Y458300D03*
X559900Y465100D03*
X564800Y445500D03*
X563400Y450800D03*
X564200Y458500D03*
X564000Y465200D03*
X571100Y435800D03*
X571400Y437900D03*
X569200Y445600D03*
X571900Y450600D03*
X567000Y450700D03*
X568600Y458400D03*
X571200Y464700D03*
X567900Y465000D03*
X572600Y440800D03*
X573800Y445700D03*
X575200Y451100D03*
X576100Y458300D03*
X572300D03*
X574300Y464600D03*
X577600Y441700D03*
X581500Y440900D03*
X581600Y443000D03*
X581400Y445400D03*
X577800Y445500D03*
X578800Y451300D03*
X582600Y452600D03*
X579400Y458200D03*
X580400Y464300D03*
X577800Y464500D03*
X587300Y452600D03*
X588100Y458300D03*
X585700Y458200D03*
X582900D03*
X584800Y464200D03*
X591600Y452900D03*
X591000Y458200D03*
X592400Y464400D03*
X588500D03*
X596000Y452800D03*
X597400Y458000D03*
X594100Y458200D03*
X596200Y464600D03*
X599300Y452400D03*
X599600Y455600D03*
X599800Y458500D03*
X603200Y467600D03*
X599100Y466900D03*
X606900Y467700D03*
X612300Y466200D03*
X610100Y467600D03*
X618300Y441200D03*
X618500Y444700D03*
X618800Y448100D03*
Y451500D03*
X619000Y455000D03*
X619100Y458100D03*
X619000Y461400D03*
X618800Y464200D03*
X625800Y413600D03*
X630400Y413200D03*
X625900Y419700D03*
Y450300D03*
X632700Y420200D03*
X633100Y450100D03*
X637400Y413100D03*
X638600Y420700D03*
X636700Y426200D03*
X636800Y430600D03*
Y440000D03*
X641000Y441400D03*
X638600Y446700D03*
X643500Y413100D03*
X645200Y420700D03*
X642500Y426300D03*
X646700Y441600D03*
X651200Y420200D03*
X649800Y425800D03*
X650100Y441600D03*
X653400Y412400D03*
X654500Y435700D03*
X659700Y412500D03*
X658300Y420100D03*
X666200Y412800D03*
X665700Y420300D03*
X673100Y412900D03*
X671900Y421200D03*
X676100Y424800D03*
X675200Y436400D03*
X684700Y431800D03*
X684900Y421600D03*
G54D11*
X401100Y396157D03*
Y403243D03*
X424500Y389157D03*
Y396243D03*
X450600Y382157D03*
Y389243D03*
X448500Y427957D03*
Y435043D03*
X458200Y427957D03*
Y435043D03*
X466400Y437157D03*
Y444243D03*
X472300Y391757D03*
Y398843D03*
X474700Y437257D03*
Y444343D03*
X480800Y391857D03*
Y398943D03*
X490100Y391957D03*
Y399043D03*
X502800Y391957D03*
Y399043D03*
X579000Y406857D03*
Y413943D03*
X586600Y440857D03*
Y447943D03*
X595000Y440857D03*
Y447943D03*
X604200Y440357D03*
Y447443D03*
Y454757D03*
Y461843D03*
X612400Y440357D03*
Y447443D03*
Y454757D03*
Y461843D03*
X630100Y383157D03*
Y390243D03*
X642900Y383157D03*
Y390243D03*
G54D20*
X474947Y409526D03*
X472979D03*
Y425274D03*
X474947D03*
X480853Y409526D03*
X478884D03*
X476916D03*
Y425274D03*
X478884D03*
X480853D03*
X482821Y409526D03*
Y425274D03*
G54D30*
X680217Y387345D03*
Y396400D03*
Y405455D03*
G54D21*
X477900Y417400D03*
G54D12*
X404500Y378500D03*
X414500D03*
X424500D03*
X692700Y425100D03*
Y435100D03*
Y445100D03*
G54D31*
G01X470026Y416416D02*
X467874D01*
X460990Y423300D01*
X449893D01*
X448500Y424693D01*
Y427957D01*
G01Y435043D02*
X449091D01*
X452534Y431600D01*
X460900D01*
X464200Y428300D01*
Y424300D01*
X468147Y420353D01*
X470026D01*
G01X458243Y427957D02*
X467816Y418384D01*
X470026D01*
G01X458000Y428000D02*
X458200D01*
X458243Y427957D01*
G01X458200D02*
X458243D01*
G01X458200Y435043D02*
X458243Y435000D01*
X459900D01*
X466200Y428700D01*
Y425163D01*
X469042Y422321D01*
X470026D01*
G01X474947Y409526D02*
Y406951D01*
X472396Y404400D01*
X470200D01*
G01X476916Y418384D02*
X474800Y420500D01*
X474700D01*
G01Y437257D02*
X474900Y437057D01*
Y435300D01*
X474947Y435253D01*
Y425274D01*
G01X477900Y417400D02*
X476916Y418384D01*
G01D02*
Y425274D01*
G01X478884D02*
Y431036D01*
X482457Y434609D01*
Y435200D01*
G01X497457Y433400D02*
Y429545D01*
X496712Y428800D01*
X481400D01*
X480853Y428253D01*
Y425274D01*
G01X604200Y461843D02*
X600345D01*
X598995Y460493D01*
X528446D01*
G03X516629Y455598I0J-16711D01*
G01X516144Y455113D01*
G03X511500Y443900I11213J-11212D01*
G01Y427100D01*
X507900Y423500D01*
X488458D01*
X487279Y422321D01*
X485774D01*
G01X612400Y461843D02*
X611809D01*
X608252Y465400D01*
X600999D01*
X597442Y461843D01*
X528300D01*
G03X515302Y456459I0J-18382D01*
G03X510100Y443900I12559J-12559D01*
G01Y428200D01*
X507174Y425274D01*
X482821D01*
G01X482457Y435200D02*
Y444500D01*
G01X489543D02*
Y453800D01*
G01X493200Y420353D02*
X493953D01*
X494600Y421000D01*
G01X497457Y433400D02*
Y442400D01*
G01X572300Y420600D02*
X573962Y422262D01*
X588586D01*
G01X575600Y424700D02*
X577800D01*
X578663Y423837D01*
X588586D01*
G01Y428561D02*
X575039D01*
X575000Y428600D01*
X572800D01*
G01X591530Y383400D02*
X585700D01*
X582900Y386200D01*
Y392800D01*
X584000Y393900D01*
Y394200D01*
G01X579000Y406857D02*
X582855D01*
X584200Y408202D01*
Y410476D01*
X584963Y411239D01*
X588586D01*
G01Y417538D02*
X586750D01*
X585512Y416300D01*
X585500D01*
X583800Y414600D01*
X583512D01*
X582855Y413943D01*
G01X583857D02*
X584987Y412813D01*
X588586D01*
G01Y420687D02*
X585525D01*
X585512Y420700D01*
X582200D01*
X581200Y419700D01*
Y419600D01*
G01X588586Y426987D02*
X581587D01*
X580900Y426300D01*
G01X585300Y388400D02*
X591530D01*
G01X584000Y418000D02*
X584100D01*
X585213Y419113D01*
X588586D01*
G01X591539Y431514D02*
Y432793D01*
X589788Y434544D01*
X587756D01*
X586200Y436100D01*
G01X586600Y440857D02*
X593113Y434344D01*
Y431514D01*
G01X595000Y447943D02*
X594409D01*
X587323Y440857D01*
X586600D01*
G01X604157Y400591D02*
X600648Y404100D01*
X593052D01*
X591539Y405613D01*
Y408286D01*
G01D02*
X593113D01*
G01X597838Y431514D02*
Y422262D01*
X600200Y419900D01*
G01X595000Y440857D02*
Y438524D01*
X594688Y438212D01*
Y431514D01*
G01X604157Y400591D02*
Y400000D01*
G01X604137Y408286D02*
Y405613D01*
X604157Y405593D01*
Y400591D01*
G01X611814Y414388D02*
X605712D01*
X600200Y419900D01*
G01X604137Y423837D02*
X600200Y419900D01*
G01X611814Y423837D02*
X604137D01*
G01D02*
X605712Y425412D01*
Y431514D01*
G01X599413D02*
Y436100D01*
G01X607287Y431514D02*
Y437270D01*
X604200Y440357D01*
G01X620700Y409000D02*
X617200Y405500D01*
X606712D01*
X605712Y406500D01*
Y408286D01*
G01X608861Y431514D02*
Y436818D01*
X612400Y440357D01*
G01X692700Y425100D02*
X689700Y428100D01*
X687700D01*
X675563Y415963D01*
X611814D01*
G01X620700Y420300D02*
X619513Y419113D01*
X617225D01*
X617212Y419100D01*
X615388D01*
X615375Y419113D01*
X611814D01*
G01Y420687D02*
X615687D01*
X616300Y421300D01*
G01X611814Y417538D02*
X675138D01*
X692700Y435100D01*
G01X620700Y420300D02*
X617500Y423500D01*
X615388D01*
X615188Y423300D01*
X615100D01*
X614062Y422262D01*
X611814D01*
G01Y426987D02*
X616487D01*
X617400Y427900D01*
G01X622357Y425400D02*
X614499D01*
X614487Y425412D01*
X611814D01*
G01X624857Y434600D02*
X620526D01*
X614487Y428561D01*
X611814D01*
G01X624857Y434600D02*
Y443600D01*
G01X641857Y434600D02*
X631943D01*
G54D13*
X409157Y396200D03*
X416243D03*
X434157Y407900D03*
X434357Y389200D03*
X441443D03*
X441243Y407900D03*
X450557D03*
X450657Y417700D03*
X457643Y407900D03*
X457743Y417700D03*
X482457Y435200D03*
Y444500D03*
Y453800D03*
X489543Y435200D03*
Y444500D03*
Y453800D03*
X497457Y433400D03*
Y442400D03*
X504543Y433400D03*
Y442400D03*
X541557Y406000D03*
X540457Y425200D03*
X548643Y406000D03*
X547543Y425200D03*
X604157Y400000D03*
X611243D03*
X622357Y425400D03*
X624857Y434600D03*
Y443600D03*
X629443Y425400D03*
X631943Y434600D03*
Y443600D03*
X641857Y434600D03*
X648943D03*
G54D22*
X525500Y405994D03*
G54D32*
G01X441443Y389200D02*
X446202D01*
X446245Y389243D01*
X446495D01*
G01D02*
X450600D01*
G01X466400Y437157D02*
X464400D01*
G01X474600Y444243D02*
X474700Y444343D01*
G01X489000Y386100D02*
Y390857D01*
X490100Y391957D01*
G01X502800D02*
X490100D01*
G01X579000Y413943D02*
X582855D01*
G01D02*
X583857D01*
G01X604157Y386825D02*
X604094Y386762D01*
Y386694D01*
G54D14*
X416166Y404160D03*
Y411640D03*
X424434Y407900D03*
G54D23*
X525500Y425206D03*
G54D33*
G01X464400Y437157D02*
X460966Y440591D01*
Y441400D01*
X454794D01*
G01X586200Y436100D02*
X582000Y431900D01*
X569400D01*
X566800Y429300D01*
Y419100D01*
X571957Y413943D01*
X579000D01*
G54D24*
X570270Y383400D03*
Y388400D03*
Y393400D03*
Y398400D03*
X591530Y383400D03*
Y388400D03*
Y393400D03*
Y398400D03*
G54D15*
X434500Y378500D03*
X692700Y415100D03*
G54D34*
G01X409157Y396200D02*
X401143D01*
X401100Y396157D01*
G01X424500Y396243D02*
X416286D01*
X416243Y396200D01*
G01X424500Y389157D02*
Y378500D01*
G01Y396243D02*
Y401007D01*
X424434Y401073D01*
Y407900D01*
G01X434157D02*
X424434D01*
G01X450557D02*
X441243D01*
G01X454794Y441400D02*
X447100Y449094D01*
G01X604094Y382900D02*
X596794Y375600D01*
X507300D01*
X502800Y380100D01*
Y391957D01*
G01X504543Y433400D02*
X504100Y432957D01*
Y428400D01*
G01X591530Y398400D02*
X602757D01*
X604157Y397000D01*
G01X604094Y382900D02*
X604157Y382963D01*
Y386825D01*
G01D02*
Y397000D01*
G01X604094Y386694D02*
X607300Y389900D01*
X612900D01*
G01X604157Y397000D02*
Y400000D01*
G01X604200Y454757D02*
Y447443D01*
G01X612900Y389900D02*
X629757D01*
X630100Y390243D01*
G01X623200Y400200D02*
X612900Y389900D01*
G01X612400Y454757D02*
Y447443D01*
G01X623200Y403900D02*
Y400200D01*
G01X642900Y390243D02*
X630100D01*
G01X642900D02*
X651300D01*
G01D02*
X657383Y396322D01*
G01Y396400D02*
X652900D01*
X652700Y396600D01*
G01X657383Y396322D02*
Y389817D01*
G01Y396400D02*
Y396322D01*
G01X680217Y396400D02*
X657383D01*
G01X680217Y405455D02*
Y410083D01*
X680200Y410100D01*
Y413800D01*
G54D16*
X447100Y449094D03*
X604094Y382900D03*
X632094Y408400D03*
G54D25*
X576950Y437480D03*
G54D35*
G01X446495Y389243D02*
X446452Y389200D01*
G01X457643Y407900D02*
X457843Y407700D01*
X462400D01*
X467179Y412479D01*
X470026D01*
G01X457743Y417700D02*
X461800D01*
G01D02*
X463500Y416000D01*
G01X461800Y417700D02*
X463948D01*
X467201Y414447D01*
X470026D01*
G01X466400Y437157D02*
Y432837D01*
X472979Y426258D01*
Y425274D01*
G01X472300Y398843D02*
Y400700D01*
X478900Y407300D01*
Y409510D01*
X478884Y409526D01*
G01X480853D02*
Y398996D01*
X480800Y398943D01*
G01X482821Y409526D02*
X484974D01*
X490100Y404400D01*
Y399043D01*
G01X502800D02*
X502700Y399143D01*
Y399200D01*
X489421Y412479D01*
X485774D01*
G01Y416416D02*
X504279D01*
G03X525500Y425206I0J30011D01*
G01X485774Y414447D02*
X505093D01*
G02X525500Y405994I0J-28860D01*
G01X485774Y420353D02*
X493200D01*
G01X485774Y418384D02*
X501600D01*
G03X509596Y421696I0J11308D01*
G01X513257Y425358D01*
G03X517500Y435600I-10242J10243D01*
G01Y435909D01*
G02X521100Y444600I12291J0D01*
G02X529171Y447943I8071J-8071D01*
G01X586600D01*
G01X496300Y396100D02*
Y397000D01*
X494257Y399043D01*
X490100D01*
G01X494600Y421000D02*
X493847D01*
X493200Y420353D01*
G01X502800Y399043D02*
X510157D01*
G01X525500Y405994D02*
X538037D01*
X538043Y406000D01*
X541557D01*
G01X525500Y425206D02*
X536937D01*
X536943Y425200D01*
X540457D01*
G54D26*
X588586Y411239D03*
Y412813D03*
Y414388D03*
Y415963D03*
Y417538D03*
Y419113D03*
Y420687D03*
Y422262D03*
Y423837D03*
Y425412D03*
Y426987D03*
Y428561D03*
X611814Y415963D03*
Y414388D03*
Y412813D03*
Y411239D03*
Y420687D03*
Y419113D03*
Y417538D03*
Y426987D03*
Y425412D03*
Y423837D03*
Y422262D03*
Y428561D03*
G54D17*
X447100Y460906D03*
X565850Y441520D03*
X615906Y382900D03*
X643906Y408400D03*
G54D36*
G01X397543Y403243D02*
X401100D01*
G01X404500Y374648D02*
Y378500D01*
G01D02*
Y382352D01*
G01X400648Y378500D02*
X404500D01*
G01D02*
X408352D01*
G01X401100Y400277D02*
Y403243D01*
G01D02*
Y406209D01*
G01Y403243D02*
X404657D01*
G01X410648Y378500D02*
X414500D01*
G01Y374648D02*
Y378500D01*
G01D02*
Y382352D01*
G01Y378500D02*
X418352D01*
G01X412905Y404160D02*
X416166D01*
G01X412905Y411640D02*
X416166D01*
G01Y402277D02*
Y404160D01*
G01D02*
Y406043D01*
G01Y404160D02*
X419427D01*
G01X416166Y409757D02*
Y411640D01*
G01D02*
Y413523D01*
G01Y411640D02*
X419427D01*
G01X447043Y382157D02*
X450600D01*
G01X447691Y417700D02*
X450657D01*
G01X447100Y457842D02*
Y460906D01*
G01D02*
Y463970D01*
G01X444036Y460906D02*
X447100D01*
G01D02*
X450164D01*
G01X450600Y379191D02*
Y382157D01*
G01D02*
Y385123D01*
G01Y382157D02*
X454157D01*
G01X450657Y414143D02*
Y417700D01*
G01D02*
Y421257D01*
G01Y417700D02*
X453623D01*
G01X462843Y444243D02*
X466400D01*
G01X468743Y391757D02*
X472300D01*
G01X466400Y441277D02*
Y444243D01*
G01D02*
Y447209D01*
G01Y444243D02*
X469957D01*
G01X472300Y388791D02*
Y391757D01*
G01D02*
Y394723D01*
G01Y391757D02*
X475857D01*
G01X474700Y441377D02*
Y444343D01*
G01D02*
Y447309D01*
G01X471143Y444343D02*
X474700D01*
G01D02*
X478257D01*
G01X477243Y391857D02*
X480800D01*
G01X479491Y453800D02*
X482457D01*
G01X480800Y388891D02*
Y391857D01*
G01D02*
Y394823D01*
G01Y391857D02*
X484357D01*
G01X482457Y450243D02*
Y453800D01*
G01D02*
Y457357D01*
G01Y453800D02*
X485423D01*
G01X489543Y431643D02*
Y435200D01*
G01D02*
Y438757D01*
G01X486577Y435200D02*
X489543D01*
G01D02*
X492509D01*
G01X501577Y442400D02*
X504543D01*
G01Y438843D02*
Y442400D01*
G01D02*
Y445957D01*
G01Y442400D02*
X507509D01*
G01X544577Y425200D02*
X547543D01*
G01X548643Y402443D02*
Y406000D01*
G01D02*
Y409557D01*
G01X545677Y406000D02*
X548643D01*
G01D02*
X551609D01*
G01X547543Y421643D02*
Y425200D01*
G01D02*
Y428757D01*
G01Y425200D02*
X550509D01*
G01X565850Y438456D02*
Y441520D01*
G01D02*
Y444584D01*
G01X562786Y441520D02*
X565850D01*
G01D02*
X568914D01*
G01X570270Y381517D02*
Y383400D01*
G01D02*
Y385283D01*
G01X566517Y383400D02*
X570270D01*
G01D02*
X574023D01*
G01X570270Y386517D02*
Y388400D01*
G01D02*
Y390283D01*
G01X566517Y388400D02*
X570270D01*
G01D02*
X574023D01*
G01X570270Y391517D02*
Y393400D01*
G01D02*
Y395283D01*
G01X566517Y393400D02*
X570270D01*
G01D02*
X574023D01*
G01X570270Y396517D02*
Y398400D01*
G01D02*
Y400283D01*
G01X566517Y398400D02*
X570270D01*
G01D02*
X574023D01*
G01X604094Y382900D02*
Y385964D01*
G01Y382900D02*
X607158D01*
G01X608277Y400000D02*
X611243D01*
G01X612842Y382900D02*
X615906D01*
G01X611243Y396443D02*
Y400000D01*
G01D02*
Y403557D01*
G01Y400000D02*
X614209D01*
G01X615906Y379836D02*
Y382900D01*
G01D02*
Y385964D01*
G01Y382900D02*
X618970D01*
G01X630100Y380191D02*
Y383157D01*
G01D02*
Y386123D01*
G01X626543Y383157D02*
X630100D01*
G01D02*
X633657D01*
G01X630100Y390243D02*
Y393209D01*
G01X626543Y390243D02*
X630100D01*
G01X629443Y421843D02*
Y425400D01*
G01D02*
Y428957D01*
G01X626477Y425400D02*
X629443D01*
G01D02*
X632409D01*
G01X628977Y443600D02*
X631943D01*
G01Y440043D02*
Y443600D01*
G01D02*
Y447157D01*
G01Y443600D02*
X634909D01*
G01X639343Y383157D02*
X642900D01*
G01X640842Y408400D02*
X643906D01*
G01X642900Y380191D02*
Y383157D01*
G01D02*
Y386123D01*
G01Y383157D02*
X646457D01*
G01X643906Y405336D02*
Y408400D01*
G01D02*
Y411464D01*
G01Y408400D02*
X646970D01*
G01X645977Y434600D02*
X648943D01*
G01Y431043D02*
Y434600D01*
G01D02*
Y438157D01*
G01Y434600D02*
X651909D01*
G01X675282Y387345D02*
X680217D01*
G01Y384773D02*
Y387345D01*
G01D02*
Y389917D01*
G01Y387345D02*
X685152D01*
G01X688848Y415100D02*
X692700D01*
G01Y411248D02*
Y415100D01*
G01D02*
Y418952D01*
G01Y415100D02*
X696552D01*
G54D27*
X593113Y408286D03*
X591539D03*
Y431514D03*
X593113D03*
X597838Y408286D03*
X596263D03*
X594688D03*
Y431514D03*
X596263D03*
X597838D03*
X604137Y408286D03*
X602562D03*
X600987D03*
X599413D03*
Y431514D03*
X600987D03*
X602562D03*
X604137D03*
X608861Y408286D03*
X607287D03*
X605712D03*
Y431514D03*
X607287D03*
X608861D03*
G54D18*
X463500Y416000D03*
X470200Y404400D03*
X474700Y420500D03*
X481000Y414300D03*
X477900Y417400D03*
X489000Y386100D03*
X496300Y396100D03*
X494600Y421000D03*
X504100Y428400D03*
X510157Y399043D03*
X572300Y420600D03*
X572800Y428600D03*
X575600Y424700D03*
X584000Y394200D03*
Y418000D03*
X581200Y419600D03*
X580900Y426300D03*
X585300Y388400D03*
X586200Y436100D03*
X600200Y413200D03*
Y419900D03*
Y426200D03*
X599413Y436100D03*
X616300Y421300D03*
X620700Y409000D03*
Y420300D03*
X617400Y427900D03*
X623200Y403900D03*
X680200Y413800D03*
G54D19*
X470026Y412479D03*
Y414447D03*
Y416416D03*
Y418384D03*
Y420353D03*
Y422321D03*
X485774Y416416D03*
Y414447D03*
Y412479D03*
Y420353D03*
Y418384D03*
Y422321D03*
G54D28*
X600200Y419900D03*
G54D29*
X657383Y396400D03*
M02*
