G04 ================== begin FILE IDENTIFICATION RECORD ==================*
G04 Layout Name:  E:/Cadence/SDR/board_r820t2/r820t2.brd*
G04 Film Name:    BOTTOM*
G04 File Format:  Gerber RS274X*
G04 File Origin:  Cadence Allegro 16.6-P004*
G04 Origin Date:  Thu Mar 26 23:00:42 2020*
G04 *
G04 Layer:  VIA CLASS/BOTTOM*
G04 Layer:  PIN/BOTTOM*
G04 Layer:  ETCH/BOTTOM*
G04 *
G04 Offset:    (0.0000 0.0000)*
G04 Mirror:    No*
G04 Mode:      Positive*
G04 Rotation:  0*
G04 FullContactRelief:  No*
G04 UndefLineWidth:     0.6000*
G04 ================== end FILE IDENTIFICATION RECORD ====================*
%FSLAX25Y25*MOMM*%
%IR0*IPPOS*OFA0.00000B0.00000*MIA0B0*SFA1.00000B1.00000*%
%ADD10C,.24*%
%ADD16C,.6096*%
%ADD13C,1.2*%
%ADD11C,1.6*%
%ADD14R,1.2X1.2*%
%AMMACRO15*
21,1,1.6,1.6,0.0,0.0,45.*%
%ADD15MACRO15*%
%ADD12R,1.6X1.6*%
%ADD17C,.2*%
%ADD18C,.3*%
%ADD19C,1.*%
%ADD20C,2.*%
%ADD21C,1.5*%
%ADD24C,1.4544*%
%ADD22C,1.8544*%
%ADD23R,1.4544X1.4544*%
%ADD25R,1.8544X1.8544*%
G75*
%LPD*%
G75*
G36*
G01X-2283460Y-2303780D02*
Y2301240D01*
X2306320D01*
Y-2303780D01*
X-2283460D01*
G37*
%LPC*%
G75*
G36*
G01X-651120Y-1470670D02*
X-648900Y-1470760D01*
X-417880Y-1239740D01*
X-208390D01*
G02Y-1295180I33130J-27720D01*
G01X-394920D01*
X-609700Y-1509960D01*
X-609610Y-1512180D01*
G02X-651120Y-1470670I-43170J-1660D01*
G37*
G36*
G01X788280Y1442730D02*
X786060Y1442820D01*
X555040Y1211800D01*
X325230D01*
G02Y1267240I-33130J27720D01*
G01X532080D01*
X746860Y1482020D01*
X746770Y1484240D01*
G02X788280Y1442730I43170J1660D01*
G37*
G36*
G01X-801050Y772160D02*
X-932180Y641030D01*
X-1063310Y772160D01*
X-932180Y903290D01*
X-801050Y772160D01*
G37*
G36*
G01X1192850Y-787400D02*
X1061720Y-918530D01*
X930590Y-787400D01*
X1061720Y-656270D01*
X1192850Y-787400D01*
G37*
G36*
G01X1210220Y1118510D02*
Y1596890D01*
X1035550Y1771560D01*
X596900D01*
G02X534870Y1797250I0J87733D01*
G01X392930Y1939200D01*
X-115480D01*
Y1838960D01*
G02X-290920I-87720J0D01*
G01Y1997500D01*
G02X-208280Y2114640I82640J29420D01*
G01X465590D01*
X633230Y1947000D01*
X1108210D01*
X1385660Y1669550D01*
Y1045850D01*
X1184270Y844460D01*
X24630D01*
X-61730Y930820D01*
X-308920D01*
Y582630D01*
X-15720Y289430D01*
Y-180290D01*
X-27990Y-192560D01*
X270730Y-491270D01*
G02X253740Y-664640I-79708J-79706D01*
G01Y-946060D01*
X587520D01*
Y-441380D01*
X883870Y-145030D01*
G02X972570Y-233730I44350J-44350D01*
G01X712960Y-493340D01*
Y-946060D01*
X978670D01*
X1136140Y-1103530D01*
Y-1578710D01*
X1103430Y-1611430D01*
G02X960700Y-1515020I-62029J62027D01*
G01Y-1176190D01*
X906010Y-1121500D01*
X154940D01*
G02X92910Y-1095810I0J87733D01*
G01X32250Y-1035140D01*
X-982070D01*
X-1080680Y-1133750D01*
Y-1612130D01*
X-906010Y-1786800D01*
X-467360D01*
G02X-405330Y-1812490I0J-87733D01*
G01X-263390Y-1954440D01*
X245020D01*
Y-1854200D01*
G02X420460I87720J0D01*
G01Y-2012740D01*
G02X337820Y-2129880I-82640J-29420D01*
G01X-336050D01*
X-503690Y-1962240D01*
X-978670D01*
X-1256120Y-1684790D01*
Y-1061090D01*
X-1054730Y-859700D01*
X104910D01*
X110960Y-865740D01*
G03X128300Y-858560I7182J7185D01*
G01Y-664640D01*
G02X111310Y-650690I62696J93680D01*
G01X-373240Y-166130D01*
Y63630D01*
X-534360Y224750D01*
Y930820D01*
X-849130D01*
X-1006600Y1088290D01*
Y1563470D01*
X-973890Y1596190D01*
G02X-831160Y1499780I62029J-62027D01*
G01Y1160950D01*
X-776470Y1106260D01*
X-489890D01*
G02X-348310I70790J-87720D01*
G01X-25400D01*
G02X36630Y1080570I0J-87733D01*
G01X97290Y1019900D01*
X1111610D01*
X1210220Y1118510D01*
G37*
G36*
G01X-2093680Y2190200D02*
G02X-2132880Y2229400I-19600J19600D01*
G01X-2127800Y2234480D01*
G02X-2088600Y2195280I19600J-19600D01*
G01X-2093680Y2190200D01*
G37*
G54D24*
X-1851800Y774700D03*
G54D22*
X2148840Y929640D03*
Y548640D03*
X2179320Y-1623060D03*
Y-2004060D03*
X1958340Y739140D03*
X1988820Y-1813560D03*
X1798320Y-1623060D03*
Y-2004060D03*
X1767840Y929640D03*
X882110Y-607790D03*
X-752570Y592550D03*
X-1638300Y-563880D03*
Y-944880D03*
X-1668780Y1988820D03*
Y1607820D03*
X-1859280Y1798320D03*
X-1828800Y-754380D03*
X-2049780Y1988820D03*
Y1607820D03*
X-2019300Y-563880D03*
Y-944880D03*
X-2131060Y-121920D03*
X1767840Y548640D03*
G54D23*
X-1551800Y774700D03*
G54D25*
X-2131060Y132080D03*
%LPD*%
G75*
G54D10*
X-2186940Y-881380D03*
X-2194560Y-728980D03*
X-2075180Y1414780D03*
X-1963420Y-1104900D03*
Y1404620D03*
X-1958340Y2197100D03*
X-2029460Y2194560D03*
X-1943100Y-353060D03*
X-1846580Y1407160D03*
X-1899920Y2194560D03*
X-1805940Y-1107440D03*
X-1744980Y1404620D03*
X-1778000Y2194560D03*
X-1711960Y-332740D03*
X-1628140Y1399540D03*
X-1676400Y2199640D03*
X-1579880Y-1097280D03*
X-1516380Y1468120D03*
X-1526540Y1404620D03*
Y1551940D03*
X-1516380Y1628140D03*
X-1602740Y2202180D03*
X-1524000D03*
X-1402080Y-1742440D03*
X-1404620Y-1551940D03*
X-1417320Y-1435100D03*
X-1430020Y-1165860D03*
X-1457960Y-482600D03*
X-1450340Y-360680D03*
X-1414780Y1633220D03*
X-1430020Y1996440D03*
X-1417320Y2098040D03*
X-1414780Y2225040D03*
X-1290320Y-1871980D03*
X-1305560Y-932180D03*
X-1371600Y-998220D03*
X-1320800Y835660D03*
Y1628140D03*
X-1270000Y-342900D03*
X-1163320Y675640D03*
X-1198880Y924560D03*
X-1209040Y1623060D03*
X-1153160Y-2004060D03*
X-1087120Y-353060D03*
X-1140460Y-218440D03*
X-1069340Y553720D03*
X-1099820Y1000760D03*
Y1107440D03*
X-1089660Y1203960D03*
X-1099820Y1300480D03*
X-1076960Y1391920D03*
X-1064260Y1518920D03*
X-1102360Y1615440D03*
X-960120Y-2059940D03*
Y-231140D03*
X-944880Y284480D03*
X-962660Y411480D03*
X-843280Y-1704340D03*
X-927100Y-337820D03*
X-764540Y-2072640D03*
X-754380Y-1704340D03*
X-759460Y259080D03*
X-797560Y1965960D03*
X-805180Y2131060D03*
X-797560Y2059940D03*
X-807720Y2207260D03*
X-665480Y-345440D03*
X-688340Y-228600D03*
X-612140Y259080D03*
X-622300Y406400D03*
X-678180Y1965960D03*
X-563880Y-2095500D03*
X-530860Y1960880D03*
X-449580Y-2209800D03*
X-469900Y-350520D03*
Y-226060D03*
X-363220Y1577340D03*
X-447040Y1640840D03*
X-416560Y1965960D03*
X-419100Y2052320D03*
X-408940Y2133600D03*
Y2212340D03*
X-254000Y-2222500D03*
X-292100Y-368300D03*
X-30480Y411480D03*
X0Y-2225040D03*
X33020Y365760D03*
X35560Y2217420D03*
X187960Y2235200D03*
X320040Y2222500D03*
X345440Y360680D03*
X434340Y2207260D03*
X492760Y-1595120D03*
Y350520D03*
X609600Y-2037080D03*
X558800Y-1648460D03*
X660400Y340360D03*
X579120Y2143760D03*
X774700Y-2037080D03*
X711200Y-12700D03*
X678180Y2082800D03*
X873760Y330200D03*
X876300Y1681480D03*
X789940Y2029460D03*
X914400Y-2037080D03*
X980440Y1681480D03*
X927100Y2024380D03*
X1089660Y-360680D03*
X1026160Y322580D03*
X1076960Y2019300D03*
X1229360Y-487680D03*
X1206500Y-205740D03*
X1183640Y309880D03*
X1206500Y1983740D03*
X1338580Y-1602740D03*
X1247140Y-1551940D03*
X1252220Y-1379220D03*
X1247140Y-1216660D03*
X1236980Y-1013460D03*
X1348740Y-899160D03*
X1305560Y-604520D03*
X1280160Y-43180D03*
X1272540Y160020D03*
X1297940Y322580D03*
X1300480Y1915160D03*
X1457960Y-1615440D03*
X1412240Y-741680D03*
X1397000Y325120D03*
X1440180Y901700D03*
X1463040Y993140D03*
X1457960Y1752600D03*
X1371600Y1836420D03*
X1567180Y-2125980D03*
Y-2006600D03*
X1546860Y454660D03*
X1554480Y353060D03*
Y543560D03*
X1544320Y642620D03*
X1468120Y1087120D03*
X1465580Y1214120D03*
X1473200Y1341120D03*
Y1455420D03*
X1478280Y1587500D03*
X1617980Y-1610360D03*
X1638300Y-1445260D03*
X1643380Y360680D03*
X1633220Y426720D03*
Y525780D03*
Y642620D03*
X1600200Y891540D03*
X1595120Y998220D03*
X1640840Y1112520D03*
X1742440Y368300D03*
X1760220Y1140460D03*
X1808480Y-1437640D03*
X1838960Y365760D03*
X1920240Y1145540D03*
X1986280Y-1437640D03*
X1958340Y360680D03*
X2146300Y-1422400D03*
X2047240Y360680D03*
X2042160Y1143000D03*
X2164080Y365760D03*
X2159000Y1148080D03*
G54D20*
G01X-421640Y535940D02*
Y271440D01*
X-260520Y110320D01*
G01X-419100Y1018540D02*
X-421640Y1016000D01*
Y535940D01*
G01X-128440Y110320D02*
Y242740D01*
X-421640Y535940D01*
G01X-260520Y110320D02*
Y-119440D01*
X-187400Y-192560D01*
G01D02*
X191020Y-570980D01*
G01X-187400Y-192560D02*
X-128440Y-133600D01*
Y110320D01*
G01X-260520D02*
X-128440D01*
G54D11*
X-2131060Y-121920D03*
X-2019300Y-944880D03*
Y-563880D03*
X-2049780Y1607820D03*
Y1988820D03*
X-1828800Y-754380D03*
X-1859280Y1798320D03*
X-1668780Y1607820D03*
Y1988820D03*
X-1638300Y-944880D03*
Y-563880D03*
X-752570Y592550D03*
X-40640Y1376680D03*
X170180Y-1391920D03*
X882110Y-607790D03*
X1767840Y548640D03*
Y929640D03*
X1798320Y-2004060D03*
Y-1623060D03*
X1988820Y-1813560D03*
X1958340Y739140D03*
X2179320Y-2004060D03*
Y-1623060D03*
X2148840Y548640D03*
Y929640D03*
G54D21*
G01X154940Y-1033780D02*
X68580Y-947420D01*
X-1018400D01*
X-1168400Y-1097420D01*
Y-1648460D01*
X-942340Y-1874520D01*
X-467360D01*
G01X-911860Y1534160D02*
X-918880Y1527140D01*
Y1124620D01*
X-812800Y1018540D01*
X-419100D01*
G01X332740Y-1854200D02*
Y-2037080D01*
X337820Y-2042160D01*
X-299720D01*
X-467360Y-1874520D01*
G01X-419100Y1018540D02*
X-25400D01*
G01X-203200Y1838960D02*
Y2021840D01*
X-208280Y2026920D01*
X429260D01*
X596900Y1859280D01*
G01X-25400Y1018540D02*
X60960Y932180D01*
X1147940D01*
X1297940Y1082180D01*
Y1633220D01*
X1071880Y1859280D01*
X596900D01*
G01X647700Y-1033780D02*
X154940D01*
G01X1041400Y-1549400D02*
X1048420Y-1542380D01*
Y-1139860D01*
X942340Y-1033780D01*
X647700D01*
G54D12*
X-2131060Y132080D03*
G54D13*
X-1851800Y774700D03*
G54D14*
X-1551800D03*
G54D15*
X-932180Y772160D03*
X1061720Y-787400D03*
G54D16*
X-911860Y1534160D03*
X-652780Y-1513840D03*
X-467360Y-1874520D03*
X-260520Y110320D03*
Y301160D03*
X-203200Y1838960D03*
X-175260Y-1267460D03*
X-25400Y1018540D03*
X154940Y-1033780D03*
X191020Y-570980D03*
X332740Y-1854200D03*
X292100Y1239520D03*
X596900Y1859280D03*
X789940Y1485900D03*
X928220Y-189380D03*
X1041400Y-1549400D03*
G54D17*
G01X-2228860Y132080D02*
X-2131060D01*
G01X-2117100Y-944880D02*
X-2019300D01*
G01X-2117100Y-563880D02*
X-2019300D01*
G01X-2131060Y34280D02*
Y132080D01*
G01D02*
Y229880D01*
G01Y132080D02*
X-2033260D01*
G01X-2147580Y1607820D02*
X-2049780D01*
G01X-2147580Y1988820D02*
X-2049780D01*
G01X-2019300Y-1042680D02*
Y-944880D01*
G01D02*
Y-847080D01*
G01Y-944880D02*
X-1921500D01*
G01X-2019300Y-661680D02*
Y-563880D01*
G01D02*
Y-466080D01*
G01Y-563880D02*
X-1921500D01*
G01X-2049780Y1510020D02*
Y1607820D01*
G01D02*
Y1705620D01*
G01Y1607820D02*
X-1951980D01*
G01X-2049780Y1891020D02*
Y1988820D01*
G01D02*
Y2086620D01*
G01Y1988820D02*
X-1951980D01*
G01X-1851800Y696900D02*
Y774700D01*
G01D02*
Y852500D01*
G01X-1929600Y774700D02*
X-1851800D01*
G01D02*
X-1774000D01*
G01X-1736100Y-944880D02*
X-1638300D01*
G01X-1736100Y-563880D02*
X-1638300D01*
G01X-1766580Y1607820D02*
X-1668780D01*
G01X-1766580Y1988820D02*
X-1668780D01*
G01X-1638300Y-1042680D02*
Y-944880D01*
G01D02*
Y-847080D01*
G01Y-944880D02*
X-1540500D01*
G01X-1638300Y-661680D02*
Y-563880D01*
G01D02*
Y-466080D01*
G01Y-563880D02*
X-1540500D01*
G01X-1668780Y1510020D02*
Y1607820D01*
G01D02*
Y1705620D01*
G01Y1607820D02*
X-1570980D01*
G01X-1668780Y1891020D02*
Y1988820D01*
G01D02*
Y2086620D01*
G01Y1988820D02*
X-1570980D01*
G01X1670040Y548640D02*
X1767840D01*
G01X1670040Y929640D02*
X1767840D01*
G01X1798320Y-2101860D02*
Y-2004060D01*
G01D02*
Y-1906260D01*
G01X1700520Y-2004060D02*
X1798320D01*
G01D02*
X1896120D01*
G01X1798320Y-1720860D02*
Y-1623060D01*
G01D02*
Y-1525260D01*
G01X1700520Y-1623060D02*
X1798320D01*
G01D02*
X1896120D01*
G01X1767840Y450840D02*
Y548640D01*
G01D02*
Y646440D01*
G01Y548640D02*
X1865640D01*
G01X1767840Y831840D02*
Y929640D01*
G01D02*
Y1027440D01*
G01Y929640D02*
X1865640D01*
G01X2081520Y-2004060D02*
X2179320D01*
G01X2081520Y-1623060D02*
X2179320D01*
G01X2051040Y548640D02*
X2148840D01*
G01X2051040Y929640D02*
X2148840D01*
G01X2179320Y-2101860D02*
Y-2004060D01*
G01D02*
Y-1906260D01*
G01Y-2004060D02*
X2277120D01*
G01X2179320Y-1720860D02*
Y-1623060D01*
G01D02*
Y-1525260D01*
G01Y-1623060D02*
X2277120D01*
G01X2148840Y450840D02*
Y548640D01*
G01D02*
Y646440D01*
G01Y548640D02*
X2246640D01*
G01X2148840Y831840D02*
Y929640D01*
G01D02*
Y1027440D01*
G01Y929640D02*
X2246640D01*
G54D18*
G01X-2108200Y2214880D02*
X-2113280Y2209800D01*
G01X-175260Y-1267460D02*
X-406400D01*
X-652780Y-1513840D01*
G01X292100Y1239520D02*
X543560D01*
X789940Y1485900D01*
G54D19*
G01X191020Y-570980D02*
Y-997700D01*
X154940Y-1033780D01*
G01X647700D02*
X650240Y-1031240D01*
Y-467360D01*
X928220Y-189380D01*
M02*
