G04 ================== begin FILE IDENTIFICATION RECORD ==================*
G04 Layout Name:  E:/Cadence/SDR/board/SDR_2832.brd*
G04 Film Name:    SOLDERMASK_TOP*
G04 File Format:  Gerber RS274X*
G04 File Origin:  Cadence Allegro 16.6-P004*
G04 Origin Date:  Sat Feb 22 23:07:56 2020*
G04 *
G04 Layer:  VIA CLASS/SOLDERMASK_TOP*
G04 Layer:  PIN/SOLDERMASK_TOP*
G04 Layer:  PACKAGE GEOMETRY/SOLDERMASK_TOP*
G04 Layer:  BOARD GEOMETRY/SOLDERMASK_TOP*
G04 *
G04 Offset:    (0.00 0.00)*
G04 Mirror:    No*
G04 Mode:      Positive*
G04 Rotation:  0*
G04 FullContactRelief:  No*
G04 UndefLineWidth:     60.00*
G04 ================== end FILE IDENTIFICATION RECORD ====================*
%FSLAX25Y25*MOIN*%
%IR0*IPPOS*OFA0.00000B0.00000*MIA0B0*SFA1.00000B1.00000*%
%ADD10C,.044*%
%ADD17C,.04724*%
%ADD22C,.05709*%
%ADD16R,.04724X.04724*%
%ADD12C,.06299*%
%ADD21R,.05709X.05709*%
%ADD25R,.00787X.03346*%
%ADD24R,.03346X.00787*%
%ADD27R,.08465X.12795*%
%ADD15R,.06299X.06299*%
%ADD19R,.01181X.0315*%
%AMMACRO26*
4,1,32,.07677,.08858,
.08858,.07677,
.08858,-.07677,
.0884,-.078821,
.087867,-.08081,
.086996,-.082676,
.085815,-.084362,
.084358,-.085818,
.082671,-.086999,
.080805,-.087869,
.078816,-.088401,
.07677,-.08858,
-.07677,-.08858,
-.078821,-.0884,
-.08081,-.087867,
-.082676,-.086996,
-.084362,-.085815,
-.085818,-.084358,
-.086999,-.082671,
-.087869,-.080805,
-.088401,-.078816,
-.08858,-.07677,
-.08858,.07677,
-.0884,.078821,
-.087867,.08081,
-.086996,.082676,
-.085815,.084362,
-.084358,.085818,
-.082671,.086999,
-.080805,.087869,
-.078816,.088401,
-.07677,.08858,
.07677,.08858,
0.0*
%
%ADD26MACRO26*%
%ADD18R,.0315X.01181*%
%ADD23R,.06102X.02362*%
%ADD14O,.05118X.02362*%
%AMMACRO20*
4,1,35,-.03937,-.05315,
-.05315,-.03937,
-.05315,.03937,
-.052941,.041763,
-.05232,.044083,
-.051305,.046259,
-.049928,.048227,
-.04823,.049925,
-.046262,.051303,
-.044086,.052318,
-.041766,.05294,
-.039374,.05315,
-.03937,.05315,
.03937,.05315,
.041763,.052941,
.044083,.05232,
.046259,.051305,
.048227,.049928,
.049925,.04823,
.051303,.046262,
.052318,.044086,
.05294,.041766,
.05315,.039374,
.05315,.03937,
.05315,-.03937,
.052941,-.041763,
.05232,-.044083,
.051305,-.046259,
.049928,-.048227,
.04823,-.049925,
.046262,-.051303,
.044086,-.052318,
.041766,-.05294,
.039374,-.05315,
.03937,-.05315,
-.03937,-.05315,
0.0*
%
%ADD20MACRO20*%
%ADD28R,.08465X.0374*%
%ADD13R,.04528X.05709*%
%ADD11R,.05709X.04528*%
%LPD*%
G75*
G54D10*
X398200Y369400D03*
X398300Y388000D03*
X404700Y369400D03*
X404800Y388400D03*
X412600Y369500D03*
X413400Y388200D03*
X423100Y369500D03*
X431100Y369400D03*
X430400Y415300D03*
X434800Y395900D03*
X434600Y401700D03*
X435400Y425600D03*
Y432800D03*
Y439500D03*
X440700Y369100D03*
X444800Y375300D03*
X442500Y396000D03*
X440300Y414700D03*
X445500Y402500D03*
X450700Y396100D03*
X454400Y401300D03*
X458700Y385900D03*
X463600Y380400D03*
X463500Y416000D03*
X464200Y451800D03*
X471200Y379300D03*
X470200Y404400D03*
X471600Y452000D03*
X474700Y420500D03*
X479900Y379500D03*
X477900Y417400D03*
X481000Y414300D03*
X479600Y461000D03*
X487200Y461300D03*
X488400Y379300D03*
X489000Y386100D03*
X495100Y379900D03*
X496300Y396100D03*
X494600Y421000D03*
X495700Y461600D03*
X501500Y371500D03*
X503300Y406900D03*
X499200Y410200D03*
X499600Y450600D03*
X498800Y455900D03*
X508700Y405600D03*
X507500Y410900D03*
X504100Y428400D03*
X504600Y451100D03*
X512700Y370100D03*
X510800Y383600D03*
X510700Y389600D03*
X510157Y399043D03*
X513600Y460800D03*
X509800Y456700D03*
X517500Y464300D03*
X522100Y370300D03*
X524800Y465900D03*
X534300Y370300D03*
X531700Y457700D03*
X531200Y466200D03*
X537900Y457700D03*
X537500Y466200D03*
X546500Y370200D03*
X544000Y457700D03*
X545100Y466600D03*
X550800Y457500D03*
X552700Y467000D03*
X557800Y370500D03*
Y457800D03*
X559600Y466300D03*
X568200Y416500D03*
X564300Y457700D03*
X566000Y466000D03*
X569100Y370300D03*
X572800Y428600D03*
X571100Y458000D03*
X571500Y466000D03*
X575600Y424700D03*
X578200Y457900D03*
X578000Y466100D03*
X579700Y370300D03*
X584000Y394200D03*
Y418000D03*
X581200Y419600D03*
X580900Y426300D03*
X584000Y457700D03*
X584100Y466100D03*
X585300Y388400D03*
X587500Y402900D03*
X586200Y436100D03*
X591100Y370200D03*
X589900Y457100D03*
X590500Y466200D03*
X600200Y413200D03*
Y419900D03*
Y426200D03*
X599413Y436100D03*
X596500Y455900D03*
X598700Y469300D03*
X606200Y469100D03*
X616300Y421300D03*
X613000Y468900D03*
X620700Y409000D03*
Y420300D03*
X617400Y427900D03*
X619600Y451900D03*
Y457300D03*
X620400Y462100D03*
X619500Y466700D03*
X623200Y403900D03*
X631400Y375600D03*
X638100Y412400D03*
X643100Y375500D03*
X638800Y402400D03*
X641300Y423300D03*
X648100Y460700D03*
X653600Y411500D03*
X649500Y423400D03*
X659100Y422700D03*
X661700Y412100D03*
X660300Y461200D03*
X665200Y376800D03*
X670300Y412500D03*
X666200Y424100D03*
X673400Y425900D03*
X671000Y461900D03*
X678500Y377000D03*
X680200Y413800D03*
X690600Y378100D03*
X691000Y388600D03*
X691200Y399700D03*
G54D11*
X401100Y396157D03*
Y403243D03*
X424500Y389157D03*
Y396243D03*
X450600Y382157D03*
Y389243D03*
X448500Y427957D03*
Y435043D03*
X458200Y427957D03*
Y435043D03*
X466400Y437157D03*
Y444243D03*
X472300Y391757D03*
Y398843D03*
X474700Y437257D03*
Y444343D03*
X480800Y391857D03*
Y398943D03*
X490100Y391957D03*
Y399043D03*
X502800Y391957D03*
Y399043D03*
X561600Y386057D03*
Y393143D03*
X560800Y441357D03*
Y448443D03*
X579000Y406857D03*
Y413943D03*
X586600Y440857D03*
Y447943D03*
X595000Y440857D03*
Y447943D03*
X604200Y440357D03*
Y447443D03*
Y454757D03*
Y461843D03*
X612400Y440357D03*
Y447443D03*
Y454757D03*
Y461843D03*
X630100Y383157D03*
Y390243D03*
X642900Y383157D03*
Y390243D03*
G54D20*
X477900Y417400D03*
G54D21*
X533700Y392987D03*
G54D12*
X404500Y378500D03*
X414500D03*
X424500D03*
X692700Y425100D03*
Y435100D03*
Y445100D03*
G54D13*
X409157Y396200D03*
X416243D03*
X434157Y407900D03*
X434357Y389200D03*
X441443D03*
X441243Y407900D03*
X450557D03*
X450657Y417700D03*
X457643Y407900D03*
X457743Y417700D03*
X482457Y435200D03*
Y444500D03*
Y453800D03*
X489543Y435200D03*
Y444500D03*
Y453800D03*
X497457Y433400D03*
Y442400D03*
X504543Y433400D03*
Y442400D03*
X604157Y400000D03*
X611243D03*
X622357Y425400D03*
X624857Y434600D03*
Y443600D03*
X629443Y425400D03*
X631943Y434600D03*
Y443600D03*
X641857Y434600D03*
X648943D03*
G54D22*
X533700Y441413D03*
G54D14*
X416166Y404160D03*
Y411640D03*
X424434Y407900D03*
G54D23*
X570270Y383400D03*
Y388400D03*
Y393400D03*
Y398400D03*
X591530Y383400D03*
Y388400D03*
Y393400D03*
Y398400D03*
G54D15*
X434500Y378500D03*
X692700Y415100D03*
G54D24*
X588586Y411239D03*
Y412813D03*
Y414388D03*
Y415963D03*
Y417538D03*
Y419113D03*
Y420687D03*
Y422262D03*
Y423837D03*
Y425412D03*
Y426987D03*
Y428561D03*
X611814Y415963D03*
Y414388D03*
Y412813D03*
Y411239D03*
Y420687D03*
Y419113D03*
Y417538D03*
Y426987D03*
Y425412D03*
Y423837D03*
Y422262D03*
Y428561D03*
G54D25*
X593113Y408286D03*
X591539D03*
Y431514D03*
X593113D03*
X597838Y408286D03*
X596263D03*
X594688D03*
Y431514D03*
X596263D03*
X597838D03*
X604137Y408286D03*
X602562D03*
X600987D03*
X599413D03*
Y431514D03*
X600987D03*
X602562D03*
X604137D03*
X608861Y408286D03*
X607287D03*
X605712D03*
Y431514D03*
X607287D03*
X608861D03*
G54D16*
X447100Y449094D03*
X574400Y436994D03*
X604094Y382900D03*
X632094Y408400D03*
G54D26*
X600200Y419900D03*
G54D17*
X447100Y460906D03*
X574400Y448806D03*
X615906Y382900D03*
X643906Y408400D03*
G54D18*
X470026Y412479D03*
Y414447D03*
Y416416D03*
Y418384D03*
Y420353D03*
Y422321D03*
X485774Y416416D03*
Y414447D03*
Y412479D03*
Y420353D03*
Y418384D03*
Y422321D03*
G54D27*
X657383Y396400D03*
G54D28*
X680217Y387345D03*
Y396400D03*
Y405455D03*
G54D19*
X474947Y409526D03*
X472979D03*
Y425274D03*
X474947D03*
X480853Y409526D03*
X478884D03*
X476916D03*
Y425274D03*
X478884D03*
X480853D03*
X482821Y409526D03*
Y425274D03*
M02*
