G04 ================== begin FILE IDENTIFICATION RECORD ==================*
G04 Layout Name:  E:/Cadence/SDR/board/SDR_2832.brd*
G04 Film Name:    TOP*
G04 File Format:  Gerber RS274X*
G04 File Origin:  Cadence Allegro 16.6-P004*
G04 Origin Date:  Sat Feb 22 23:07:56 2020*
G04 *
G04 Layer:  VIA CLASS/TOP*
G04 Layer:  PIN/TOP*
G04 Layer:  ETCH/TOP*
G04 *
G04 Offset:    (0.00 0.00)*
G04 Mirror:    No*
G04 Mode:      Positive*
G04 Rotation:  0*
G04 FullContactRelief:  No*
G04 UndefLineWidth:     60.00*
G04 ================== end FILE IDENTIFICATION RECORD ====================*
%FSLAX25Y25*MOIN*%
%IR0*IPPOS*OFA0.00000B0.00000*MIA0B0*SFA1.00000B1.00000*%
%ADD10C,.024*%
%ADD17C,.04724*%
%ADD22C,.05709*%
%ADD16R,.04724X.04724*%
%ADD12C,.06299*%
%ADD21R,.05709X.05709*%
%ADD25R,.00787X.03346*%
%ADD24R,.03346X.00787*%
%ADD27R,.08465X.12795*%
%ADD15R,.06299X.06299*%
%ADD19R,.01181X.0315*%
%AMMACRO26*
4,1,32,.07677,.08858,
.08858,.07677,
.08858,-.07677,
.0884,-.078821,
.087867,-.08081,
.086996,-.082676,
.085815,-.084362,
.084358,-.085818,
.082671,-.086999,
.080805,-.087869,
.078816,-.088401,
.07677,-.08858,
-.07677,-.08858,
-.078821,-.0884,
-.08081,-.087867,
-.082676,-.086996,
-.084362,-.085815,
-.085818,-.084358,
-.086999,-.082671,
-.087869,-.080805,
-.088401,-.078816,
-.08858,-.07677,
-.08858,.07677,
-.0884,.078821,
-.087867,.08081,
-.086996,.082676,
-.085815,.084362,
-.084358,.085818,
-.082671,.086999,
-.080805,.087869,
-.078816,.088401,
-.07677,.08858,
.07677,.08858,
0.0*
%
%ADD26MACRO26*%
%ADD18R,.0315X.01181*%
%ADD23R,.06102X.02362*%
%ADD14O,.05118X.02362*%
%AMMACRO20*
4,1,35,-.03937,-.05315,
-.05315,-.03937,
-.05315,.03937,
-.052941,.041763,
-.05232,.044083,
-.051305,.046259,
-.049928,.048227,
-.04823,.049925,
-.046262,.051303,
-.044086,.052318,
-.041766,.05294,
-.039374,.05315,
-.03937,.05315,
.03937,.05315,
.041763,.052941,
.044083,.05232,
.046259,.051305,
.048227,.049928,
.049925,.04823,
.051303,.046262,
.052318,.044086,
.05294,.041766,
.05315,.039374,
.05315,.03937,
.05315,-.03937,
.052941,-.041763,
.05232,-.044083,
.051305,-.046259,
.049928,-.048227,
.04823,-.049925,
.046262,-.051303,
.044086,-.052318,
.041766,-.05294,
.039374,-.05315,
.03937,-.05315,
-.03937,-.05315,
0.0*
%
%ADD20MACRO20*%
%ADD28R,.08465X.0374*%
%ADD13R,.04528X.05709*%
%ADD11R,.05709X.04528*%
%ADD29C,.01*%
%ADD30C,.02*%
%ADD31C,.03*%
%ADD32C,.04*%
%ADD33C,.015*%
%ADD34C,.0035*%
%ADD39C,.07302*%
%ADD41C,.05728*%
%ADD37O,.0612X.03364*%
%ADD40R,.07302X.07302*%
%ADD42R,.07104X.03364*%
%ADD38R,.06712X.0553*%
%ADD36R,.0553X.06712*%
%ADD43R,.09468X.04742*%
%ADD35R,.05728X.05728*%
G75*
%LPD*%
G75*
G36*
G01X394800Y365900D02*
Y478900D01*
X699600D01*
Y365900D01*
X394800D01*
G37*
%LPC*%
G75*
G36*
G01X607556Y463714D02*
Y459078D01*
X600844D01*
Y459960D01*
G03X600161Y460243I-400J0D01*
G01X599410Y459492D01*
X522418D01*
X512502Y449575D01*
Y426685D01*
X508315Y422498D01*
X496392D01*
G03X496051Y421889I0J-400D01*
G02X496112Y420219I-1451J-889D01*
G03X496467Y419636I355J-183D01*
G01X508766D01*
X518648Y429518D01*
Y448017D01*
X526522Y455890D01*
X585018D01*
X587852Y453057D01*
Y450708D01*
X589956D01*
Y445872D01*
G03X590639Y445589I400J0D01*
G01X591644Y446594D01*
Y450708D01*
X598356D01*
Y445178D01*
X593060D01*
X592188Y444305D01*
G03X592470Y443622I283J-283D01*
G01X598356D01*
Y438092D01*
X595984D01*
X595690Y437797D01*
Y433689D01*
X598412D01*
Y434724D01*
G02X600248Y437583I1001J1376D01*
G03X600844Y437931I196J349D01*
G01Y443122D01*
X607556D01*
Y438417D01*
X608300Y437673D01*
X609044Y438417D01*
Y443122D01*
X615756D01*
Y437592D01*
X611051D01*
X609862Y436403D01*
Y431491D01*
G02X609774Y431080I-1004J0D01*
G01X609756Y431041D01*
Y429456D01*
X611341D01*
X611380Y429474D01*
G02X611791Y429562I411J-916D01*
G01X614072D01*
X620111Y435602D01*
X622092D01*
Y437956D01*
X623856D01*
Y440244D01*
X622092D01*
Y446956D01*
X627622D01*
Y440244D01*
X625858D01*
Y437956D01*
X627622D01*
Y431244D01*
X622092D01*
Y433598D01*
X620941D01*
X617576Y430234D01*
G03X617772Y429561I283J-283D01*
G02X618851Y427011I-372J-1661D01*
G03X619192Y426402I341J-209D01*
G01X619592D01*
Y428756D01*
X625122D01*
Y422044D01*
X622316D01*
G03X622009Y421388I0J-400D01*
G02X621997Y419198I-1309J-1088D01*
G03X622302Y418540I305J-258D01*
G01X674723D01*
X689507Y433323D01*
X689442Y433453D01*
G02X690926Y431909I3258J1647D01*
G01X685801Y426784D01*
G03X686083Y426101I283J-283D01*
G01X689186D01*
X689231Y426239D01*
G02Y423960I3469J-1140D01*
G01X689186Y424098D01*
X685115D01*
X675978Y414962D01*
X613989D01*
Y410344D01*
X609756D01*
Y406502D01*
X616785D01*
X619017Y408734D01*
X619007Y408828D01*
G02X620528Y407307I1693J172D01*
G01X620433Y407316D01*
X617615Y404498D01*
X606297D01*
X605841Y404954D01*
G03X605158Y404672I-283J-283D01*
G01Y403356D01*
X606922D01*
Y397587D01*
X609508Y395002D01*
X614464D01*
X620698Y401236D01*
Y403900D01*
G02X625702I2502J0D01*
G01Y400408D01*
X631108Y395002D01*
X649392D01*
X650098Y395708D01*
Y400008D01*
X652649Y402558D01*
Y403299D01*
X662117D01*
Y398902D01*
X680217D01*
G02X680982Y398782I-1J-2502D01*
G01X681012Y398772D01*
X684951D01*
Y394028D01*
X681044D01*
X680984Y394019D01*
X680968Y394014D01*
G02X680217Y393898I-753J2386D01*
G01X662117D01*
Y389501D01*
X661510D01*
X658908Y386898D01*
X610508D01*
X609802Y386192D01*
Y383192D01*
X607208Y380598D01*
X606958D01*
Y380036D01*
X604768D01*
X597830Y373098D01*
X506264D01*
X500298Y379064D01*
Y384198D01*
X487298D01*
Y386091D01*
G02Y386109I1702J9D01*
G01Y389192D01*
X486744D01*
Y394722D01*
X493456D01*
Y393458D01*
X499444D01*
Y394722D01*
X506156D01*
Y389192D01*
X505302D01*
Y381136D01*
X508336Y378102D01*
X595758D01*
X601098Y383442D01*
Y395898D01*
X591530D01*
G02X589679Y396718I1J2502D01*
G01X587977D01*
Y399581D01*
G03X587295Y399864I-400J0D01*
G01X586629Y399198D01*
X574271D01*
X574164Y399306D01*
G03X573822Y399165I-142J-142D01*
G01Y396718D01*
X566718D01*
Y400082D01*
X572421D01*
G03X572704Y400765I0J400D01*
G01X569298Y404171D01*
Y411929D01*
X573314Y415944D01*
X575644D01*
Y416708D01*
X582097D01*
G03X582459Y417278I0J400D01*
G02X582325Y417700I1541J722D01*
G03X581792Y418004I-394J-71D01*
G02X579838Y420621I-592J1596D01*
G03X579518Y421260I-320J239D01*
G01X574377D01*
X569883Y416766D01*
X569893Y416672D01*
G02X568372Y418193I-1693J-172D01*
G01X568467Y418184D01*
X573547Y423264D01*
X573772D01*
G03X574119Y423861I-1J400D01*
G02X577275Y425003I1481J839D01*
G01X577305Y424838D01*
X579086D01*
G03X579431Y425440I0J400D01*
G02X579347Y426996I1469J860D01*
G03X578982Y427560I-365J164D01*
G01X574147D01*
G02X574204Y429562I-1347J1040D01*
G01X588609D01*
G02X589020Y429474I0J-1004D01*
G01X589059Y429456D01*
X590644D01*
Y431041D01*
X590626Y431080D01*
G02X590538Y431491I916J411D01*
G01Y432378D01*
X589373Y433542D01*
X587341D01*
X586466Y434417D01*
X586372Y434407D01*
G02X585088Y437389I-172J1693D01*
G03X584827Y438092I-261J303D01*
G01X583244D01*
Y443622D01*
X588672D01*
X589544Y444495D01*
G03X589262Y445178I-283J283D01*
G01X583244D01*
Y450708D01*
X585348D01*
Y452021D01*
X583982Y453388D01*
X527558D01*
X521152Y446981D01*
Y428482D01*
X510770Y418100D01*
G03X511053Y417418I283J-282D01*
G01X520501D01*
X532698Y429615D01*
Y438210D01*
G02X536701Y442914I1002J3203D01*
G01X557011D01*
X557067Y442858D01*
X557444D01*
Y444122D01*
X564156D01*
Y438592D01*
X557444D01*
Y439856D01*
X555823D01*
X555767Y439912D01*
X536701D01*
G02X534702Y438210I-3002J1501D01*
G01Y428785D01*
X521416Y415500D01*
X534702Y402215D01*
Y396343D01*
X537056D01*
Y394488D01*
X556467D01*
X556623Y394644D01*
X558244D01*
Y395908D01*
X564956D01*
Y390378D01*
X558244D01*
Y391642D01*
X557867D01*
X557711Y391486D01*
X537056D01*
Y389631D01*
X530344D01*
Y396343D01*
X532698D01*
Y401385D01*
X520638Y413445D01*
X491190D01*
G03X490907Y412763I0J-400D01*
G01X501861Y401808D01*
X506156D01*
Y400294D01*
X509004D01*
G02Y397792I1153J-1251D01*
G01X506156D01*
Y396278D01*
X499444D01*
Y400686D01*
X488903Y411228D01*
X485773D01*
G02X485206Y411364I0J1251D01*
G01X485163Y411386D01*
X483914D01*
Y410778D01*
X485492D01*
X491352Y404918D01*
Y401808D01*
X493456D01*
Y400294D01*
X494775D01*
X497552Y397518D01*
Y397256D01*
X497599Y397200D01*
G02X494697Y396672I-1299J-1100D01*
G01X494739Y396791D01*
X494139Y397391D01*
G03X493456Y397109I-283J-283D01*
G01Y396278D01*
X486744D01*
Y401808D01*
X488848D01*
Y403882D01*
X484456Y408274D01*
X483914D01*
Y407449D01*
X482104D01*
Y401708D01*
X484156D01*
Y396178D01*
X477444D01*
Y401708D01*
X479602D01*
Y405266D01*
G03X478919Y405549I-400J0D01*
G01X475320Y401950D01*
G03X475461Y401608I141J-142D01*
G01X475656D01*
Y396078D01*
X468944D01*
Y401608D01*
X471439D01*
X472546Y402716D01*
G03X472263Y403398I-283J282D01*
G01X471576D01*
G02X471519Y405476I-1376J1002D01*
G01X471579Y405402D01*
X471981D01*
X473346Y406766D01*
G03X473063Y407449I-283J283D01*
G01X471886D01*
Y411386D01*
X470637D01*
X470594Y411364D01*
G02X470027Y411228I-567J1115D01*
G01X467697D01*
X462918Y406448D01*
X460408D01*
Y404544D01*
X454878D01*
Y411256D01*
X460408D01*
Y408952D01*
X461882D01*
X466404Y413474D01*
X465172Y414706D01*
G03X464625Y414723I-283J-283D01*
G02X461804Y415859I-1125J1277D01*
G01X461798Y415932D01*
X461282Y416448D01*
X460508D01*
Y414344D01*
X454978D01*
Y421056D01*
X460508D01*
Y418952D01*
X462957D01*
G03X463239Y419634I-1J400D01*
G01X460575Y422298D01*
X449478D01*
X447498Y424278D01*
Y425192D01*
X445144D01*
Y430722D01*
X451030D01*
G03X451312Y431405I-1J400D01*
G01X450440Y432278D01*
X445144D01*
Y437808D01*
X451856D01*
Y433694D01*
X452949Y432602D01*
X454844D01*
Y437809D01*
X459952D01*
G03X460235Y438491I0J400D01*
G01X459551Y439176D01*
G02X459359Y439398I1414J1417D01*
G01X456294D01*
G02X453025Y439631I-1500J2002D01*
G01X446426Y446230D01*
X444236D01*
Y451958D01*
X449964D01*
Y449768D01*
X456330Y443402D01*
X463044D01*
Y447008D01*
X469756D01*
Y441477D01*
X463876D01*
G03X463593Y440795I0J-400D01*
G01X464465Y439922D01*
X469756D01*
Y434392D01*
X467652D01*
Y433355D01*
X473656Y427351D01*
X473946D01*
Y434492D01*
X471344D01*
Y440022D01*
X478056D01*
Y434492D01*
X475948D01*
Y427351D01*
X477882D01*
Y431451D01*
X479692Y433260D01*
Y438556D01*
X481456D01*
Y441144D01*
X479692D01*
Y447856D01*
X485222D01*
Y441144D01*
X483458D01*
Y438556D01*
X485222D01*
Y431844D01*
X481108D01*
X479886Y430621D01*
Y429667D01*
G03X480568Y429385I400J1D01*
G01X480985Y429802D01*
X494692D01*
Y436756D01*
X496456D01*
Y439044D01*
X494692D01*
Y445756D01*
X500222D01*
Y439044D01*
X498458D01*
Y436756D01*
X500222D01*
Y430044D01*
X498458D01*
Y429130D01*
X497127Y427798D01*
X481854D01*
Y427351D01*
X483914D01*
Y426276D01*
X506759D01*
X509098Y428615D01*
Y450915D01*
X521028Y462844D01*
X597027D01*
X600584Y466402D01*
X608667D01*
X610460Y464608D01*
X615756D01*
Y459078D01*
X609044D01*
Y463192D01*
X608239Y463997D01*
G03X607556Y463714I-283J-283D01*
G37*
G36*
G01X447792Y404544D02*
Y406398D01*
X444008D01*
Y404544D01*
X438478D01*
Y411256D01*
X444008D01*
Y409402D01*
X447792D01*
Y411256D01*
X453322D01*
Y404544D01*
X447792D01*
G37*
G36*
G01X423056Y409582D02*
X425816D01*
G02X426532Y409421I-2J-1682D01*
G01X426572Y409402D01*
X431392D01*
Y411256D01*
X436922D01*
Y404544D01*
X431392D01*
Y406398D01*
X426572D01*
X426532Y406379D01*
G02X426102Y406243I-718J1522D01*
G01X425936Y406214D01*
Y405841D01*
X426002Y405775D01*
Y399008D01*
X427856D01*
Y393478D01*
X421144D01*
Y394742D01*
X420672D01*
X420629Y394698D01*
X419008D01*
Y392844D01*
X413478D01*
Y399556D01*
X419008D01*
Y397702D01*
X419385D01*
X419428Y397744D01*
X421144D01*
Y399008D01*
X422998D01*
Y404531D01*
X422932Y404597D01*
Y406214D01*
X422766Y406243D01*
G02X423056Y409582I290J1657D01*
G37*
G36*
G01X615756Y450208D02*
Y444678D01*
X609044D01*
Y450208D01*
X611398D01*
Y451992D01*
X609044D01*
Y457522D01*
X615756D01*
Y451992D01*
X613402D01*
Y450208D01*
X615756D01*
G37*
G36*
G01X607556D02*
Y444678D01*
X600844D01*
Y450208D01*
X603198D01*
Y451992D01*
X600844D01*
Y457522D01*
X607556D01*
Y451992D01*
X605202D01*
Y450208D01*
X607556D01*
G37*
G36*
G01X492308Y447856D02*
Y441144D01*
X486778D01*
Y447856D01*
X488542D01*
Y450444D01*
X486778D01*
Y457156D01*
X492308D01*
Y450444D01*
X490544D01*
Y447856D01*
X492308D01*
G37*
G36*
G01X634708Y433598D02*
Y431244D01*
X629178D01*
Y437956D01*
X634708D01*
Y435602D01*
X639092D01*
Y437956D01*
X644622D01*
Y431244D01*
X639092D01*
Y433598D01*
X634708D01*
G37*
G36*
G01X505544Y430044D02*
Y429302D01*
X505572Y429255D01*
G02X502728Y429407I-1472J-855D01*
G03X502406Y430044I-322J237D01*
G01X501778D01*
Y436756D01*
X507308D01*
Y430044D01*
X505544D01*
G37*
G36*
G01X684951Y403084D02*
X681014D01*
X680984Y403074D01*
G02X679450I-767J2381D01*
G01X679420Y403084D01*
X675483D01*
Y407826D01*
X677716D01*
Y409047D01*
X677698Y409064D01*
Y413800D01*
G02X682702I2502J0D01*
G01Y411136D01*
X682718Y411119D01*
Y407826D01*
X684951D01*
Y403084D01*
G37*
G36*
G01X411922Y399556D02*
Y392844D01*
X406392D01*
Y394698D01*
X404456D01*
Y393392D01*
X397744D01*
Y398922D01*
X404456D01*
Y397702D01*
X406392D01*
Y399556D01*
X411922D01*
G37*
G36*
G01X444208Y387698D02*
Y385844D01*
X438678D01*
Y392556D01*
X444208D01*
Y390702D01*
X445580D01*
X445623Y390744D01*
X447244D01*
Y392008D01*
X453956D01*
Y386478D01*
X447244D01*
Y387742D01*
X446867D01*
X446824Y387698D01*
X444208D01*
G37*
G36*
G01X584091Y392500D02*
G03X583902Y392301I11J-199D01*
G01Y390250D01*
G03X584491Y389898I400J0D01*
G02X586676Y389402I809J-1498D01*
G01X587978D01*
Y390082D01*
X595082D01*
Y386718D01*
X587978D01*
Y387398D01*
X586676D01*
G02X584228Y387078I-1376J1002D01*
G03X583902Y386923I-126J-155D01*
G01Y386615D01*
X586115Y384402D01*
X587978D01*
Y385082D01*
X595082D01*
Y381718D01*
X587978D01*
Y382398D01*
X585285D01*
X581898Y385785D01*
Y393215D01*
X582373Y393689D01*
X582346Y393798D01*
G02X584091Y392500I1654J402D01*
G37*
G36*
G01X425752Y386392D02*
Y381930D01*
G02X423248I-1252J-3430D01*
G01Y386392D01*
X421144D01*
Y391922D01*
X427856D01*
Y386392D01*
X425752D01*
G37*
G54D39*
X404500Y378500D03*
X414500D03*
X692700Y445100D03*
G54D41*
X447100Y460906D03*
X574400Y448806D03*
X615906Y382900D03*
X643906Y408400D03*
G54D37*
X416166Y411640D03*
Y404160D03*
G54D40*
X434500Y378500D03*
X692700Y415100D03*
G54D42*
X570270Y383400D03*
Y388400D03*
Y393400D03*
X591530D03*
G54D38*
X401100Y403243D03*
X450600Y382157D03*
X472300Y391757D03*
X474700Y444343D03*
X480800Y391857D03*
X561600Y386057D03*
X560800Y448443D03*
X630100Y383157D03*
X642900D03*
G54D36*
X434357Y389200D03*
X611243Y400000D03*
X450657Y417700D03*
X482457Y453800D03*
X489543Y435200D03*
X504543Y442400D03*
X629443Y425400D03*
X631943Y443600D03*
X648943Y434600D03*
G54D43*
X680217Y387345D03*
G54D35*
X632094Y408400D03*
X574400Y436994D03*
%LPD*%
G75*
G36*
G01X450308Y424301D02*
X450101Y424509D01*
G02X450383Y425191I283J282D01*
G01X451856D01*
Y430598D01*
X454844D01*
Y425192D01*
X459592D01*
X459799Y424984D01*
G02X459517Y424301I-283J-283D01*
G01X450308D01*
G37*
G36*
G01X462239Y436488D02*
X463044Y435682D01*
Y434392D01*
X465148D01*
Y432319D01*
X471728Y425740D01*
Y425274D01*
G03X471865Y424704I1251J-1D01*
G01X471886Y424662D01*
Y423414D01*
X471028D01*
Y425289D01*
X461556Y434760D01*
Y436205D01*
G02X462239Y436488I400J0D01*
G37*
G36*
G01X467266Y422650D02*
X465202Y424715D01*
Y427317D01*
G02X465884Y427599I400J-1D01*
G01X469024Y424459D01*
Y423414D01*
X467949D01*
Y422933D01*
G02X467266Y422650I-400J0D01*
G37*
G36*
G01X503800Y384700D02*
X487800D01*
Y389192D01*
X493456D01*
Y392600D01*
X499444D01*
Y389192D01*
X503800D01*
Y384700D01*
G37*
G36*
G01X574961Y404169D02*
X573302Y405829D01*
Y410271D01*
X574972Y411942D01*
X575644D01*
Y411178D01*
X582356D01*
Y412442D01*
X583857D01*
G03X583859I1J1501D01*
G01X583942D01*
X584346Y412038D01*
X583198Y410891D01*
Y408617D01*
X583039Y408457D01*
G02X582356Y408740I-283J283D01*
G01Y409622D01*
X575644D01*
Y404452D01*
G02X574961Y404169I-400J0D01*
G37*
G36*
G01X588196Y400765D02*
X588915Y401485D01*
G03X586085Y404315I-1415J1415D01*
G01X584971Y403202D01*
X575929D01*
X575722Y403409D01*
G02X576005Y404091I283J282D01*
G01X582356D01*
Y405856D01*
X583270D01*
X585202Y407787D01*
Y410061D01*
X585378Y410238D01*
X588586D01*
G03X588997Y410326I1J1001D01*
G01X589036Y410344D01*
X590644D01*
Y408736D01*
X590626Y408697D01*
G03X590538Y408286I913J-410D01*
G01Y405198D01*
X592637Y403098D01*
X600233D01*
X601392Y401940D01*
Y400902D01*
X591530D01*
G03X589679Y400082I1J-2502D01*
G01X588479D01*
G02X588196Y400765I0J400D01*
G37*
G36*
G01X602808Y403356D02*
X601063Y405102D01*
X593467D01*
X593140Y405428D01*
G02X593423Y406111I283J283D01*
G01X603136D01*
Y405198D01*
X603156Y405178D01*
Y403356D01*
X602808D01*
G37*
G36*
G01X593686Y436152D02*
G02X593004Y435870I-400J1D01*
G01X589956Y438917D01*
Y442074D01*
X590961Y443079D01*
G02X591644Y442796I283J-283D01*
G01Y438092D01*
X593686D01*
Y436152D01*
G37*
G36*
G01X652649Y400884D02*
Y389501D01*
X659836D01*
G02X660118Y388818I-1J-400D01*
G01X658700Y387400D01*
X646256D01*
Y393008D01*
X639544D01*
Y387400D01*
X633456D01*
Y393008D01*
X626744D01*
Y387400D01*
X610300D01*
X609300Y386400D01*
Y383400D01*
X607640Y381740D01*
G02X606958Y382023I-282J283D01*
G01Y385764D01*
X601600D01*
Y396644D01*
X607156D01*
X609300Y394500D01*
X616600D01*
Y395400D01*
X623300Y402100D01*
X630900Y394500D01*
X649600D01*
X650600Y395500D01*
Y399800D01*
X651966Y401166D01*
G02X652649Y400884I283J-283D01*
G37*
G36*
G01X600414Y433689D02*
Y434724D01*
G03X600868Y436984I-1001J1377D01*
G02X601209Y437592I342J208D01*
G01X605549D01*
X606286Y436855D01*
Y433689D01*
X600414D01*
G37*
G54D10*
X398200Y369400D03*
X398300Y388000D03*
X404700Y369400D03*
X404800Y388400D03*
X412600Y369500D03*
X413400Y388200D03*
X423100Y369500D03*
X431100Y369400D03*
X430400Y415300D03*
X434800Y395900D03*
X434600Y401700D03*
X435400Y425600D03*
Y432800D03*
Y439500D03*
X440700Y369100D03*
X444800Y375300D03*
X442500Y396000D03*
X440300Y414700D03*
X445500Y402500D03*
X450700Y396100D03*
X454400Y401300D03*
X458700Y385900D03*
X463600Y380400D03*
X463500Y416000D03*
X464200Y451800D03*
X471200Y379300D03*
X470200Y404400D03*
X471600Y452000D03*
X474700Y420500D03*
X479900Y379500D03*
X477900Y417400D03*
X481000Y414300D03*
X479600Y461000D03*
X487200Y461300D03*
X488400Y379300D03*
X489000Y386100D03*
X495100Y379900D03*
X496300Y396100D03*
X494600Y421000D03*
X495700Y461600D03*
X501500Y371500D03*
X503300Y406900D03*
X499200Y410200D03*
X499600Y450600D03*
X498800Y455900D03*
X508700Y405600D03*
X507500Y410900D03*
X504100Y428400D03*
X504600Y451100D03*
X512700Y370100D03*
X510800Y383600D03*
X510700Y389600D03*
X510157Y399043D03*
X513600Y460800D03*
X509800Y456700D03*
X517500Y464300D03*
X522100Y370300D03*
X524800Y465900D03*
X534300Y370300D03*
X531700Y457700D03*
X531200Y466200D03*
X537900Y457700D03*
X537500Y466200D03*
X546500Y370200D03*
X544000Y457700D03*
X545100Y466600D03*
X550800Y457500D03*
X552700Y467000D03*
X557800Y370500D03*
Y457800D03*
X559600Y466300D03*
X568200Y416500D03*
X564300Y457700D03*
X566000Y466000D03*
X569100Y370300D03*
X572800Y428600D03*
X571100Y458000D03*
X571500Y466000D03*
X575600Y424700D03*
X578200Y457900D03*
X578000Y466100D03*
X579700Y370300D03*
X584000Y394200D03*
Y418000D03*
X581200Y419600D03*
X580900Y426300D03*
X584000Y457700D03*
X584100Y466100D03*
X585300Y388400D03*
X587500Y402900D03*
X586200Y436100D03*
X591100Y370200D03*
X589900Y457100D03*
X590500Y466200D03*
X600200Y413200D03*
Y419900D03*
Y426200D03*
X599413Y436100D03*
X596500Y455900D03*
X598700Y469300D03*
X606200Y469100D03*
X616300Y421300D03*
X613000Y468900D03*
X620700Y409000D03*
Y420300D03*
X617400Y427900D03*
X619600Y451900D03*
Y457300D03*
X620400Y462100D03*
X619500Y466700D03*
X623200Y403900D03*
X631400Y375600D03*
X638100Y412400D03*
X643100Y375500D03*
X638800Y402400D03*
X641300Y423300D03*
X648100Y460700D03*
X653600Y411500D03*
X649500Y423400D03*
X659100Y422700D03*
X661700Y412100D03*
X660300Y461200D03*
X665200Y376800D03*
X670300Y412500D03*
X666200Y424100D03*
X673400Y425900D03*
X671000Y461900D03*
X678500Y377000D03*
X680200Y413800D03*
X690600Y378100D03*
X691000Y388600D03*
X691200Y399700D03*
G54D11*
X401100Y396157D03*
Y403243D03*
X424500Y389157D03*
Y396243D03*
X450600Y382157D03*
Y389243D03*
X448500Y427957D03*
Y435043D03*
X458200Y427957D03*
Y435043D03*
X466400Y437157D03*
Y444243D03*
X472300Y391757D03*
Y398843D03*
X474700Y437257D03*
Y444343D03*
X480800Y391857D03*
Y398943D03*
X490100Y391957D03*
Y399043D03*
X502800Y391957D03*
Y399043D03*
X561600Y386057D03*
Y393143D03*
X560800Y441357D03*
Y448443D03*
X579000Y406857D03*
Y413943D03*
X586600Y440857D03*
Y447943D03*
X595000Y440857D03*
Y447943D03*
X604200Y440357D03*
Y447443D03*
Y454757D03*
Y461843D03*
X612400Y440357D03*
Y447443D03*
Y454757D03*
Y461843D03*
X630100Y383157D03*
Y390243D03*
X642900Y383157D03*
Y390243D03*
G54D20*
X477900Y417400D03*
G54D30*
G01X409157Y396200D02*
X401143D01*
X401100Y396157D01*
G01X424500Y396243D02*
X420050D01*
X420007Y396200D01*
X416243D01*
G01X424434Y407900D02*
Y405219D01*
X424500Y405153D01*
Y396243D01*
G01X424434Y407900D02*
X434157D01*
G01X441443Y389200D02*
X446202D01*
X446245Y389243D01*
X446495D01*
G01X441243Y407900D02*
X450557D01*
G01X446495Y389243D02*
X450600D01*
G01X466400Y437157D02*
X464400D01*
G01X474600Y444243D02*
X474700Y444343D01*
G01X489000Y386100D02*
Y390857D01*
X490100Y391957D01*
G01X502800D02*
X490100D01*
G01X533700Y392987D02*
X557089D01*
X557245Y393143D01*
X561600D01*
G01X560800Y441357D02*
X556445D01*
X556389Y441413D01*
X533700D01*
G01X579000Y413943D02*
X582855D01*
G01D02*
X583857D01*
G01X604157Y386825D02*
X604094Y386762D01*
Y386694D01*
G54D21*
X533700Y392987D03*
G54D12*
X404500Y378500D03*
X414500D03*
X424500D03*
X692700Y425100D03*
Y435100D03*
Y445100D03*
G54D31*
G01X464400Y437157D02*
X460966Y440591D01*
Y441400D01*
X454794D01*
G01X587500Y402900D02*
X585800Y401200D01*
X575100D01*
X571300Y405000D01*
Y411100D01*
X574143Y413943D01*
X579000D01*
G54D13*
X409157Y396200D03*
X416243D03*
X434157Y407900D03*
X434357Y389200D03*
X441443D03*
X441243Y407900D03*
X450557D03*
X450657Y417700D03*
X457643Y407900D03*
X457743Y417700D03*
X482457Y435200D03*
Y444500D03*
Y453800D03*
X489543Y435200D03*
Y444500D03*
Y453800D03*
X497457Y433400D03*
Y442400D03*
X504543Y433400D03*
Y442400D03*
X604157Y400000D03*
X611243D03*
X622357Y425400D03*
X624857Y434600D03*
Y443600D03*
X629443Y425400D03*
X631943Y434600D03*
Y443600D03*
X641857Y434600D03*
X648943D03*
G54D22*
X533700Y441413D03*
G54D32*
G01X454794Y441400D02*
X447100Y449094D01*
G01X604094Y382900D02*
X596794Y375600D01*
X507300D01*
X502800Y380100D01*
Y391957D01*
G01X591530Y398400D02*
X602757D01*
X604157Y397000D01*
G01Y386825D02*
Y382963D01*
X604094Y382900D01*
G01X604157Y397000D02*
Y386825D01*
G01X604094Y386694D02*
X607300Y389900D01*
X612900D01*
G01X604157Y397000D02*
Y400000D01*
G01X630100Y390243D02*
X629757Y389900D01*
X612900D01*
G01D02*
X623200Y400200D01*
G01D02*
Y403900D01*
G01X642900Y390243D02*
X630100D01*
G01X642900D02*
X651300D01*
G01D02*
X657383Y396322D01*
G01Y396400D02*
X652900D01*
X652700Y396600D01*
G01X657383Y396322D02*
Y389817D01*
G01Y396400D02*
Y396322D01*
G01X680217Y396400D02*
X657383D01*
G01X680217Y405455D02*
Y410083D01*
X680200Y410100D01*
Y413800D01*
G54D14*
X416166Y404160D03*
Y411640D03*
X424434Y407900D03*
G54D23*
X570270Y383400D03*
Y388400D03*
Y393400D03*
Y398400D03*
X591530Y383400D03*
Y388400D03*
Y393400D03*
Y398400D03*
G54D33*
G01X424500Y389157D02*
Y378500D01*
G01X446495Y389243D02*
X446452Y389200D01*
G01X457643Y407900D02*
X457843Y407700D01*
X462400D01*
X467179Y412479D01*
X470026D01*
G01X457743Y417700D02*
X461800D01*
G01D02*
X463500Y416000D01*
G01X461800Y417700D02*
X463948D01*
X467201Y414447D01*
X470026D01*
G01X466400Y437157D02*
Y432837D01*
X472979Y426258D01*
Y425274D01*
G01X472300Y398843D02*
Y400700D01*
X478900Y407300D01*
Y409510D01*
X478884Y409526D01*
G01X480853D02*
Y398996D01*
X480800Y398943D01*
G01X482821Y409526D02*
X484974D01*
X490100Y404400D01*
Y399043D01*
G01X502800D02*
X502700Y399143D01*
Y399200D01*
X489421Y412479D01*
X485774D01*
G01Y420353D02*
X493200D01*
G01X485774Y418384D02*
X509284D01*
X519900Y429000D01*
Y447499D01*
X527040Y454639D01*
X584500D01*
X586600Y452539D01*
Y447943D01*
G01X496300Y396100D02*
Y397000D01*
X494257Y399043D01*
X490100D01*
G01X494600Y421000D02*
X493847D01*
X493200Y420353D01*
G01X502800Y399043D02*
X510157D01*
G54D15*
X434500Y378500D03*
X692700Y415100D03*
G54D24*
X588586Y411239D03*
Y412813D03*
Y414388D03*
Y415963D03*
Y417538D03*
Y419113D03*
Y420687D03*
Y422262D03*
Y423837D03*
Y425412D03*
Y426987D03*
Y428561D03*
X611814Y415963D03*
Y414388D03*
Y412813D03*
Y411239D03*
Y420687D03*
Y419113D03*
Y417538D03*
Y426987D03*
Y425412D03*
Y423837D03*
Y422262D03*
Y428561D03*
G54D34*
G01X397543Y403243D02*
X401100D01*
G01X404500Y374648D02*
Y378500D01*
G01D02*
Y382352D01*
G01X400648Y378500D02*
X404500D01*
G01D02*
X408352D01*
G01X401100Y400277D02*
Y403243D01*
G01D02*
Y406209D01*
G01Y403243D02*
X404657D01*
G01X410648Y378500D02*
X414500D01*
G01Y374648D02*
Y378500D01*
G01D02*
Y382352D01*
G01Y378500D02*
X418352D01*
G01X412905Y404160D02*
X416166D01*
G01X412905Y411640D02*
X416166D01*
G01Y402277D02*
Y404160D01*
G01D02*
Y406043D01*
G01Y404160D02*
X419427D01*
G01X416166Y409757D02*
Y411640D01*
G01D02*
Y413523D01*
G01Y411640D02*
X419427D01*
G01X447043Y382157D02*
X450600D01*
G01X447691Y417700D02*
X450657D01*
G01X447100Y457842D02*
Y460906D01*
G01D02*
Y463970D01*
G01X444036Y460906D02*
X447100D01*
G01D02*
X450164D01*
G01X450600Y379191D02*
Y382157D01*
G01D02*
Y385123D01*
G01Y382157D02*
X454157D01*
G01X450657Y414143D02*
Y417700D01*
G01D02*
Y421257D01*
G01Y417700D02*
X453623D01*
G01X462843Y444243D02*
X466400D01*
G01X468743Y391757D02*
X472300D01*
G01X466400Y441277D02*
Y444243D01*
G01D02*
Y447209D01*
G01Y444243D02*
X469957D01*
G01X472300Y388791D02*
Y391757D01*
G01D02*
Y394723D01*
G01Y391757D02*
X475857D01*
G01X474700Y441377D02*
Y444343D01*
G01D02*
Y447309D01*
G01X471143Y444343D02*
X474700D01*
G01D02*
X478257D01*
G01X477243Y391857D02*
X480800D01*
G01X479491Y453800D02*
X482457D01*
G01X480800Y388891D02*
Y391857D01*
G01D02*
Y394823D01*
G01Y391857D02*
X484357D01*
G01X482457Y450243D02*
Y453800D01*
G01D02*
Y457357D01*
G01Y453800D02*
X485423D01*
G01X489543Y431643D02*
Y435200D01*
G01D02*
Y438757D01*
G01X486577Y435200D02*
X489543D01*
G01D02*
X492509D01*
G01X501577Y442400D02*
X504543D01*
G01Y438843D02*
Y442400D01*
G01D02*
Y445957D01*
G01Y442400D02*
X507509D01*
G01X558043Y386057D02*
X561600D01*
G01X560800Y445477D02*
Y448443D01*
G01D02*
Y451409D01*
G01X557243Y448443D02*
X560800D01*
G01D02*
X564357D01*
G01X561600Y383091D02*
Y386057D01*
G01D02*
Y389023D01*
G01Y386057D02*
X565157D01*
G01X570270Y381517D02*
Y383400D01*
G01D02*
Y385283D01*
G01X566517Y383400D02*
X570270D01*
G01D02*
X574023D01*
G01X570270Y386517D02*
Y388400D01*
G01D02*
Y390283D01*
G01X566517Y388400D02*
X570270D01*
G01D02*
X574023D01*
G01X570270Y391517D02*
Y393400D01*
G01D02*
Y395283D01*
G01X566517Y393400D02*
X570270D01*
G01D02*
X574023D01*
G01X570270Y396517D02*
Y398400D01*
G01D02*
Y400283D01*
G01X566517Y398400D02*
X570270D01*
G01D02*
X574023D01*
G01X571336Y448806D02*
X574400D01*
G01Y445742D02*
Y448806D01*
G01D02*
Y451870D01*
G01Y448806D02*
X577464D01*
G01X604094Y382900D02*
Y385964D01*
G01Y382900D02*
X607158D01*
G01X608277Y400000D02*
X611243D01*
G01X612842Y382900D02*
X615906D01*
G01X611243Y396443D02*
Y400000D01*
G01D02*
Y403557D01*
G01Y400000D02*
X614209D01*
G01X615906Y379836D02*
Y382900D01*
G01D02*
Y385964D01*
G01Y382900D02*
X618970D01*
G01X630100Y380191D02*
Y383157D01*
G01D02*
Y386123D01*
G01X626543Y383157D02*
X630100D01*
G01D02*
X633657D01*
G01X630100Y390243D02*
Y393209D01*
G01X626543Y390243D02*
X630100D01*
G01X629443Y421843D02*
Y425400D01*
G01D02*
Y428957D01*
G01X626477Y425400D02*
X629443D01*
G01D02*
X632409D01*
G01X628977Y443600D02*
X631943D01*
G01Y440043D02*
Y443600D01*
G01D02*
Y447157D01*
G01Y443600D02*
X634909D01*
G01X639343Y383157D02*
X642900D01*
G01X640842Y408400D02*
X643906D01*
G01X642900Y380191D02*
Y383157D01*
G01D02*
Y386123D01*
G01Y383157D02*
X646457D01*
G01X643906Y405336D02*
Y408400D01*
G01D02*
Y411464D01*
G01Y408400D02*
X646970D01*
G01X645977Y434600D02*
X648943D01*
G01Y431043D02*
Y434600D01*
G01D02*
Y438157D01*
G01Y434600D02*
X651909D01*
G01X675282Y387345D02*
X680217D01*
G01Y384773D02*
Y387345D01*
G01D02*
Y389917D01*
G01Y387345D02*
X685152D01*
G01X688848Y415100D02*
X692700D01*
G01Y411248D02*
Y415100D01*
G01D02*
Y418952D01*
G01Y415100D02*
X696552D01*
G54D25*
X593113Y408286D03*
X591539D03*
Y431514D03*
X593113D03*
X597838Y408286D03*
X596263D03*
X594688D03*
Y431514D03*
X596263D03*
X597838D03*
X604137Y408286D03*
X602562D03*
X600987D03*
X599413D03*
Y431514D03*
X600987D03*
X602562D03*
X604137D03*
X608861Y408286D03*
X607287D03*
X605712D03*
Y431514D03*
X607287D03*
X608861D03*
G54D16*
X447100Y449094D03*
X574400Y436994D03*
X604094Y382900D03*
X632094Y408400D03*
G54D26*
X600200Y419900D03*
G54D17*
X447100Y460906D03*
X574400Y448806D03*
X615906Y382900D03*
X643906Y408400D03*
G54D18*
X470026Y412479D03*
Y414447D03*
Y416416D03*
Y418384D03*
Y420353D03*
Y422321D03*
X485774Y416416D03*
Y414447D03*
Y412479D03*
Y420353D03*
Y418384D03*
Y422321D03*
G54D27*
X657383Y396400D03*
G54D28*
X680217Y387345D03*
Y396400D03*
Y405455D03*
G54D19*
X474947Y409526D03*
X472979D03*
Y425274D03*
X474947D03*
X480853Y409526D03*
X478884D03*
X476916D03*
Y425274D03*
X478884D03*
X480853D03*
X482821Y409526D03*
Y425274D03*
G54D29*
G01X470026Y416416D02*
X467874D01*
X460990Y423300D01*
X449893D01*
X448500Y424693D01*
Y427957D01*
G01Y435043D02*
X449091D01*
X452534Y431600D01*
X460900D01*
X464200Y428300D01*
Y424300D01*
X468147Y420353D01*
X470026D01*
G01X458243Y427957D02*
X467816Y418384D01*
X470026D01*
G01X458000Y428000D02*
X458200D01*
X458243Y427957D01*
G01X458200D02*
X458243D01*
G01X470026Y422321D02*
Y424874D01*
X459900Y435000D01*
X458243D01*
X458200Y435043D01*
G01X474947Y409526D02*
Y406951D01*
X472396Y404400D01*
X470200D01*
G01X476916Y418384D02*
X474800Y420500D01*
X474700D01*
G01Y437257D02*
X474900Y437057D01*
Y435300D01*
X474947Y435253D01*
Y425274D01*
G01X476916D02*
Y418384D01*
G01D02*
X477900Y417400D01*
G01X478884Y425274D02*
Y431036D01*
X482457Y434609D01*
Y435200D01*
G01X497457Y433400D02*
Y429545D01*
X496712Y428800D01*
X481400D01*
X480853Y428253D01*
Y425274D01*
G01X485774Y416416D02*
X520916D01*
X533700Y429200D01*
Y441413D01*
G01X485774Y414447D02*
X521053D01*
X533700Y401800D01*
Y392987D01*
G01X604200Y461843D02*
X600345D01*
X598995Y460493D01*
X522003D01*
X511500Y449990D01*
Y427100D01*
X507900Y423500D01*
X488458D01*
X487279Y422321D01*
X485774D01*
G01X482821Y425274D02*
X507174D01*
X510100Y428200D01*
Y450500D01*
X521443Y461843D01*
X597442D01*
X600999Y465400D01*
X608252D01*
X611809Y461843D01*
X612400D01*
G01X482457Y435200D02*
Y444500D01*
G01X489543D02*
Y453800D01*
G01X493200Y420353D02*
X493953D01*
X494600Y421000D01*
G01X497457Y433400D02*
Y442400D01*
G01X504543Y433400D02*
Y428843D01*
X504100Y428400D01*
G01X568200Y416500D02*
X573962Y422262D01*
X588586D01*
G01X575600Y424700D02*
X576463Y423837D01*
X588586D01*
G01X572800Y428600D02*
X572839Y428561D01*
X588586D01*
G01X591530Y383400D02*
X585700D01*
X582900Y386200D01*
Y392800D01*
X584000Y393900D01*
Y394200D01*
G01X579000Y406857D02*
X582855D01*
X584200Y408202D01*
Y410476D01*
X584963Y411239D01*
X588586D01*
G01X583857Y413943D02*
X584987Y412813D01*
X588586D01*
G01X585500Y416300D02*
X583800Y414600D01*
X583512D01*
X582855Y413943D01*
G01X588586Y420687D02*
X585525D01*
X585512Y420700D01*
X582200D01*
X581200Y419700D01*
Y419600D01*
G01X588586Y426987D02*
X581587D01*
X580900Y426300D01*
G01X585300Y388400D02*
X591530D01*
G01X586750Y417538D02*
X585512Y416300D01*
X585500D01*
G01X586750Y417538D02*
X586738D01*
X585500Y416300D01*
G01X588586Y417538D02*
X586750D01*
G01X584000Y418000D02*
X584100D01*
X585213Y419113D01*
X588586D01*
G01X591539Y431514D02*
Y432793D01*
X589788Y434544D01*
X587756D01*
X586200Y436100D01*
G01X586600Y440857D02*
X593113Y434344D01*
Y431514D01*
G01X595000Y447943D02*
X594409D01*
X587323Y440857D01*
X586600D01*
G01X604157Y400591D02*
X600648Y404100D01*
X593052D01*
X591539Y405613D01*
Y408286D01*
G01D02*
X593113D01*
G01X597838Y431514D02*
Y422262D01*
X600200Y419900D01*
G01X595000Y440857D02*
Y438524D01*
X594688Y438212D01*
Y431514D01*
G01X604157Y400591D02*
Y400000D01*
G01X604137Y408286D02*
Y405613D01*
X604157Y405593D01*
Y400591D01*
G01X611814Y414388D02*
X605712D01*
X600200Y419900D01*
G01X604137Y423837D02*
X600200Y419900D01*
G01X611814Y423837D02*
X604137D01*
G01X605712Y431514D02*
Y425412D01*
X604137Y423837D01*
G01X599413Y431514D02*
Y436100D01*
G01X607287Y431514D02*
Y437270D01*
X604200Y440357D01*
G01Y447443D02*
Y454757D01*
G01X620700Y409000D02*
X617200Y405500D01*
X606712D01*
X605712Y406500D01*
Y408286D01*
G01X608861Y431514D02*
Y436818D01*
X612400Y440357D01*
G01X611814Y415963D02*
X675563D01*
X684700Y425100D01*
X692700D01*
G01X620700Y420300D02*
X619513Y419113D01*
X617225D01*
X617212Y419100D01*
X615388D01*
X615375Y419113D01*
X611814D01*
G01Y420687D02*
X615687D01*
X616300Y421300D01*
G01X611814Y417538D02*
X675138D01*
X692700Y435100D01*
G01X620700Y420300D02*
X617500Y423500D01*
X615388D01*
X615188Y423300D01*
X615100D01*
X614062Y422262D01*
X611814D01*
G01Y426987D02*
X616487D01*
X617400Y427900D01*
G01X622357Y425400D02*
X614499D01*
X614487Y425412D01*
X611814D01*
G01X624857Y434600D02*
X620526D01*
X614487Y428561D01*
X611814D01*
G01X612400Y447443D02*
Y454757D01*
G01X624857Y434600D02*
Y443600D01*
G01X641857Y434600D02*
X631943D01*
M02*
