G04 ================== begin FILE IDENTIFICATION RECORD ==================*
G04 Layout Name:  E:/Cadence/SDR/board_r820t2/r820t2.brd*
G04 Film Name:    PASTEMASK_TOP*
G04 File Format:  Gerber RS274X*
G04 File Origin:  Cadence Allegro 16.6-P004*
G04 Origin Date:  Mon Mar 23 23:25:27 2020*
G04 *
G04 Layer:  VIA CLASS/PASTEMASK_TOP*
G04 Layer:  PIN/PASTEMASK_TOP*
G04 Layer:  PACKAGE GEOMETRY/PASTEMASK_TOP*
G04 *
G04 Offset:    (0.0000 0.0000)*
G04 Mirror:    No*
G04 Mode:      Positive*
G04 Rotation:  0*
G04 FullContactRelief:  No*
G04 UndefLineWidth:     0.6000*
G04 ================== end FILE IDENTIFICATION RECORD ====================*
%FSLAX25Y25*MOMM*%
%IR0*IPPOS*OFA0.00000B0.00000*MIA0B0*SFA1.00000B1.00000*%
%ADD12O,.6X1.3*%
%ADD14R,.45X1.5*%
%ADD11R,2.15X.95*%
%ADD20R,1.36X.85*%
%ADD18R,.3X.8*%
%ADD16R,.8X.3*%
%ADD10R,1.15X1.45*%
%ADD15R,1.45X1.15*%
%ADD13R,2.15X3.25*%
%AMMACRO17*
4,1,4,-.854,.854,
.854,.854,
.854,-.854,
-.854,-.854,
-.854,.854,
0.0*
%
%ADD17MACRO17*%
%ADD19R,.85X.95*%
G75*
%LPD*%
G75*
G36*
G01X-126020Y1462060D02*
X44780D01*
Y1291260D01*
X-126020D01*
Y1462060D01*
G37*
G54D10*
X-1403180Y1798320D03*
X-1131400Y-980440D03*
X-1223180Y1798320D03*
X-951400Y-980440D03*
X-989160Y1798320D03*
X-826600Y1087120D03*
X-809160Y1798320D03*
X-681820Y-1036320D03*
X-719920Y1297940D03*
Y1501140D03*
X-646600Y1087120D03*
X-582760Y1798320D03*
X-501820Y-1036320D03*
X-539920Y1297940D03*
Y1501140D03*
X-402760Y1798320D03*
X-298280Y220980D03*
X-118280D03*
X57320Y2052320D03*
X143680Y1846580D03*
X237320Y2052320D03*
X323680Y1846580D03*
X418000Y1463040D03*
X514520Y1668780D03*
X656760Y505460D03*
Y723900D03*
X598000Y1463040D03*
X694520Y1668780D03*
X836760Y505460D03*
Y723900D03*
X877740Y1031240D03*
Y1264920D03*
X936160Y1518920D03*
X1057740Y1031240D03*
Y1264920D03*
X1116160Y1518920D03*
G54D20*
X1089520Y487680D03*
Y741680D03*
X1389520Y487680D03*
Y614680D03*
Y741680D03*
G54D11*
X-1250120Y-1921640D03*
Y-1691640D03*
Y-1461640D03*
G54D12*
X-1204980Y2208120D03*
X-1109980Y1998120D03*
X-1014980Y2208120D03*
G54D13*
X-670120Y-1691640D03*
G54D14*
X-719800Y-361120D03*
Y218880D03*
X-589800Y-361120D03*
X-654800D03*
Y218880D03*
X-589800D03*
X-524800Y-361120D03*
Y218880D03*
G54D15*
X-259080Y-417660D03*
Y-237660D03*
X-254000Y727880D03*
Y907880D03*
X-203200Y1967400D03*
Y2147400D03*
X-25400Y725340D03*
Y905340D03*
X177800Y725340D03*
Y905340D03*
X381000Y725340D03*
Y905340D03*
X429260Y1083480D03*
Y1263480D03*
X680720Y1086020D03*
Y1266020D03*
G54D16*
X-240640Y1251680D03*
Y1301680D03*
Y1351680D03*
Y1401680D03*
Y1451680D03*
Y1501680D03*
X159360Y1251680D03*
Y1351680D03*
Y1301680D03*
Y1451680D03*
Y1401680D03*
Y1501680D03*
G54D17*
X-40620Y1376660D03*
G54D18*
X-165640Y1176680D03*
Y1576680D03*
X-15640Y1176680D03*
X-65640D03*
X-115640D03*
Y1576680D03*
X-65640D03*
X-15640D03*
X84360Y1176680D03*
X34360D03*
Y1576680D03*
X84360D03*
G54D19*
X82400Y49620D03*
Y219620D03*
X222400Y49620D03*
Y219620D03*
M02*
