G04 ================== begin FILE IDENTIFICATION RECORD ==================*
G04 Layout Name:  E:/Cadence/SDR/board_r820t2/r820t2.brd*
G04 Film Name:    PASTEMASK_TOP*
G04 File Format:  Gerber RS274X*
G04 File Origin:  Cadence Allegro 16.6-P004*
G04 Origin Date:  Thu Mar 26 23:00:42 2020*
G04 *
G04 Layer:  VIA CLASS/PASTEMASK_TOP*
G04 Layer:  PIN/PASTEMASK_TOP*
G04 Layer:  PACKAGE GEOMETRY/PASTEMASK_TOP*
G04 *
G04 Offset:    (0.0000 0.0000)*
G04 Mirror:    No*
G04 Mode:      Positive*
G04 Rotation:  0*
G04 FullContactRelief:  No*
G04 UndefLineWidth:     0.6000*
G04 ================== end FILE IDENTIFICATION RECORD ====================*
%FSLAX25Y25*MOMM*%
%IR0*IPPOS*OFA0.00000B0.00000*MIA0B0*SFA1.00000B1.00000*%
%ADD14O,.6X1.3*%
%ADD20R,.45X1.5*%
%ADD22R,.762X1.016*%
%ADD10R,2.15X.95*%
%ADD12R,1.36X.85*%
%AMMACRO19*
4,1,4,.854,-.854,
-.854,-.854,
-.854,.854,
.854,.854,
.854,-.854,
0.0*
%
%ADD19MACRO19*%
%ADD18R,.3X.8*%
%ADD16R,.8X.3*%
%ADD11R,1.15X1.45*%
%ADD15R,1.45X1.15*%
%ADD13R,2.15X3.25*%
%AMMACRO17*
4,1,4,-.854,.854,
.854,.854,
.854,-.854,
-.854,-.854,
-.854,.854,
0.0*
%
%ADD17MACRO17*%
%ADD21R,.85X.95*%
G75*
%LPD*%
G75*
G36*
G01X-126020Y1462060D02*
X44780D01*
Y1291260D01*
X-126020D01*
Y1462060D01*
G37*
G36*
G01X255560Y-1477300D02*
X84760D01*
Y-1306500D01*
X255560D01*
Y-1477300D01*
G37*
G54D10*
X-1753040Y-120780D03*
Y109220D03*
Y339220D03*
G54D11*
X-1403180Y1798320D03*
X-1223180D03*
X-986620Y-1534160D03*
X-928200Y-1280160D03*
Y-1046480D03*
X-989160Y1798320D03*
X-806620Y-1534160D03*
X-826600Y1087120D03*
X-809160Y1798320D03*
X-748200Y-1280160D03*
Y-1046480D03*
X-707220Y-739140D03*
Y-520700D03*
X-719920Y1297940D03*
Y1501140D03*
X-564980Y-1684020D03*
X-646600Y1087120D03*
X-582760Y1798320D03*
X-468460Y-1478280D03*
X-527220Y-739140D03*
Y-520700D03*
X-539920Y1297940D03*
Y1501140D03*
X-384980Y-1684020D03*
X-402760Y1798320D03*
X-288460Y-1478280D03*
X-107780Y-2067560D03*
X-194140Y-1861820D03*
X-14140D03*
X72220Y-2067560D03*
X57320Y2052320D03*
X143680Y1846580D03*
X237320Y2052320D03*
X323680Y1846580D03*
X418000Y1463040D03*
X532300Y-1813560D03*
X547540Y182880D03*
X514520Y1668780D03*
X669460Y-1516380D03*
Y-1313180D03*
X656760Y505460D03*
Y723900D03*
X598000Y1463040D03*
X694520Y1668780D03*
X712300Y-1813560D03*
X776140Y-1102360D03*
X727540Y182880D03*
X938700Y-1813560D03*
X849460Y-1516380D03*
Y-1313180D03*
X836760Y505460D03*
Y723900D03*
X877740Y1031240D03*
Y1264920D03*
X936160Y1518920D03*
X956140Y-1102360D03*
X1118700Y-1813560D03*
X1057740Y1031240D03*
Y1264920D03*
X1116160Y1518920D03*
X1352720Y-1813560D03*
X1532720D03*
G54D20*
X191020Y-399220D03*
X126020D03*
Y180780D03*
X191020D03*
X321020Y-399220D03*
X256020D03*
Y180780D03*
X321020D03*
G54D21*
X928220Y11520D03*
Y181520D03*
X1068220Y11520D03*
Y181520D03*
G54D12*
X-1259980Y-756920D03*
Y-629920D03*
Y-502920D03*
X-959980Y-756920D03*
Y-502920D03*
X1089520Y487680D03*
Y741680D03*
X1389520Y487680D03*
Y614680D03*
Y741680D03*
G54D13*
X-1173040Y109220D03*
G54D22*
X1910080Y-1273240D03*
Y226760D03*
G54D14*
X-1204980Y2208120D03*
X-1109980Y1998120D03*
X-1014980Y2208120D03*
X1144520Y-2223360D03*
X1239520Y-2013360D03*
X1334520Y-2223360D03*
G54D15*
X-789940Y-69680D03*
Y110320D03*
X-551180Y-1281260D03*
Y-1101260D03*
X-513080Y-69680D03*
Y110320D03*
X-299720Y-1278720D03*
Y-1098720D03*
X-251460Y-920580D03*
Y-740580D03*
X-254000Y727880D03*
Y907880D03*
X-203200Y1967400D03*
Y2147400D03*
X-48260Y-920580D03*
Y-740580D03*
X-25400Y725340D03*
Y905340D03*
X154940Y-920580D03*
Y-740580D03*
X177800Y725340D03*
Y905340D03*
X332740Y-2162640D03*
Y-1982640D03*
X383540Y-923120D03*
Y-743120D03*
X381000Y725340D03*
Y905340D03*
X429260Y1083480D03*
Y1263480D03*
X594360Y-399880D03*
Y-219880D03*
X680720Y1086020D03*
Y1266020D03*
G54D16*
X-240640Y1251680D03*
Y1301680D03*
Y1351680D03*
Y1401680D03*
Y1451680D03*
Y1501680D03*
X-29820Y-1516920D03*
Y-1466920D03*
Y-1416920D03*
Y-1366920D03*
Y-1316920D03*
Y-1266920D03*
X159360Y1251680D03*
Y1351680D03*
Y1301680D03*
Y1451680D03*
Y1401680D03*
Y1501680D03*
X370180Y-1516920D03*
Y-1366920D03*
Y-1416920D03*
Y-1466920D03*
Y-1266920D03*
Y-1316920D03*
G54D17*
X-40620Y1376660D03*
G54D18*
X-165640Y1176680D03*
Y1576680D03*
X-15640Y1176680D03*
X-65640D03*
X-115640D03*
Y1576680D03*
X-65640D03*
X-15640D03*
X95180Y-1591920D03*
X45180D03*
Y-1191920D03*
X95180D03*
X84360Y1176680D03*
X34360D03*
Y1576680D03*
X84360D03*
X195180Y-1591920D03*
X145180D03*
Y-1191920D03*
X195180D03*
X295180Y-1591920D03*
X245180D03*
Y-1191920D03*
X295180D03*
G54D19*
X170160Y-1391900D03*
M02*
