G04 ================== begin FILE IDENTIFICATION RECORD ==================*
G04 Layout Name:  E:/Cadence/SDR/board_r820t2/r820t2.brd*
G04 Film Name:    SILKSCREEN_TOP*
G04 File Format:  Gerber RS274X*
G04 File Origin:  Cadence Allegro 16.6-P004*
G04 Origin Date:  Thu Mar 26 22:40:33 2020*
G04 *
G04 Layer:  REF DES/SILKSCREEN_TOP*
G04 Layer:  PACKAGE GEOMETRY/SILKSCREEN_TOP*
G04 Layer:  MANUFACTURING/AUTOSILK_TOP*
G04 Layer:  BOARD GEOMETRY/SILKSCREEN_TOP*
G04 *
G04 Offset:    (0.0000 0.0000)*
G04 Mirror:    No*
G04 Mode:      Positive*
G04 Rotation:  0*
G04 FullContactRelief:  No*
G04 UndefLineWidth:     0.6000*
G04 ================== end FILE IDENTIFICATION RECORD ====================*
%FSLAX25Y25*MOMM*%
%IR0*IPPOS*OFA0.00000B0.00000*MIA0B0*SFA1.00000B1.00000*%
%ADD10C,.2*%
%ADD11C,.25*%
%ADD12C,.6*%
G75*
%LPD*%
G75*
G36*
G01X-1574800Y-1008380D02*
Y-500380D01*
X-2082800D01*
Y-1008380D01*
X-1574800D01*
G37*
G36*
G01X-2113280Y2052320D02*
Y1544320D01*
X-1605280D01*
Y2052320D01*
X-2113280D01*
G37*
G36*
G01X2242820Y-2067560D02*
Y-1559560D01*
X1734820D01*
Y-2067560D01*
X2242820D01*
G37*
G36*
G01X1704340Y993140D02*
Y485140D01*
X2212340D01*
Y993140D01*
X1704340D01*
G37*
G54D10*
G01X-2256060Y260080D02*
X-2006060D01*
Y-249920D01*
X-2256060D01*
Y260080D01*
G01X-1470000Y681050D02*
G02X-1951800Y774700I-231798J93650D01*
G01D02*
G02X-1470000Y868350I250002J0D01*
G01X-1513040Y434220D02*
X-1613040Y334220D01*
G01X-1533040Y434220D02*
X-1613040Y354220D01*
G01X-1553040Y434220D02*
X-1613040Y374220D01*
G01X-1573040Y434220D02*
X-1613040Y394220D01*
G01X-1593040Y434220D02*
X-1613040Y414220D01*
G01Y-215780D02*
Y434220D01*
X-1313040D01*
Y-215780D01*
X-1613040D01*
G01X-1254980Y2103120D02*
X-964980D01*
G01X-1159480Y-819920D02*
Y-439920D01*
X-1060480D01*
Y-819920D01*
X-1159480D01*
G01X-1111080Y774280D02*
X-934300Y951060D01*
X-573680Y590430D01*
X-750450Y413660D01*
X-1111080Y774280D01*
G01X-240640Y1201680D02*
Y1176680D01*
X-215640D01*
G01X-240640Y1551680D02*
Y1556680D01*
X-220640Y1576680D01*
X-215640D01*
G01X-29820Y-1566920D02*
Y-1591920D01*
X-4820D01*
G01X-29820Y-1216920D02*
Y-1191920D01*
X-4820D01*
G01X73520Y73280D02*
X373520D01*
Y-291720D01*
X73520D01*
Y73280D01*
G01X159360Y1201680D02*
Y1176680D01*
X134360D01*
G01X159360Y1551680D02*
Y1576680D01*
X134360D01*
G01X373520Y-26720D02*
X273520Y73280D01*
G01X373520Y-6720D02*
X293520Y73280D01*
G01X373520Y13280D02*
X313520Y73280D01*
G01X370180Y-1566920D02*
Y-1571920D01*
X350180Y-1591920D01*
X345180D01*
G01X370180Y-1216920D02*
Y-1191920D01*
X345180D01*
G01X373520Y33280D02*
X333520Y73280D01*
G01X373520Y53280D02*
X353520Y73280D01*
G01X1240620Y-789520D02*
X1063840Y-966300D01*
X703220Y-605670D01*
X879990Y-428900D01*
X1240620Y-789520D01*
G01X1384520Y-2118360D02*
X1094520D01*
G01X1289020Y804680D02*
Y424680D01*
X1190020D01*
Y804680D01*
X1289020D01*
G54D11*
G01X-2118560Y317580D02*
G03I-12500J0D01*
G01X-1820540Y439220D02*
G03I-12500J0D01*
G01X-1389300Y774700D02*
G03I-12500J0D01*
G01X-1297480Y-409920D02*
G03I-12500J0D01*
G01X-1050850Y903330D02*
G03I-12498J-2D01*
G01X-922480Y2248120D02*
G03I-12500J0D01*
G01X-328140Y1501680D02*
G03I-12500J0D01*
G01X406020Y230780D02*
G03I-12500J0D01*
G01X482680Y-1516920D02*
G03I-12500J0D01*
G01X1077020Y-2263360D02*
G03I-12500J0D01*
G01X1205390Y-918570D02*
G03I-12502J2D01*
G01X1175720Y11520D02*
G03I-12500J0D01*
G01X1452020Y394680D02*
G03I-12500J0D01*
G54D12*
G01X-2030660Y229020D02*
X-2043360Y220980D01*
X-2051830Y211330D01*
X-2056060Y200070D01*
X-2051830Y187200D01*
X-2043360Y177550D01*
X-2030660Y167890D01*
X-2013730Y164680D01*
X-1929060D01*
G01X-2037010Y102700D02*
X-2047600Y93050D01*
X-2053940Y81790D01*
X-2056060Y67310D01*
X-2051830Y52830D01*
X-2043360Y41570D01*
X-2028550Y33530D01*
X-2011610Y31920D01*
X-1994680Y35140D01*
X-1984090Y43180D01*
X-1975630Y54440D01*
X-1973510Y65700D01*
X-1975630Y76960D01*
X-1984090Y91440D01*
X-1929060Y86610D01*
Y43180D01*
G01X-2106510Y2065020D02*
X-2103120Y2058670D01*
X-2099060Y2054440D01*
X-2094310Y2052320D01*
X-2088900Y2054440D01*
X-2084830Y2058670D01*
X-2080770Y2065020D01*
X-2079410Y2073490D01*
Y2115820D01*
G01X-2028950Y2052320D02*
Y2115820D01*
X-2054010Y2070310D01*
X-2020150D01*
G01X-1607650Y583280D02*
X-1598000Y576930D01*
X-1586740Y572700D01*
X-1573870D01*
X-1559390Y579050D01*
X-1548130Y589630D01*
X-1540090Y602330D01*
X-1533650Y623500D01*
X-1532040Y642550D01*
X-1535260Y661600D01*
X-1540090Y674300D01*
X-1549740Y687000D01*
X-1561000Y695470D01*
X-1572260Y699700D01*
X-1583520D01*
X-1594780Y695470D01*
X-1604430Y689120D01*
X-1612480Y680650D01*
G01X-1666410Y674300D02*
X-1676060Y689120D01*
X-1688930Y697580D01*
X-1703410Y699700D01*
X-1716280Y697580D01*
X-1729150Y687000D01*
X-1737190Y674300D01*
X-1738800Y661600D01*
X-1735580Y646790D01*
X-1724320Y636200D01*
X-1713060Y631970D01*
X-1698580D01*
G01X-1713060D02*
X-1722710Y625620D01*
X-1730760Y615040D01*
X-1733970Y602330D01*
X-1730760Y589630D01*
X-1722710Y579050D01*
X-1708230Y572700D01*
X-1693760Y574820D01*
X-1679280Y583280D01*
G01X-1831340Y572700D02*
X-1818470Y576930D01*
X-1808820Y587520D01*
X-1802380Y600210D01*
X-1797560Y617150D01*
X-1795950Y636200D01*
X-1797560Y655250D01*
X-1802380Y672190D01*
X-1808820Y684890D01*
X-1818470Y695470D01*
X-1831340Y699700D01*
X-1844210Y695470D01*
X-1853860Y684890D01*
X-1860300Y672190D01*
X-1865120Y655250D01*
X-1866730Y636200D01*
X-1865120Y617150D01*
X-1860300Y600210D01*
X-1853860Y587520D01*
X-1844210Y576930D01*
X-1831340Y572700D01*
G01X-1581570Y-1021080D02*
X-1584960Y-1014730D01*
X-1589020Y-1010500D01*
X-1593770Y-1008380D01*
X-1599180Y-1010500D01*
X-1603250Y-1014730D01*
X-1607310Y-1021080D01*
X-1608670Y-1029550D01*
Y-1071880D01*
G01X-1649650Y-1008380D02*
X-1651000Y-1022140D01*
X-1653030Y-1033780D01*
X-1655740Y-1044360D01*
X-1659130Y-1056000D01*
X-1664550Y-1071880D01*
X-1637450D01*
G01X-1590040Y84060D02*
X-1499020D01*
X-1479970Y90490D01*
X-1467270Y103360D01*
X-1463040Y119450D01*
X-1467270Y135540D01*
X-1479970Y148410D01*
X-1499020Y154840D01*
X-1590040D01*
G01X-1463040Y268290D02*
X-1590040D01*
X-1499020Y208770D01*
Y289210D01*
G01X-1342560Y1989740D02*
X-1352210Y1996090D01*
X-1363470Y2000320D01*
X-1376340D01*
X-1390820Y1993970D01*
X-1402080Y1983390D01*
X-1410120Y1970690D01*
X-1416560Y1949520D01*
X-1418170Y1930470D01*
X-1414950Y1911420D01*
X-1410120Y1898720D01*
X-1400470Y1886020D01*
X-1389210Y1877550D01*
X-1377950Y1873320D01*
X-1366690D01*
X-1355430Y1877550D01*
X-1345780Y1883900D01*
X-1337730Y1892370D01*
G01X-1283800Y1898720D02*
X-1274150Y1883900D01*
X-1261280Y1875440D01*
X-1246800Y1873320D01*
X-1233930Y1875440D01*
X-1221060Y1886020D01*
X-1213020Y1898720D01*
X-1211410Y1911420D01*
X-1214630Y1926230D01*
X-1225890Y1936820D01*
X-1237150Y1941050D01*
X-1251630D01*
G01X-1237150D02*
X-1227500Y1947400D01*
X-1219450Y1957980D01*
X-1216240Y1970690D01*
X-1219450Y1983390D01*
X-1227500Y1993970D01*
X-1241980Y2000320D01*
X-1256450Y1998200D01*
X-1270930Y1989740D01*
G01X-1236980Y-719850D02*
X-1145960D01*
X-1126910Y-713420D01*
X-1114210Y-700550D01*
X-1109980Y-684460D01*
X-1114210Y-668370D01*
X-1126910Y-655500D01*
X-1145960Y-649070D01*
X-1236980D01*
G01X-1109980Y-554920D02*
X-1236980D01*
X-1211580Y-574220D01*
G01X-1109980D02*
Y-535620D01*
G01Y-425380D02*
X-1236980D01*
X-1211580Y-444680D01*
G01X-1109980D02*
Y-406080D01*
G01X-734910Y-1609160D02*
Y-1736160D01*
X-775120D01*
X-787990Y-1729810D01*
X-796040Y-1721340D01*
X-799250Y-1704410D01*
X-796040Y-1687480D01*
X-786380Y-1676890D01*
X-775120Y-1670540D01*
X-734910D01*
G01X-775120D02*
X-799250Y-1609160D01*
G01X-866050Y-1714990D02*
X-875710Y-1727690D01*
X-886970Y-1734040D01*
X-899840Y-1736160D01*
X-915920Y-1731930D01*
X-927190Y-1721340D01*
X-930400Y-1708650D01*
X-928790Y-1695940D01*
X-922360Y-1685360D01*
X-890190Y-1664190D01*
X-875710Y-1649380D01*
X-866050Y-1628210D01*
X-862840Y-1609160D01*
X-930400D01*
G01X-990770Y-1628210D02*
X-1000420Y-1617620D01*
X-1011680Y-1611280D01*
X-1026160Y-1609160D01*
X-1040640Y-1613390D01*
X-1051900Y-1621860D01*
X-1059940Y-1636670D01*
X-1061550Y-1653610D01*
X-1058330Y-1670540D01*
X-1050290Y-1681130D01*
X-1039030Y-1689590D01*
X-1027770Y-1691710D01*
X-1016510Y-1689590D01*
X-1002030Y-1681130D01*
X-1006860Y-1736160D01*
X-1050290D01*
G01X-1135140Y2103120D02*
Y2230120D01*
X-1102970D01*
X-1090100Y2223770D01*
X-1080450Y2215300D01*
X-1072400Y2202610D01*
X-1065970Y2187780D01*
X-1064360Y2166620D01*
X-1065970Y2145450D01*
X-1072400Y2130630D01*
X-1080450Y2117930D01*
X-1090100Y2109470D01*
X-1102970Y2103120D01*
X-1135140D01*
G01X-970210D02*
Y2230120D01*
X-989510Y2204720D01*
G01Y2103120D02*
X-950910D01*
G01X-932350Y-1088740D02*
X-942000Y-1082390D01*
X-953260Y-1078160D01*
X-966130D01*
X-980610Y-1084510D01*
X-991870Y-1095090D01*
X-999910Y-1107790D01*
X-1006350Y-1128960D01*
X-1007960Y-1148010D01*
X-1004740Y-1167060D01*
X-999910Y-1179760D01*
X-990260Y-1192460D01*
X-979000Y-1200930D01*
X-967740Y-1205160D01*
X-956480D01*
X-945220Y-1200930D01*
X-935570Y-1194580D01*
X-927520Y-1186110D01*
G01X-873590D02*
X-863940Y-1196700D01*
X-852680Y-1203040D01*
X-838200Y-1205160D01*
X-823720Y-1200930D01*
X-812460Y-1192460D01*
X-804420Y-1177650D01*
X-802810Y-1160710D01*
X-806030Y-1143780D01*
X-814070Y-1133190D01*
X-825330Y-1124730D01*
X-836590Y-1122610D01*
X-847850Y-1124730D01*
X-862330Y-1133190D01*
X-857500Y-1078160D01*
X-814070D01*
G01X-708660Y-1205160D02*
X-697400Y-1203040D01*
X-684530Y-1196700D01*
X-676490Y-1186110D01*
X-673270Y-1171290D01*
X-676490Y-1156480D01*
X-686140Y-1143780D01*
X-700620Y-1137430D01*
X-716700D01*
X-726360Y-1133190D01*
X-734400Y-1122610D01*
X-737620Y-1107790D01*
X-732790Y-1092980D01*
X-721530Y-1082390D01*
X-708660Y-1078160D01*
X-695790Y-1082390D01*
X-684530Y-1092980D01*
X-679700Y-1107790D01*
X-682920Y-1122610D01*
X-690960Y-1133190D01*
X-700620Y-1137430D01*
X-716700D01*
X-731180Y-1143780D01*
X-740830Y-1156480D01*
X-744050Y-1171290D01*
X-740830Y-1186110D01*
X-732790Y-1196700D01*
X-719920Y-1203040D01*
X-708660Y-1205160D01*
G01X-932350Y-855060D02*
X-942000Y-848710D01*
X-953260Y-844480D01*
X-966130D01*
X-980610Y-850830D01*
X-991870Y-861410D01*
X-999910Y-874110D01*
X-1006350Y-895280D01*
X-1007960Y-914330D01*
X-1004740Y-933380D01*
X-999910Y-946080D01*
X-990260Y-958780D01*
X-979000Y-967250D01*
X-967740Y-971480D01*
X-956480D01*
X-945220Y-967250D01*
X-935570Y-960900D01*
X-927520Y-952430D01*
G01X-873590D02*
X-863940Y-963020D01*
X-852680Y-969360D01*
X-838200Y-971480D01*
X-823720Y-967250D01*
X-812460Y-958780D01*
X-804420Y-943970D01*
X-802810Y-927030D01*
X-806030Y-910100D01*
X-814070Y-899510D01*
X-825330Y-891050D01*
X-836590Y-888930D01*
X-847850Y-891050D01*
X-862330Y-899510D01*
X-857500Y-844480D01*
X-814070D01*
G01X-736010Y-956670D02*
X-724750Y-967250D01*
X-711880Y-971480D01*
X-699010Y-967250D01*
X-687750Y-954550D01*
X-679700Y-935500D01*
X-676490Y-916450D01*
Y-893160D01*
X-679700Y-874110D01*
X-687750Y-857180D01*
X-697400Y-848710D01*
X-708660Y-844480D01*
X-721530Y-848710D01*
X-731180Y-857180D01*
X-737620Y-869880D01*
X-740830Y-886820D01*
X-737620Y-901630D01*
X-729570Y-916450D01*
X-719920Y-924920D01*
X-708660Y-927030D01*
X-695790Y-922800D01*
X-686140Y-912210D01*
X-676490Y-893160D01*
G01X-981360Y-73830D02*
X-987710Y-83480D01*
X-991940Y-94740D01*
Y-107610D01*
X-985590Y-122090D01*
X-975010Y-133350D01*
X-962310Y-141390D01*
X-941140Y-147830D01*
X-922090Y-149440D01*
X-903040Y-146220D01*
X-890340Y-141390D01*
X-877640Y-131740D01*
X-869170Y-120480D01*
X-864940Y-109220D01*
Y-97960D01*
X-869170Y-86700D01*
X-875520Y-77050D01*
X-883990Y-69000D01*
G01X-970770Y-10250D02*
X-983470Y-590D01*
X-989820Y10670D01*
X-991940Y23540D01*
X-987710Y39620D01*
X-977120Y50890D01*
X-964430Y54100D01*
X-951720Y52490D01*
X-941140Y46060D01*
X-919970Y13890D01*
X-905160Y-590D01*
X-883990Y-10250D01*
X-864940Y-13460D01*
Y54100D01*
G01X-879750Y122510D02*
X-869170Y133770D01*
X-864940Y146640D01*
X-869170Y159510D01*
X-881870Y170770D01*
X-900920Y178820D01*
X-919970Y182030D01*
X-943260D01*
X-962310Y178820D01*
X-979240Y170770D01*
X-987710Y161120D01*
X-991940Y149860D01*
X-987710Y136990D01*
X-979240Y127340D01*
X-966540Y120900D01*
X-949600Y117690D01*
X-934790Y120900D01*
X-919970Y128950D01*
X-911500Y138600D01*
X-909390Y149860D01*
X-913620Y162730D01*
X-924210Y172380D01*
X-943260Y182030D01*
G01X-929740Y911690D02*
X-933030Y897030D01*
X-932190Y884220D01*
X-927220Y873260D01*
X-915130Y867150D01*
X-902320Y866310D01*
X-886510Y868470D01*
X-872260Y878170D01*
X-812390Y938040D01*
G01X-817540Y838410D02*
X-799100Y840930D01*
X-786290Y840090D01*
X-774200Y833980D01*
X-769230Y823030D01*
X-769520Y811360D01*
X-773950Y797820D01*
X-783300Y786210D01*
X-793410Y778370D01*
X-806950Y773940D01*
X-821250Y773280D01*
X-832210Y778250D01*
X-838310Y790340D01*
X-837300Y807280D01*
X-828380Y825300D01*
X-814550Y841410D01*
X-792820Y858590D01*
X-778920Y865660D01*
X-762760Y870440D01*
X-747310Y869970D01*
X-737860Y863500D01*
X-732890Y852540D01*
X-734680Y839370D01*
G01X-928540Y1989740D02*
X-938190Y1996090D01*
X-949450Y2000320D01*
X-962320D01*
X-976800Y1993970D01*
X-988060Y1983390D01*
X-996100Y1970690D01*
X-1002540Y1949520D01*
X-1004150Y1930470D01*
X-1000930Y1911420D01*
X-996100Y1898720D01*
X-986450Y1886020D01*
X-975190Y1877550D01*
X-963930Y1873320D01*
X-952670D01*
X-941410Y1877550D01*
X-931760Y1883900D01*
X-923710Y1892370D01*
G01X-834390Y1873320D02*
Y2000320D01*
X-853690Y1974920D01*
G01Y1873320D02*
X-815090D01*
G01X-765980Y1278540D02*
X-775630Y1284890D01*
X-786890Y1289120D01*
X-799760D01*
X-814240Y1282770D01*
X-825500Y1272190D01*
X-833540Y1259490D01*
X-839980Y1238320D01*
X-841590Y1219270D01*
X-838370Y1200220D01*
X-833540Y1187520D01*
X-823890Y1174820D01*
X-812630Y1166350D01*
X-801370Y1162120D01*
X-790110D01*
X-778850Y1166350D01*
X-769200Y1172700D01*
X-761150Y1181170D01*
G01X-702400Y1215030D02*
X-691130Y1229850D01*
X-681480Y1238320D01*
X-668610Y1242550D01*
X-657350Y1238320D01*
X-649310Y1229850D01*
X-642870Y1217150D01*
X-641260Y1202340D01*
X-642870Y1189630D01*
X-649310Y1176930D01*
X-658960Y1166350D01*
X-670220Y1162120D01*
X-683090Y1166350D01*
X-694350Y1179050D01*
X-700790Y1198100D01*
X-702400Y1219270D01*
X-699180Y1246780D01*
X-694350Y1261610D01*
X-686310Y1276420D01*
X-675050Y1287000D01*
X-663790Y1289120D01*
X-652530Y1284890D01*
X-644480Y1274300D01*
G01X-626180Y-1352970D02*
X-753180D01*
Y-1312760D01*
X-746830Y-1299890D01*
X-738360Y-1291840D01*
X-721430Y-1288630D01*
X-704500Y-1291840D01*
X-693910Y-1301500D01*
X-687560Y-1312760D01*
Y-1352970D01*
G01Y-1312760D02*
X-626180Y-1288630D01*
G01X-732010Y-1221830D02*
X-744710Y-1212170D01*
X-751060Y-1200910D01*
X-753180Y-1188040D01*
X-748950Y-1171960D01*
X-738360Y-1160690D01*
X-725670Y-1157480D01*
X-712960Y-1159090D01*
X-702380Y-1165520D01*
X-681210Y-1197690D01*
X-666400Y-1212170D01*
X-645230Y-1221830D01*
X-626180Y-1225040D01*
Y-1157480D01*
G01X-732010Y-1092290D02*
X-744710Y-1082630D01*
X-751060Y-1071370D01*
X-753180Y-1058500D01*
X-748950Y-1042420D01*
X-738360Y-1031150D01*
X-725670Y-1027940D01*
X-712960Y-1029550D01*
X-702380Y-1035980D01*
X-681210Y-1068150D01*
X-666400Y-1082630D01*
X-645230Y-1092290D01*
X-626180Y-1095500D01*
Y-1027940D01*
G01X-711370Y-547720D02*
X-721020Y-541370D01*
X-732280Y-537140D01*
X-745150D01*
X-759630Y-543490D01*
X-770890Y-554070D01*
X-778930Y-566770D01*
X-785370Y-587940D01*
X-786980Y-606990D01*
X-783760Y-626040D01*
X-778930Y-638740D01*
X-769280Y-651440D01*
X-758020Y-659910D01*
X-746760Y-664140D01*
X-735500D01*
X-724240Y-659910D01*
X-714590Y-653560D01*
X-706540Y-645090D01*
G01X-647790Y-611230D02*
X-636520Y-596410D01*
X-626870Y-587940D01*
X-614000Y-583710D01*
X-602740Y-587940D01*
X-594700Y-596410D01*
X-588260Y-609110D01*
X-586650Y-623920D01*
X-588260Y-636630D01*
X-594700Y-649330D01*
X-604350Y-659910D01*
X-615610Y-664140D01*
X-628480Y-659910D01*
X-639740Y-647210D01*
X-646180Y-628160D01*
X-647790Y-606990D01*
X-644570Y-579480D01*
X-639740Y-564650D01*
X-631700Y-549840D01*
X-620440Y-539260D01*
X-609180Y-537140D01*
X-597920Y-541370D01*
X-589870Y-551960D01*
G01X-523070Y-638740D02*
X-513420Y-653560D01*
X-500550Y-662020D01*
X-486070Y-664140D01*
X-473200Y-662020D01*
X-460330Y-651440D01*
X-452290Y-638740D01*
X-450680Y-626040D01*
X-453900Y-611230D01*
X-465160Y-600640D01*
X-476420Y-596410D01*
X-490900D01*
G01X-476420D02*
X-466770Y-590060D01*
X-458720Y-579480D01*
X-455510Y-566770D01*
X-458720Y-554070D01*
X-466770Y-543490D01*
X-481250Y-537140D01*
X-495720Y-539260D01*
X-510200Y-547720D01*
G01X-711370Y-329280D02*
X-721020Y-322930D01*
X-732280Y-318700D01*
X-745150D01*
X-759630Y-325050D01*
X-770890Y-335630D01*
X-778930Y-348330D01*
X-785370Y-369500D01*
X-786980Y-388550D01*
X-783760Y-407600D01*
X-778930Y-420300D01*
X-769280Y-433000D01*
X-758020Y-441470D01*
X-746760Y-445700D01*
X-735500D01*
X-724240Y-441470D01*
X-714590Y-435120D01*
X-706540Y-426650D01*
G01X-647790Y-392790D02*
X-636520Y-377970D01*
X-626870Y-369500D01*
X-614000Y-365270D01*
X-602740Y-369500D01*
X-594700Y-377970D01*
X-588260Y-390670D01*
X-586650Y-405480D01*
X-588260Y-418190D01*
X-594700Y-430890D01*
X-604350Y-441470D01*
X-615610Y-445700D01*
X-628480Y-441470D01*
X-639740Y-428770D01*
X-646180Y-409720D01*
X-647790Y-388550D01*
X-644570Y-361040D01*
X-639740Y-346210D01*
X-631700Y-331400D01*
X-620440Y-320820D01*
X-609180Y-318700D01*
X-597920Y-322930D01*
X-589870Y-333520D01*
G01X-487680Y-445700D02*
Y-318700D01*
X-506980Y-344100D01*
G01Y-445700D02*
X-468380D01*
G01X-535770Y1309720D02*
X-526120Y1303370D01*
X-514860Y1299140D01*
X-501990D01*
X-487510Y1305490D01*
X-476250Y1316070D01*
X-468210Y1328770D01*
X-461770Y1349940D01*
X-460160Y1368990D01*
X-463380Y1388040D01*
X-468210Y1400740D01*
X-477860Y1413440D01*
X-489120Y1421910D01*
X-500380Y1426140D01*
X-511640D01*
X-522900Y1421910D01*
X-532550Y1415560D01*
X-540600Y1407090D01*
G01X-594530Y1400740D02*
X-604180Y1415560D01*
X-617050Y1424020D01*
X-631530Y1426140D01*
X-644400Y1424020D01*
X-657270Y1413440D01*
X-665310Y1400740D01*
X-666920Y1388040D01*
X-663700Y1373230D01*
X-652440Y1362640D01*
X-641180Y1358410D01*
X-626700D01*
G01X-641180D02*
X-650830Y1352060D01*
X-658880Y1341480D01*
X-662090Y1328770D01*
X-658880Y1316070D01*
X-650830Y1305490D01*
X-636350Y1299140D01*
X-621880Y1301260D01*
X-607400Y1309720D01*
G01X-759460Y1426140D02*
Y1299140D01*
X-740160Y1324540D01*
G01Y1426140D02*
X-778760D01*
G01X-659300Y1489360D02*
X-668950Y1495710D01*
X-680210Y1499940D01*
X-693080D01*
X-707560Y1493590D01*
X-718820Y1483010D01*
X-726860Y1470310D01*
X-733300Y1449140D01*
X-734910Y1430090D01*
X-731690Y1411040D01*
X-726860Y1398340D01*
X-717210Y1385640D01*
X-705950Y1377170D01*
X-694690Y1372940D01*
X-683430D01*
X-672170Y1377170D01*
X-662520Y1383520D01*
X-654470Y1391990D01*
G01X-600540D02*
X-590890Y1381400D01*
X-579630Y1375060D01*
X-565150Y1372940D01*
X-550670Y1377170D01*
X-539410Y1385640D01*
X-531370Y1400450D01*
X-529760Y1417390D01*
X-532980Y1434320D01*
X-541020Y1444910D01*
X-552280Y1453370D01*
X-563540Y1455490D01*
X-574800Y1453370D01*
X-589280Y1444910D01*
X-584450Y1499940D01*
X-541020D01*
G01X-380830Y-1875440D02*
X-371180Y-1881790D01*
X-359920Y-1886020D01*
X-347050D01*
X-332570Y-1879670D01*
X-321310Y-1869090D01*
X-313270Y-1856390D01*
X-306830Y-1835220D01*
X-305220Y-1816170D01*
X-308440Y-1797120D01*
X-313270Y-1784420D01*
X-322920Y-1771720D01*
X-334180Y-1763250D01*
X-345440Y-1759020D01*
X-356700D01*
X-367960Y-1763250D01*
X-377610Y-1769600D01*
X-385660Y-1778070D01*
G01X-444410Y-1811930D02*
X-455680Y-1826750D01*
X-465330Y-1835220D01*
X-478200Y-1839450D01*
X-489460Y-1835220D01*
X-497500Y-1826750D01*
X-503940Y-1814050D01*
X-505550Y-1799240D01*
X-503940Y-1786530D01*
X-497500Y-1773830D01*
X-487850Y-1763250D01*
X-476590Y-1759020D01*
X-463720Y-1763250D01*
X-452460Y-1775950D01*
X-446020Y-1795000D01*
X-444410Y-1816170D01*
X-447630Y-1843680D01*
X-452460Y-1858510D01*
X-460500Y-1873320D01*
X-471760Y-1883900D01*
X-483020Y-1886020D01*
X-494280Y-1881790D01*
X-502330Y-1871200D01*
G01X-604520Y-1886020D02*
X-591650Y-1881790D01*
X-582000Y-1871200D01*
X-575560Y-1858510D01*
X-570740Y-1841570D01*
X-569130Y-1822520D01*
X-570740Y-1803470D01*
X-575560Y-1786530D01*
X-582000Y-1773830D01*
X-591650Y-1763250D01*
X-604520Y-1759020D01*
X-617390Y-1763250D01*
X-627040Y-1773830D01*
X-633480Y-1786530D01*
X-638300Y-1803470D01*
X-639910Y-1822520D01*
X-638300Y-1841570D01*
X-633480Y-1858510D01*
X-627040Y-1871200D01*
X-617390Y-1881790D01*
X-604520Y-1886020D01*
G01X-589700Y2000320D02*
Y1873320D01*
X-525360D01*
G01X-427990D02*
Y2000320D01*
X-447290Y1974920D01*
G01Y1873320D02*
X-408690D01*
G01X-472610Y-1286860D02*
X-482260Y-1280510D01*
X-493520Y-1276280D01*
X-506390D01*
X-520870Y-1282630D01*
X-532130Y-1293210D01*
X-540170Y-1305910D01*
X-546610Y-1327080D01*
X-548220Y-1346130D01*
X-545000Y-1365180D01*
X-540170Y-1377880D01*
X-530520Y-1390580D01*
X-519260Y-1399050D01*
X-508000Y-1403280D01*
X-496740D01*
X-485480Y-1399050D01*
X-475830Y-1392700D01*
X-467780Y-1384230D01*
G01X-413850D02*
X-404200Y-1394820D01*
X-392940Y-1401160D01*
X-378460Y-1403280D01*
X-363980Y-1399050D01*
X-352720Y-1390580D01*
X-344680Y-1375770D01*
X-343070Y-1358830D01*
X-346290Y-1341900D01*
X-354330Y-1331310D01*
X-365590Y-1322850D01*
X-376850Y-1320730D01*
X-388110Y-1322850D01*
X-402590Y-1331310D01*
X-397760Y-1276280D01*
X-354330D01*
G01X-252140Y-1403280D02*
X-248920Y-1375770D01*
X-244090Y-1352480D01*
X-237660Y-1331310D01*
X-229620Y-1308030D01*
X-216750Y-1276280D01*
X-281090D01*
G01X-491140Y-1282870D02*
X-497490Y-1292520D01*
X-501720Y-1303780D01*
Y-1316650D01*
X-495370Y-1331130D01*
X-484790Y-1342390D01*
X-472090Y-1350430D01*
X-450920Y-1356870D01*
X-431870Y-1358480D01*
X-412820Y-1355260D01*
X-400120Y-1350430D01*
X-387420Y-1340780D01*
X-378950Y-1329520D01*
X-374720Y-1318260D01*
Y-1307000D01*
X-378950Y-1295740D01*
X-385300Y-1286090D01*
X-393770Y-1278040D01*
G01X-427630Y-1219290D02*
X-442450Y-1208020D01*
X-450920Y-1198370D01*
X-455150Y-1185500D01*
X-450920Y-1174240D01*
X-442450Y-1166200D01*
X-429750Y-1159760D01*
X-414940Y-1158150D01*
X-402230Y-1159760D01*
X-389530Y-1166200D01*
X-378950Y-1175850D01*
X-374720Y-1187110D01*
X-378950Y-1199980D01*
X-391650Y-1211240D01*
X-410700Y-1217680D01*
X-431870Y-1219290D01*
X-459380Y-1216070D01*
X-474210Y-1211240D01*
X-489020Y-1203200D01*
X-499600Y-1191940D01*
X-501720Y-1180680D01*
X-497490Y-1169420D01*
X-486900Y-1161370D01*
G01X-374720Y-1039880D02*
X-501720D01*
X-410700Y-1099400D01*
Y-1018960D01*
G01X-326460Y-992290D02*
X-453460D01*
Y-952080D01*
X-447110Y-939210D01*
X-438640Y-931160D01*
X-421710Y-927950D01*
X-404780Y-931160D01*
X-394190Y-940820D01*
X-387840Y-952080D01*
Y-992290D01*
G01Y-952080D02*
X-326460Y-927950D01*
G01X-432290Y-861150D02*
X-444990Y-851490D01*
X-451340Y-840230D01*
X-453460Y-827360D01*
X-449230Y-811280D01*
X-438640Y-800010D01*
X-425950Y-796800D01*
X-413240Y-798410D01*
X-402660Y-804840D01*
X-381490Y-837010D01*
X-366680Y-851490D01*
X-345510Y-861150D01*
X-326460Y-864360D01*
Y-796800D01*
G01X-351860Y-736430D02*
X-337040Y-726780D01*
X-328580Y-713910D01*
X-326460Y-699430D01*
X-328580Y-686560D01*
X-339160Y-673690D01*
X-351860Y-665650D01*
X-364560Y-664040D01*
X-379370Y-667260D01*
X-389960Y-678520D01*
X-394190Y-689780D01*
Y-704260D01*
G01Y-689780D02*
X-400540Y-680130D01*
X-411120Y-672080D01*
X-423830Y-668870D01*
X-436530Y-672080D01*
X-447110Y-680130D01*
X-453460Y-694610D01*
X-451340Y-709080D01*
X-442880Y-723560D01*
G01X-321660Y114470D02*
X-315310Y124120D01*
X-311080Y135380D01*
Y148250D01*
X-317430Y162730D01*
X-328010Y173990D01*
X-340710Y182030D01*
X-361880Y188470D01*
X-380930Y190080D01*
X-399980Y186860D01*
X-412680Y182030D01*
X-425380Y172380D01*
X-433850Y161120D01*
X-438080Y149860D01*
Y138600D01*
X-433850Y127340D01*
X-427500Y117690D01*
X-419030Y109640D01*
G01X-332250Y50890D02*
X-319550Y41230D01*
X-313200Y29970D01*
X-311080Y17100D01*
X-315310Y1020D01*
X-325900Y-10250D01*
X-338590Y-13460D01*
X-351300Y-11850D01*
X-361880Y-5420D01*
X-383050Y26750D01*
X-397860Y41230D01*
X-419030Y50890D01*
X-438080Y54100D01*
Y-13460D01*
G01Y-109220D02*
X-435960Y-120480D01*
X-429620Y-133350D01*
X-419030Y-141390D01*
X-404210Y-144610D01*
X-389400Y-141390D01*
X-376700Y-131740D01*
X-370350Y-117260D01*
Y-101180D01*
X-366110Y-91520D01*
X-355530Y-83480D01*
X-340710Y-80260D01*
X-325900Y-85090D01*
X-315310Y-96350D01*
X-311080Y-109220D01*
X-315310Y-122090D01*
X-325900Y-133350D01*
X-340710Y-138180D01*
X-355530Y-134960D01*
X-366110Y-126920D01*
X-370350Y-117260D01*
Y-101180D01*
X-376700Y-86700D01*
X-389400Y-77050D01*
X-404210Y-73830D01*
X-419030Y-77050D01*
X-429620Y-85090D01*
X-435960Y-97960D01*
X-438080Y-109220D01*
G01X-445420Y788500D02*
X-451770Y778850D01*
X-456000Y767590D01*
Y754720D01*
X-449650Y740240D01*
X-439070Y728980D01*
X-426370Y720940D01*
X-405200Y714500D01*
X-386150Y712890D01*
X-367100Y716110D01*
X-354400Y720940D01*
X-341700Y730590D01*
X-333230Y741850D01*
X-329000Y753110D01*
Y764370D01*
X-333230Y775630D01*
X-339580Y785280D01*
X-348050Y793330D01*
G01X-329000Y879430D02*
X-356510Y882650D01*
X-379800Y887480D01*
X-400970Y893910D01*
X-424250Y901950D01*
X-456000Y914820D01*
Y850480D01*
G01X-394620Y2028020D02*
X-400970Y2018370D01*
X-405200Y2007110D01*
Y1994240D01*
X-398850Y1979760D01*
X-388270Y1968500D01*
X-375570Y1960460D01*
X-354400Y1954020D01*
X-335350Y1952410D01*
X-316300Y1955630D01*
X-303600Y1960460D01*
X-290900Y1970110D01*
X-282430Y1981370D01*
X-278200Y1992630D01*
Y2003890D01*
X-282430Y2015150D01*
X-288780Y2024800D01*
X-297250Y2032850D01*
G01X-293010Y2094820D02*
X-282430Y2106080D01*
X-278200Y2118950D01*
X-282430Y2131820D01*
X-295130Y2143080D01*
X-314180Y2151130D01*
X-333230Y2154340D01*
X-356520D01*
X-375570Y2151130D01*
X-392500Y2143080D01*
X-400970Y2133430D01*
X-405200Y2122170D01*
X-400970Y2109300D01*
X-392500Y2099650D01*
X-379800Y2093210D01*
X-362860Y2090000D01*
X-348050Y2093210D01*
X-333230Y2101260D01*
X-324760Y2110910D01*
X-322650Y2122170D01*
X-326880Y2135040D01*
X-337470Y2144690D01*
X-356520Y2154340D01*
G01X-7200Y-2063820D02*
Y-1936820D01*
X-71540D01*
G01X-168910D02*
X-180170Y-1938940D01*
X-193040Y-1945280D01*
X-201080Y-1955870D01*
X-204300Y-1970690D01*
X-201080Y-1985500D01*
X-191430Y-1998200D01*
X-176950Y-2004550D01*
X-160870D01*
X-151210Y-2008790D01*
X-143170Y-2019370D01*
X-139950Y-2034190D01*
X-144780Y-2049000D01*
X-156040Y-2059590D01*
X-168910Y-2063820D01*
X-181780Y-2059590D01*
X-193040Y-2049000D01*
X-197870Y-2034190D01*
X-194650Y-2019370D01*
X-186610Y-2008790D01*
X-176950Y-2004550D01*
X-160870D01*
X-146390Y-1998200D01*
X-136740Y-1985500D01*
X-133520Y-1970690D01*
X-136740Y-1955870D01*
X-144780Y-1945280D01*
X-157650Y-1938940D01*
X-168910Y-1936820D01*
G01X-123260Y-992290D02*
X-250260D01*
Y-952080D01*
X-243910Y-939210D01*
X-235440Y-931160D01*
X-218510Y-927950D01*
X-201580Y-931160D01*
X-190990Y-940820D01*
X-184640Y-952080D01*
Y-992290D01*
G01Y-952080D02*
X-123260Y-927950D01*
G01X-229090Y-861150D02*
X-241790Y-851490D01*
X-248140Y-840230D01*
X-250260Y-827360D01*
X-246030Y-811280D01*
X-235440Y-800010D01*
X-222750Y-796800D01*
X-210040Y-798410D01*
X-199460Y-804840D01*
X-178290Y-837010D01*
X-163480Y-851490D01*
X-142310Y-861150D01*
X-123260Y-864360D01*
Y-796800D01*
G01Y-681740D02*
X-250260D01*
X-159240Y-741260D01*
Y-660820D01*
G01X-216820Y721190D02*
X-223170Y711540D01*
X-227400Y700280D01*
Y687410D01*
X-221050Y672930D01*
X-210470Y661670D01*
X-197770Y653630D01*
X-176600Y647190D01*
X-157550Y645580D01*
X-138500Y648800D01*
X-125800Y653630D01*
X-113100Y663280D01*
X-104630Y674540D01*
X-100400Y685800D01*
Y697060D01*
X-104630Y708320D01*
X-110980Y717970D01*
X-119450Y726020D01*
G01X-125800Y779950D02*
X-110980Y789600D01*
X-102520Y802470D01*
X-100400Y816950D01*
X-102520Y829820D01*
X-113100Y842690D01*
X-125800Y850730D01*
X-138500Y852340D01*
X-153310Y849120D01*
X-163900Y837860D01*
X-168130Y826600D01*
Y812120D01*
G01Y826600D02*
X-174480Y836250D01*
X-185060Y844300D01*
X-197770Y847510D01*
X-210470Y844300D01*
X-221050Y836250D01*
X-227400Y821770D01*
X-225280Y807300D01*
X-216820Y792820D01*
G01X-206230Y914310D02*
X-218930Y923970D01*
X-225280Y935230D01*
X-227400Y948100D01*
X-223170Y964180D01*
X-212580Y975450D01*
X-199890Y978660D01*
X-187180Y977050D01*
X-176600Y970620D01*
X-155430Y938450D01*
X-140620Y923970D01*
X-119450Y914310D01*
X-100400Y911100D01*
Y978660D01*
G01X-140800Y1578680D02*
Y1487660D01*
X-134370Y1468610D01*
X-121500Y1455910D01*
X-105410Y1451680D01*
X-89320Y1455910D01*
X-76450Y1468610D01*
X-70020Y1487660D01*
Y1578680D01*
G01X-6440Y1557510D02*
X3220Y1570210D01*
X14480Y1576560D01*
X27350Y1578680D01*
X43430Y1574450D01*
X54700Y1563860D01*
X57910Y1551170D01*
X56300Y1538460D01*
X49870Y1527880D01*
X17700Y1506710D01*
X3220Y1491900D01*
X-6440Y1470730D01*
X-9650Y1451680D01*
X57910D01*
G01X79160Y-2269560D02*
Y-2142560D01*
X14820D01*
G01X-79330D02*
X-82550Y-2170070D01*
X-87380Y-2193360D01*
X-93810Y-2214530D01*
X-101850Y-2237810D01*
X-114720Y-2269560D01*
X-50380D01*
G01X335110Y-1593920D02*
Y-1502900D01*
X328680Y-1483850D01*
X315810Y-1471150D01*
X299720Y-1466920D01*
X283630Y-1471150D01*
X270760Y-1483850D01*
X264330Y-1502900D01*
Y-1593920D01*
G01X170180Y-1466920D02*
Y-1593920D01*
X189480Y-1568520D01*
G01Y-1466920D02*
X150880D01*
G01X40640Y-1593920D02*
X53510Y-1589690D01*
X63160Y-1579100D01*
X69600Y-1566410D01*
X74420Y-1549470D01*
X76030Y-1530420D01*
X74420Y-1511370D01*
X69600Y-1494430D01*
X63160Y-1481730D01*
X53510Y-1471150D01*
X40640Y-1466920D01*
X27770Y-1471150D01*
X18120Y-1481730D01*
X11680Y-1494430D01*
X6860Y-1511370D01*
X5250Y-1530420D01*
X6860Y-1549470D01*
X11680Y-1566410D01*
X18120Y-1579100D01*
X27770Y-1589690D01*
X40640Y-1593920D01*
G01X50380Y2254320D02*
Y2127320D01*
X114720D01*
G01X231390D02*
Y2254320D01*
X171870Y2163300D01*
X252310D01*
G01X346360Y-736430D02*
X352710Y-726780D01*
X356940Y-715520D01*
Y-702650D01*
X350590Y-688170D01*
X340010Y-676910D01*
X327310Y-668870D01*
X306140Y-662430D01*
X287090Y-660820D01*
X268040Y-664040D01*
X255340Y-668870D01*
X242640Y-678520D01*
X234170Y-689780D01*
X229940Y-701040D01*
Y-712300D01*
X234170Y-723560D01*
X240520Y-733210D01*
X248990Y-741260D01*
G01X282850Y-800010D02*
X297670Y-811280D01*
X306140Y-820930D01*
X310370Y-833800D01*
X306140Y-845060D01*
X297670Y-853100D01*
X284970Y-859540D01*
X270160Y-861150D01*
X257450Y-859540D01*
X244750Y-853100D01*
X234170Y-843450D01*
X229940Y-832190D01*
X234170Y-819320D01*
X246870Y-808060D01*
X265920Y-801620D01*
X287090Y-800010D01*
X314600Y-803230D01*
X329430Y-808060D01*
X344240Y-816100D01*
X354820Y-827360D01*
X356940Y-838620D01*
X352710Y-849880D01*
X342120Y-857930D01*
G01X335770Y-929550D02*
X348470Y-939210D01*
X354820Y-950470D01*
X356940Y-963340D01*
X352710Y-979420D01*
X342120Y-990690D01*
X329430Y-993900D01*
X316720Y-992290D01*
X306140Y-985860D01*
X284970Y-953690D01*
X270160Y-939210D01*
X248990Y-929550D01*
X229940Y-926340D01*
Y-993900D01*
G01X136740Y2048580D02*
Y1921580D01*
X201080D01*
G01X263060Y1940630D02*
X272710Y1930040D01*
X283970Y1923700D01*
X298450Y1921580D01*
X312930Y1925810D01*
X324190Y1934280D01*
X332230Y1949090D01*
X333840Y1966030D01*
X330620Y1982960D01*
X322580Y1993550D01*
X311320Y2002010D01*
X300060Y2004130D01*
X288800Y2002010D01*
X274320Y1993550D01*
X279150Y2048580D01*
X322580D01*
G01X425520Y-9060D02*
X334500D01*
X315450Y-15490D01*
X302750Y-28360D01*
X298520Y-44450D01*
X302750Y-60540D01*
X315450Y-73410D01*
X334500Y-79840D01*
X425520D01*
G01X298520Y-173990D02*
X300640Y-185250D01*
X306980Y-198120D01*
X317570Y-206160D01*
X332390Y-209380D01*
X347200Y-206160D01*
X359900Y-196510D01*
X366250Y-182030D01*
Y-165950D01*
X370490Y-156290D01*
X381070Y-148250D01*
X395890Y-145030D01*
X410700Y-149860D01*
X421290Y-161120D01*
X425520Y-173990D01*
X421290Y-186860D01*
X410700Y-198120D01*
X395890Y-202950D01*
X381070Y-199730D01*
X370490Y-191690D01*
X366250Y-182030D01*
Y-165950D01*
X359900Y-151470D01*
X347200Y-141820D01*
X332390Y-138600D01*
X317570Y-141820D01*
X306980Y-149860D01*
X300640Y-162730D01*
X298520Y-173990D01*
G01X252800Y912280D02*
X379800D01*
Y872070D01*
X373450Y859200D01*
X364980Y851150D01*
X348050Y847940D01*
X331120Y851150D01*
X320530Y860810D01*
X314180Y872070D01*
Y912280D01*
G01Y872070D02*
X252800Y847940D01*
G01X271850Y785960D02*
X261260Y776310D01*
X254920Y765050D01*
X252800Y750570D01*
X257030Y736090D01*
X265500Y724830D01*
X280310Y716790D01*
X297250Y715180D01*
X314180Y718400D01*
X324770Y726440D01*
X333230Y737700D01*
X335350Y748960D01*
X333230Y760220D01*
X324770Y774700D01*
X379800Y769870D01*
Y726440D01*
G01X524160Y-1978490D02*
X530510Y-1968840D01*
X534740Y-1957580D01*
Y-1944710D01*
X528390Y-1930230D01*
X517810Y-1918970D01*
X505110Y-1910930D01*
X483940Y-1904490D01*
X464890Y-1902880D01*
X445840Y-1906100D01*
X433140Y-1910930D01*
X420440Y-1920580D01*
X411970Y-1931840D01*
X407740Y-1943100D01*
Y-1954360D01*
X411970Y-1965620D01*
X418320Y-1975270D01*
X426790Y-1983320D01*
G01Y-2037250D02*
X416200Y-2046900D01*
X409860Y-2058160D01*
X407740Y-2072640D01*
X411970Y-2087120D01*
X420440Y-2098380D01*
X435250Y-2106420D01*
X452190Y-2108030D01*
X469120Y-2104810D01*
X479710Y-2096770D01*
X488170Y-2085510D01*
X490290Y-2074250D01*
X488170Y-2062990D01*
X479710Y-2048510D01*
X534740Y-2053340D01*
Y-2096770D01*
G01X460650Y-2171610D02*
X475470Y-2182880D01*
X483940Y-2192530D01*
X488170Y-2205400D01*
X483940Y-2216660D01*
X475470Y-2224700D01*
X462770Y-2231140D01*
X447960Y-2232750D01*
X435250Y-2231140D01*
X422550Y-2224700D01*
X411970Y-2215050D01*
X407740Y-2203790D01*
X411970Y-2190920D01*
X424670Y-2179660D01*
X443720Y-2173220D01*
X464890Y-2171610D01*
X492400Y-2174830D01*
X507230Y-2179660D01*
X522040Y-2187700D01*
X532620Y-2198960D01*
X534740Y-2210220D01*
X530510Y-2221480D01*
X519920Y-2229530D01*
G01X574960Y-738970D02*
X581310Y-729320D01*
X585540Y-718060D01*
Y-705190D01*
X579190Y-690710D01*
X568610Y-679450D01*
X555910Y-671410D01*
X534740Y-664970D01*
X515690Y-663360D01*
X496640Y-666580D01*
X483940Y-671410D01*
X471240Y-681060D01*
X462770Y-692320D01*
X458540Y-703580D01*
Y-714840D01*
X462770Y-726100D01*
X469120Y-735750D01*
X477590Y-743800D01*
G01Y-797730D02*
X467000Y-807380D01*
X460660Y-818640D01*
X458540Y-833120D01*
X462770Y-847600D01*
X471240Y-858860D01*
X486050Y-866900D01*
X502990Y-868510D01*
X519920Y-865290D01*
X530510Y-857250D01*
X538970Y-845990D01*
X541090Y-834730D01*
X538970Y-823470D01*
X530510Y-808990D01*
X585540Y-813820D01*
Y-857250D01*
G01X458540Y-981960D02*
X585540D01*
X494520Y-922440D01*
Y-1002880D01*
G01X456000Y912280D02*
X583000D01*
Y872070D01*
X576650Y859200D01*
X568180Y851150D01*
X551250Y847940D01*
X534320Y851150D01*
X523730Y860810D01*
X517380Y872070D01*
Y912280D01*
G01Y872070D02*
X456000Y847940D01*
G01Y731270D02*
X583000D01*
X491980Y790790D01*
Y710350D01*
G01X602150Y1271620D02*
X611800Y1265270D01*
X623060Y1261040D01*
X635930D01*
X650410Y1267390D01*
X661670Y1277970D01*
X669710Y1290670D01*
X676150Y1311840D01*
X677760Y1330890D01*
X674540Y1349940D01*
X669710Y1362640D01*
X660060Y1375340D01*
X648800Y1383810D01*
X637540Y1388040D01*
X626280D01*
X615020Y1383810D01*
X605370Y1377460D01*
X597320Y1368990D01*
G01X508000Y1388040D02*
Y1261040D01*
X527300Y1286440D01*
G01Y1388040D02*
X488700D01*
G01X378460D02*
Y1261040D01*
X397760Y1286440D01*
G01Y1388040D02*
X359160D01*
G01X719240Y-2015560D02*
Y-1888560D01*
X654900D01*
G01X588100Y-1941470D02*
X576830Y-1956290D01*
X567180Y-1964760D01*
X554310Y-1968990D01*
X543050Y-1964760D01*
X535010Y-1956290D01*
X528570Y-1943590D01*
X526960Y-1928780D01*
X528570Y-1916070D01*
X535010Y-1903370D01*
X544660Y-1892790D01*
X555920Y-1888560D01*
X568790Y-1892790D01*
X580050Y-1905490D01*
X586490Y-1924540D01*
X588100Y-1945710D01*
X584880Y-1973220D01*
X580050Y-1988050D01*
X572010Y-2002860D01*
X560750Y-2013440D01*
X549490Y-2015560D01*
X538230Y-2011330D01*
X530180Y-2000740D01*
G01X543390Y374300D02*
X533740Y380650D01*
X522480Y384880D01*
X509610D01*
X495130Y378530D01*
X483870Y367950D01*
X475830Y355250D01*
X469390Y334080D01*
X467780Y315030D01*
X471000Y295980D01*
X475830Y283280D01*
X485480Y270580D01*
X496740Y262110D01*
X508000Y257880D01*
X519260D01*
X530520Y262110D01*
X540170Y268460D01*
X548220Y276930D01*
G01X656840Y257880D02*
Y384880D01*
X597320Y293860D01*
X677760D01*
G01X739730Y272690D02*
X750990Y262110D01*
X763860Y257880D01*
X776730Y262110D01*
X787990Y274810D01*
X796040Y293860D01*
X799250Y312910D01*
Y336200D01*
X796040Y355250D01*
X787990Y372180D01*
X778340Y380650D01*
X767080Y384880D01*
X754210Y380650D01*
X744560Y372180D01*
X738120Y359480D01*
X734910Y342540D01*
X738120Y327730D01*
X746170Y312910D01*
X755820Y304440D01*
X767080Y302330D01*
X779950Y306560D01*
X789600Y317150D01*
X799250Y336200D01*
G01X620680Y1267630D02*
X627030Y1277280D01*
X631260Y1288540D01*
Y1301410D01*
X624910Y1315890D01*
X614330Y1327150D01*
X601630Y1335190D01*
X580460Y1341630D01*
X561410Y1343240D01*
X542360Y1340020D01*
X529660Y1335190D01*
X516960Y1325540D01*
X508490Y1314280D01*
X504260Y1303020D01*
Y1291760D01*
X508490Y1280500D01*
X514840Y1270850D01*
X523310Y1262800D01*
G01X504260Y1173480D02*
X631260D01*
X605860Y1192780D01*
G01X504260D02*
Y1154180D01*
G01X557170Y1074510D02*
X571990Y1063240D01*
X580460Y1053590D01*
X584690Y1040720D01*
X580460Y1029460D01*
X571990Y1021420D01*
X559290Y1014980D01*
X544480Y1013370D01*
X531770Y1014980D01*
X519070Y1021420D01*
X508490Y1031070D01*
X504260Y1042330D01*
X508490Y1055200D01*
X521190Y1066460D01*
X540240Y1072900D01*
X561410Y1074510D01*
X588920Y1071290D01*
X603750Y1066460D01*
X618560Y1058420D01*
X629140Y1047160D01*
X631260Y1035900D01*
X627030Y1024640D01*
X616440Y1016590D01*
G01X510370Y1860200D02*
X500720Y1866550D01*
X489460Y1870780D01*
X476590D01*
X462110Y1864430D01*
X450850Y1853850D01*
X442810Y1841150D01*
X436370Y1819980D01*
X434760Y1800930D01*
X437980Y1781880D01*
X442810Y1769180D01*
X452460Y1756480D01*
X463720Y1748010D01*
X474980Y1743780D01*
X486240D01*
X497500Y1748010D01*
X507150Y1754360D01*
X515200Y1762830D01*
G01X604520Y1743780D02*
Y1870780D01*
X585220Y1845380D01*
G01Y1743780D02*
X623820D01*
G01X734060Y1870780D02*
X721190Y1866550D01*
X711540Y1855960D01*
X705100Y1843270D01*
X700280Y1826330D01*
X698670Y1807280D01*
X700280Y1788230D01*
X705100Y1771290D01*
X711540Y1758590D01*
X721190Y1748010D01*
X734060Y1743780D01*
X746930Y1748010D01*
X756580Y1758590D01*
X763020Y1771290D01*
X767840Y1788230D01*
X769450Y1807280D01*
X767840Y1826330D01*
X763020Y1843270D01*
X756580Y1855960D01*
X746930Y1866550D01*
X734060Y1870780D01*
G01X853610Y-1504600D02*
X863260Y-1510950D01*
X874520Y-1515180D01*
X887390D01*
X901870Y-1508830D01*
X913130Y-1498250D01*
X921170Y-1485550D01*
X927610Y-1464380D01*
X929220Y-1445330D01*
X926000Y-1426280D01*
X921170Y-1413580D01*
X911520Y-1400880D01*
X900260Y-1392410D01*
X889000Y-1388180D01*
X877740D01*
X866480Y-1392410D01*
X856830Y-1398760D01*
X848780Y-1407230D01*
G01X794850D02*
X785200Y-1396640D01*
X773940Y-1390300D01*
X759460Y-1388180D01*
X744980Y-1392410D01*
X733720Y-1400880D01*
X725680Y-1415690D01*
X724070Y-1432630D01*
X727290Y-1449560D01*
X735330Y-1460150D01*
X746590Y-1468610D01*
X757850Y-1470730D01*
X769110Y-1468610D01*
X783590Y-1460150D01*
X778760Y-1515180D01*
X735330D01*
G01X660490Y-1494010D02*
X650830Y-1506710D01*
X639570Y-1513060D01*
X626700Y-1515180D01*
X610620Y-1510950D01*
X599350Y-1500360D01*
X596140Y-1487670D01*
X597750Y-1474960D01*
X604180Y-1464380D01*
X636350Y-1443210D01*
X650830Y-1428400D01*
X660490Y-1407230D01*
X663700Y-1388180D01*
X596140D01*
G01X665310Y-1324960D02*
X655660Y-1318610D01*
X644400Y-1314380D01*
X631530D01*
X617050Y-1320730D01*
X605790Y-1331310D01*
X597750Y-1344010D01*
X591310Y-1365180D01*
X589700Y-1384230D01*
X592920Y-1403280D01*
X597750Y-1415980D01*
X607400Y-1428680D01*
X618660Y-1437150D01*
X629920Y-1441380D01*
X641180D01*
X652440Y-1437150D01*
X662090Y-1430800D01*
X670140Y-1422330D01*
G01X724070D02*
X733720Y-1432920D01*
X744980Y-1439260D01*
X759460Y-1441380D01*
X773940Y-1437150D01*
X785200Y-1428680D01*
X793240Y-1413870D01*
X794850Y-1396930D01*
X791630Y-1380000D01*
X783590Y-1369410D01*
X772330Y-1360950D01*
X761070Y-1358830D01*
X749810Y-1360950D01*
X735330Y-1369410D01*
X740160Y-1314380D01*
X783590D01*
G01X853610Y-1422330D02*
X863260Y-1432920D01*
X874520Y-1439260D01*
X889000Y-1441380D01*
X903480Y-1437150D01*
X914740Y-1428680D01*
X922780Y-1413870D01*
X924390Y-1396930D01*
X921170Y-1380000D01*
X913130Y-1369410D01*
X901870Y-1360950D01*
X890610Y-1358830D01*
X879350Y-1360950D01*
X864870Y-1369410D01*
X869700Y-1314380D01*
X913130D01*
G01X669360Y-148170D02*
X796360D01*
Y-188380D01*
X790010Y-201250D01*
X781540Y-209300D01*
X764610Y-212510D01*
X747680Y-209300D01*
X737090Y-199640D01*
X730740Y-188380D01*
Y-148170D01*
G01Y-188380D02*
X669360Y-212510D01*
G01X775190Y-279310D02*
X787890Y-288970D01*
X794240Y-300230D01*
X796360Y-313100D01*
X792130Y-329180D01*
X781540Y-340450D01*
X768850Y-343660D01*
X756140Y-342050D01*
X745560Y-335620D01*
X724390Y-303450D01*
X709580Y-288970D01*
X688410Y-279310D01*
X669360Y-276100D01*
Y-343660D01*
G01X796360Y-439420D02*
X792130Y-426550D01*
X781540Y-416900D01*
X768850Y-410460D01*
X751910Y-405640D01*
X732860Y-404030D01*
X713810Y-405640D01*
X696870Y-410460D01*
X684170Y-416900D01*
X673590Y-426550D01*
X669360Y-439420D01*
X673590Y-452290D01*
X684170Y-461940D01*
X696870Y-468380D01*
X713810Y-473200D01*
X732860Y-474810D01*
X751910Y-473200D01*
X768850Y-468380D01*
X781540Y-461940D01*
X792130Y-452290D01*
X796360Y-439420D01*
G01X840910Y314040D02*
X850560Y307690D01*
X861820Y303460D01*
X874690D01*
X889170Y309810D01*
X900430Y320390D01*
X908470Y333090D01*
X914910Y354260D01*
X916520Y373310D01*
X913300Y392360D01*
X908470Y405060D01*
X898820Y417760D01*
X887560Y426230D01*
X876300Y430460D01*
X865040D01*
X853780Y426230D01*
X844130Y419880D01*
X836080Y411410D01*
G01X746760Y430460D02*
Y303460D01*
X766060Y328860D01*
G01Y430460D02*
X727460D01*
G01X597920D02*
Y303460D01*
X657440Y394480D01*
X577000D01*
G01X840910Y532480D02*
X850560Y526130D01*
X861820Y521900D01*
X874690D01*
X889170Y528250D01*
X900430Y538830D01*
X908470Y551530D01*
X914910Y572700D01*
X916520Y591750D01*
X913300Y610800D01*
X908470Y623500D01*
X898820Y636200D01*
X887560Y644670D01*
X876300Y648900D01*
X865040D01*
X853780Y644670D01*
X844130Y638320D01*
X836080Y629850D01*
G01X746760Y648900D02*
Y521900D01*
X766060Y547300D01*
G01Y648900D02*
X727460D01*
G01X652610Y629850D02*
X642960Y640440D01*
X631700Y646780D01*
X617220Y648900D01*
X602740Y644670D01*
X591480Y636200D01*
X583440Y621390D01*
X581830Y604450D01*
X585050Y587520D01*
X593090Y576930D01*
X604350Y568470D01*
X615610Y566350D01*
X626870Y568470D01*
X641350Y576930D01*
X636520Y521900D01*
X593090D01*
G01X960290Y-1293780D02*
X969940Y-1300130D01*
X981200Y-1304360D01*
X994070D01*
X1008550Y-1298010D01*
X1019810Y-1287430D01*
X1027850Y-1274730D01*
X1034290Y-1253560D01*
X1035900Y-1234510D01*
X1032680Y-1215460D01*
X1027850Y-1202760D01*
X1018200Y-1190060D01*
X1006940Y-1181590D01*
X995680Y-1177360D01*
X984420D01*
X973160Y-1181590D01*
X963510Y-1187940D01*
X955460Y-1196410D01*
G01X901530D02*
X891880Y-1185820D01*
X880620Y-1179480D01*
X866140Y-1177360D01*
X851660Y-1181590D01*
X840400Y-1190060D01*
X832360Y-1204870D01*
X830750Y-1221810D01*
X833970Y-1238740D01*
X842010Y-1249330D01*
X853270Y-1257790D01*
X864530Y-1259910D01*
X875790Y-1257790D01*
X890270Y-1249330D01*
X885440Y-1304360D01*
X842010D01*
G01X771990Y-1202760D02*
X762340Y-1187940D01*
X749470Y-1179480D01*
X734990Y-1177360D01*
X722120Y-1179480D01*
X709250Y-1190060D01*
X701210Y-1202760D01*
X699600Y-1215460D01*
X702820Y-1230270D01*
X714080Y-1240860D01*
X725340Y-1245090D01*
X739820D01*
G01X725340D02*
X715690Y-1251440D01*
X707640Y-1262020D01*
X704430Y-1274730D01*
X707640Y-1287430D01*
X715690Y-1298010D01*
X730170Y-1304360D01*
X744640Y-1302240D01*
X759120Y-1293780D01*
G01X755720Y1272960D02*
X882720D01*
Y1232750D01*
X876370Y1219880D01*
X867900Y1211830D01*
X850970Y1208620D01*
X834040Y1211830D01*
X823450Y1221490D01*
X817100Y1232750D01*
Y1272960D01*
G01Y1232750D02*
X755720Y1208620D01*
G01X861550Y1141820D02*
X874250Y1132160D01*
X880600Y1120900D01*
X882720Y1108030D01*
X878490Y1091950D01*
X867900Y1080680D01*
X855210Y1077470D01*
X842500Y1079080D01*
X831920Y1085510D01*
X810750Y1117680D01*
X795940Y1132160D01*
X774770Y1141820D01*
X755720Y1145030D01*
Y1077470D01*
G01X1122850Y-2004980D02*
X1132500Y-2011330D01*
X1143760Y-2015560D01*
X1156630D01*
X1171110Y-2009210D01*
X1182370Y-1998630D01*
X1190410Y-1985930D01*
X1196850Y-1964760D01*
X1198460Y-1945710D01*
X1195240Y-1926660D01*
X1190410Y-1913960D01*
X1180760Y-1901260D01*
X1169500Y-1892790D01*
X1158240Y-1888560D01*
X1146980D01*
X1135720Y-1892790D01*
X1126070Y-1899140D01*
X1118020Y-1907610D01*
G01X1064090D02*
X1054440Y-1897020D01*
X1043180Y-1890680D01*
X1028700Y-1888560D01*
X1014220Y-1892790D01*
X1002960Y-1901260D01*
X994920Y-1916070D01*
X993310Y-1933010D01*
X996530Y-1949940D01*
X1004570Y-1960530D01*
X1015830Y-1968990D01*
X1027090Y-1971110D01*
X1038350Y-1968990D01*
X1052830Y-1960530D01*
X1048000Y-2015560D01*
X1004570D01*
G01X899160D02*
X912030Y-2011330D01*
X921680Y-2000740D01*
X928120Y-1988050D01*
X932940Y-1971110D01*
X934550Y-1952060D01*
X932940Y-1933010D01*
X928120Y-1916070D01*
X921680Y-1903370D01*
X912030Y-1892790D01*
X899160Y-1888560D01*
X886290Y-1892790D01*
X876640Y-1903370D01*
X870200Y-1916070D01*
X865380Y-1933010D01*
X863770Y-1952060D01*
X865380Y-1971110D01*
X870200Y-1988050D01*
X876640Y-2000740D01*
X886290Y-2011330D01*
X899160Y-2015560D01*
G01X1059280Y-926930D02*
X1062570Y-912270D01*
X1061730Y-899460D01*
X1056760Y-888500D01*
X1044670Y-882390D01*
X1031860Y-881550D01*
X1016050Y-883710D01*
X1001800Y-893410D01*
X941930Y-953280D01*
G01X971750Y-824440D02*
X971270Y-808990D01*
X965160Y-796900D01*
X953070Y-790790D01*
X936130Y-791810D01*
X916970Y-799590D01*
X901220Y-810790D01*
X884760Y-827250D01*
X873560Y-843000D01*
X867280Y-860660D01*
X868110Y-873470D01*
X873080Y-884430D01*
X885180Y-890540D01*
X897990Y-891370D01*
X911520Y-886940D01*
X925770Y-877240D01*
X933970Y-864490D01*
X938760Y-848330D01*
X937920Y-835510D01*
X931460Y-826060D01*
X919360Y-819950D01*
X905050Y-820610D01*
X884760Y-827250D01*
G01X1061890Y839820D02*
X1071540Y833470D01*
X1082800Y829240D01*
X1095670D01*
X1110150Y835590D01*
X1121410Y846170D01*
X1129450Y858870D01*
X1135890Y880040D01*
X1137500Y899090D01*
X1134280Y918140D01*
X1129450Y930840D01*
X1119800Y943540D01*
X1108540Y952010D01*
X1097280Y956240D01*
X1086020D01*
X1074760Y952010D01*
X1065110Y945660D01*
X1057060Y937190D01*
G01X967740Y956240D02*
Y829240D01*
X987040Y854640D01*
G01Y956240D02*
X948440D01*
G01X873590Y930840D02*
X863940Y945660D01*
X851070Y954120D01*
X836590Y956240D01*
X823720Y954120D01*
X810850Y943540D01*
X802810Y930840D01*
X801200Y918140D01*
X804420Y903330D01*
X815680Y892740D01*
X826940Y888510D01*
X841420D01*
G01X826940D02*
X817290Y882160D01*
X809240Y871580D01*
X806030Y858870D01*
X809240Y846170D01*
X817290Y835590D01*
X831770Y829240D01*
X846240Y831360D01*
X860720Y839820D01*
G01X1061890Y1073500D02*
X1071540Y1067150D01*
X1082800Y1062920D01*
X1095670D01*
X1110150Y1069270D01*
X1121410Y1079850D01*
X1129450Y1092550D01*
X1135890Y1113720D01*
X1137500Y1132770D01*
X1134280Y1151820D01*
X1129450Y1164520D01*
X1119800Y1177220D01*
X1108540Y1185690D01*
X1097280Y1189920D01*
X1086020D01*
X1074760Y1185690D01*
X1065110Y1179340D01*
X1057060Y1170870D01*
G01X967740Y1189920D02*
Y1062920D01*
X987040Y1088320D01*
G01Y1189920D02*
X948440D01*
G01X868770Y1084090D02*
X859110Y1071390D01*
X847850Y1065040D01*
X834980Y1062920D01*
X818900Y1067150D01*
X807630Y1077740D01*
X804420Y1090430D01*
X806030Y1103140D01*
X812460Y1113720D01*
X844630Y1134890D01*
X859110Y1149700D01*
X868770Y1170870D01*
X871980Y1189920D01*
X804420D01*
G01X864450Y1593920D02*
Y1720920D01*
X904660D01*
X917530Y1714570D01*
X925580Y1706100D01*
X928790Y1689170D01*
X925580Y1672240D01*
X915920Y1661650D01*
X904660Y1655300D01*
X864450D01*
G01X904660D02*
X928790Y1593920D01*
G01X995590Y1699750D02*
X1005250Y1712450D01*
X1016510Y1718800D01*
X1029380Y1720920D01*
X1045460Y1716690D01*
X1056730Y1706100D01*
X1059940Y1693410D01*
X1058330Y1680700D01*
X1051900Y1670120D01*
X1019730Y1648950D01*
X1005250Y1634140D01*
X995590Y1612970D01*
X992380Y1593920D01*
X1059940D01*
G01X1155700D02*
Y1720920D01*
X1136400Y1695520D01*
G01Y1593920D02*
X1175000D01*
G01X1125220Y121680D02*
X1034200D01*
X1015150Y115250D01*
X1002450Y102380D01*
X998220Y86290D01*
X1002450Y70200D01*
X1015150Y57330D01*
X1034200Y50900D01*
X1125220D01*
G01X1013030Y-15900D02*
X1002450Y-27160D01*
X998220Y-40030D01*
X1002450Y-52900D01*
X1015150Y-64160D01*
X1034200Y-72210D01*
X1053250Y-75420D01*
X1076540D01*
X1095590Y-72210D01*
X1112520Y-64160D01*
X1120990Y-54510D01*
X1125220Y-43250D01*
X1120990Y-30380D01*
X1112520Y-20730D01*
X1099820Y-14290D01*
X1082880Y-11080D01*
X1068070Y-14290D01*
X1053250Y-22340D01*
X1044780Y-31990D01*
X1042670Y-43250D01*
X1046900Y-56120D01*
X1057490Y-65770D01*
X1076540Y-75420D01*
G01X1264680Y-2118360D02*
Y-2245360D01*
X1232510D01*
X1219640Y-2239010D01*
X1209990Y-2230540D01*
X1201940Y-2217850D01*
X1195510Y-2203020D01*
X1193900Y-2181860D01*
X1195510Y-2160690D01*
X1201940Y-2145870D01*
X1209990Y-2133170D01*
X1219640Y-2124710D01*
X1232510Y-2118360D01*
X1264680D01*
G01X1130320Y-2224190D02*
X1120660Y-2236890D01*
X1109400Y-2243240D01*
X1096530Y-2245360D01*
X1080450Y-2241130D01*
X1069180Y-2230540D01*
X1065970Y-2217850D01*
X1067580Y-2205140D01*
X1074010Y-2194560D01*
X1106180Y-2173390D01*
X1120660Y-2158580D01*
X1130320Y-2137410D01*
X1133530Y-2118360D01*
X1065970D01*
G01X1366520Y639840D02*
X1275500D01*
X1256450Y633410D01*
X1243750Y620540D01*
X1239520Y604450D01*
X1243750Y588360D01*
X1256450Y575490D01*
X1275500Y569060D01*
X1366520D01*
G01X1258570Y510300D02*
X1247980Y500650D01*
X1241640Y489390D01*
X1239520Y474910D01*
X1243750Y460430D01*
X1252220Y449170D01*
X1267030Y441130D01*
X1283970Y439520D01*
X1300900Y442740D01*
X1311490Y450780D01*
X1319950Y462040D01*
X1322070Y473300D01*
X1319950Y484560D01*
X1311490Y499040D01*
X1366520Y494210D01*
Y450780D01*
G01X1536870Y-2004980D02*
X1546520Y-2011330D01*
X1557780Y-2015560D01*
X1570650D01*
X1585130Y-2009210D01*
X1596390Y-1998630D01*
X1604430Y-1985930D01*
X1610870Y-1964760D01*
X1612480Y-1945710D01*
X1609260Y-1926660D01*
X1604430Y-1913960D01*
X1594780Y-1901260D01*
X1583520Y-1892790D01*
X1572260Y-1888560D01*
X1561000D01*
X1549740Y-1892790D01*
X1540090Y-1899140D01*
X1532040Y-1907610D01*
G01X1478110D02*
X1468460Y-1897020D01*
X1457200Y-1890680D01*
X1442720Y-1888560D01*
X1428240Y-1892790D01*
X1416980Y-1901260D01*
X1408940Y-1916070D01*
X1407330Y-1933010D01*
X1410550Y-1949940D01*
X1418590Y-1960530D01*
X1429850Y-1968990D01*
X1441110Y-1971110D01*
X1452370Y-1968990D01*
X1466850Y-1960530D01*
X1462020Y-2015560D01*
X1418590D01*
G01X1313180Y-1888560D02*
Y-2015560D01*
X1332480Y-1990160D01*
G01Y-1888560D02*
X1293880D01*
G01X1560080Y-707160D02*
X1433080D01*
Y-666950D01*
X1439430Y-654080D01*
X1447900Y-646040D01*
X1464830Y-642820D01*
X1481760Y-646040D01*
X1492350Y-655690D01*
X1498700Y-666950D01*
Y-707160D01*
G01Y-666950D02*
X1560080Y-642820D01*
G01X1454250Y-576050D02*
X1441550Y-566400D01*
X1435200Y-555140D01*
X1433080Y-542270D01*
X1437310Y-526190D01*
X1447900Y-514930D01*
X1460590Y-511710D01*
X1473300Y-513320D01*
X1483880Y-519760D01*
X1505050Y-551920D01*
X1519860Y-566400D01*
X1541030Y-576050D01*
X1560080Y-579270D01*
Y-511710D01*
G01X1507170Y-446550D02*
X1492350Y-435290D01*
X1483880Y-425640D01*
X1479650Y-412770D01*
X1483880Y-401510D01*
X1492350Y-393470D01*
X1505050Y-387040D01*
X1519860Y-385430D01*
X1532570Y-387040D01*
X1545270Y-393470D01*
X1555850Y-403120D01*
X1560080Y-414380D01*
X1555850Y-427250D01*
X1543150Y-438510D01*
X1524100Y-444940D01*
X1502930Y-446550D01*
X1475420Y-443330D01*
X1460590Y-438510D01*
X1445780Y-430470D01*
X1435200Y-419210D01*
X1433080Y-407950D01*
X1437310Y-396690D01*
X1447900Y-388650D01*
G01X2160080Y-1023240D02*
Y-23240D01*
X1660080D01*
Y-1023240D01*
X2160080D01*
G01X1711110Y1005840D02*
X1714500Y999490D01*
X1718560Y995260D01*
X1723310Y993140D01*
X1728720Y995260D01*
X1732790Y999490D01*
X1736850Y1005840D01*
X1738210Y1014310D01*
Y1056640D01*
G01X1765640Y1005840D02*
X1769700Y998430D01*
X1775120Y994200D01*
X1781220Y993140D01*
X1786640Y994200D01*
X1792060Y999490D01*
X1795440Y1005840D01*
X1796120Y1012190D01*
X1794760Y1019600D01*
X1790020Y1024890D01*
X1785280Y1027010D01*
X1779190D01*
G01X1785280D02*
X1789350Y1030180D01*
X1792730Y1035470D01*
X1794090Y1041820D01*
X1792730Y1048170D01*
X1789350Y1053460D01*
X1783250Y1056640D01*
X1777150Y1055580D01*
X1771060Y1051350D01*
G01X2236050Y-2080260D02*
X2232660Y-2073910D01*
X2228600Y-2069680D01*
X2223850Y-2067560D01*
X2218440Y-2069680D01*
X2214370Y-2073910D01*
X2210310Y-2080260D01*
X2208950Y-2088730D01*
Y-2131060D01*
G01X2166620Y-2067560D02*
X2161880Y-2068620D01*
X2156460Y-2071790D01*
X2153070Y-2077080D01*
X2151720Y-2084490D01*
X2153070Y-2091900D01*
X2157140Y-2098250D01*
X2163230Y-2101430D01*
X2170010D01*
X2174070Y-2103540D01*
X2177460Y-2108830D01*
X2178810Y-2116240D01*
X2176780Y-2123650D01*
X2172040Y-2128940D01*
X2166620Y-2131060D01*
X2161200Y-2128940D01*
X2156460Y-2123650D01*
X2154430Y-2116240D01*
X2155780Y-2108830D01*
X2159170Y-2103540D01*
X2163230Y-2101430D01*
X2170010D01*
X2176100Y-2098250D01*
X2180170Y-2091900D01*
X2181520Y-2084490D01*
X2180170Y-2077080D01*
X2176780Y-2071790D01*
X2171360Y-2068620D01*
X2166620Y-2067560D01*
M02*
