G04 ================== begin FILE IDENTIFICATION RECORD ==================*
G04 Layout Name:  E:/Cadence/SDR/board_r820t2/r820t2.brd*
G04 Film Name:    TOP*
G04 File Format:  Gerber RS274X*
G04 File Origin:  Cadence Allegro 16.6-P004*
G04 Origin Date:  Thu Mar 26 22:40:33 2020*
G04 *
G04 Layer:  VIA CLASS/TOP*
G04 Layer:  PIN/TOP*
G04 Layer:  ETCH/TOP*
G04 *
G04 Offset:    (0.0000 0.0000)*
G04 Mirror:    No*
G04 Mode:      Positive*
G04 Rotation:  0*
G04 FullContactRelief:  No*
G04 UndefLineWidth:     0.6000*
G04 ================== end FILE IDENTIFICATION RECORD ====================*
%FSLAX25Y25*MOMM*%
%IR0*IPPOS*OFA0.00000B0.00000*MIA0B0*SFA1.00000B1.00000*%
%ADD18O,.6X1.3*%
%ADD26R,.45X1.5*%
%ADD28R,.762X1.016*%
%ADD12R,2.15X.95*%
%ADD16R,1.36X.85*%
%AMMACRO25*
4,1,35,1.35,-1.,
1.,-1.35,
-1.,-1.35,
-1.06077,-1.344691,
-1.119695,-1.32891,
-1.174984,-1.303136,
-1.224958,-1.268153,
-1.268098,-1.225024,
-1.303093,-1.175059,
-1.32888,-1.119776,
-1.344676,-1.060855,
-1.35,-1.000086,
-1.35,-1.,
-1.35,1.,
-1.344691,1.06077,
-1.32891,1.119695,
-1.303136,1.174984,
-1.268153,1.224958,
-1.225024,1.268098,
-1.175059,1.303093,
-1.119776,1.32888,
-1.060855,1.344676,
-1.000086,1.35,
-1.,1.35,
1.,1.35,
1.06077,1.344691,
1.119695,1.32891,
1.174984,1.303136,
1.224958,1.268153,
1.268098,1.225024,
1.303093,1.175059,
1.32888,1.119776,
1.344676,1.060855,
1.35,1.000086,
1.35,1.,
1.35,-1.,
0.0*
%
%ADD25MACRO25*%
%ADD20C,.6096*%
%ADD24R,.3X.8*%
%ADD22R,.8X.3*%
%ADD15R,1.15X1.45*%
%ADD13C,1.2*%
%ADD21R,1.45X1.15*%
%ADD17R,2.15X3.25*%
%ADD10C,1.6*%
%ADD14R,1.2X1.2*%
%AMMACRO19*
21,1,1.6,1.6,0.0,0.0,45.*%
%ADD19MACRO19*%
%ADD11R,1.6X1.6*%
%ADD27R,.85X.95*%
%AMMACRO23*
4,1,35,-1.35,1.,
-1.,1.35,
1.,1.35,
1.06077,1.344691,
1.119695,1.32891,
1.174984,1.303136,
1.224958,1.268153,
1.268098,1.225024,
1.303093,1.175059,
1.32888,1.119776,
1.344676,1.060855,
1.35,1.000086,
1.35,1.,
1.35,-1.,
1.344691,-1.06077,
1.32891,-1.119695,
1.303136,-1.174984,
1.268153,-1.224958,
1.225024,-1.268098,
1.175059,-1.303093,
1.119776,-1.32888,
1.060855,-1.344676,
1.000086,-1.35,
1.,-1.35,
-1.,-1.35,
-1.06077,-1.344691,
-1.119695,-1.32891,
-1.174984,-1.303136,
-1.224958,-1.268153,
-1.268098,-1.225024,
-1.303093,-1.175059,
-1.32888,-1.119776,
-1.344676,-1.060855,
-1.35,-1.000086,
-1.35,-1.,
-1.35,1.,
0.0*
%
%ADD23MACRO23*%
%ADD29C,.2*%
%ADD30C,.3*%
%ADD31C,.5*%
%ADD32C,1.*%
%ADD33C,2.*%
%ADD34C,1.5*%
%ADD43R,1.1044X1.2044*%
%ADD38R,2.4044X1.2044*%
%ADD40R,1.6144X1.1044*%
%ADD35R,1.0164X1.2704*%
%ADD42R,1.7044X1.4044*%
%ADD41R,1.4044X1.7044*%
%ADD39C,1.4544*%
%ADD37C,1.8544*%
%ADD36R,1.8544X1.8544*%
G75*
%LPD*%
G75*
G36*
G01X1368710Y-2308860D02*
G02X1362140Y-2290950I-1J10160D01*
G03X1377240Y-2258360I-27619J32590D01*
G01Y-2188360D01*
G03X1291800I-42720J0D01*
G01Y-2258360D01*
G03X1306900Y-2290950I42719J0D01*
G02X1300330Y-2308860I-6569J-7750D01*
G01X1178710D01*
G02X1172140Y-2290950I-1J10160D01*
G03X1187240Y-2258360I-27619J32590D01*
G01Y-2188360D01*
G03X1101800I-42720J0D01*
G01Y-2258360D01*
G03X1116900Y-2290950I42719J0D01*
G02X1110330Y-2308860I-6569J-7750D01*
G01X-2072640D01*
X-2251710Y-2129790D01*
Y-1433830D01*
X-2202180Y-1384300D01*
X-2172970D01*
X-2142490Y-1353820D01*
X-998420D01*
Y-1365380D01*
X-857980D01*
Y-1194940D01*
X-998420D01*
Y-1236980D01*
X-2245360D01*
X-2268220Y-1214120D01*
Y2141220D01*
X-2120900Y2288540D01*
X-1244390D01*
G02X-1236820Y2271610I-1J-10158D01*
G03X-1247700Y2243130I31843J-28483D01*
G01Y2173120D01*
G03X-1162260I42720J0D01*
G01Y2243130D01*
G03X-1173140Y2271610I-42723J-3D01*
G02X-1165570Y2288540I7571J6772D01*
G01X-1054390D01*
G02X-1046820Y2271610I-1J-10158D01*
G03X-1057700Y2243130I31843J-28483D01*
G01Y2173120D01*
G03X-972260I42720J0D01*
G01Y2243130D01*
G03X-983140Y2271610I-42723J-3D01*
G02X-975570Y2288540I7571J6772D01*
G01X2189480D01*
X2298700Y2179320D01*
Y-2186940D01*
X2176780Y-2308860D01*
X1368710D01*
G37*
%LPC*%
G75*
G36*
G01X-37920Y1893340D02*
Y1816990D01*
G03X-19320Y1811340I10160J5D01*
G02X69430Y1871260I117980J-79060D01*
G01X73460Y1872110D01*
Y1931800D01*
X205960D01*
Y1967100D01*
X167100D01*
Y2137540D01*
X307540D01*
Y1967100D01*
X261400D01*
Y1931800D01*
X393900D01*
Y1761360D01*
X351400D01*
Y1713060D01*
G02X264160Y1625820I-87240J0D01*
G01X114360D01*
G03X112080Y1623540I0J-2280D01*
G01Y1529400D01*
X203710D01*
G03X231860Y1541060I0J39810D01*
G01X297340Y1606540D01*
G02X444300Y1688370I217189J-217174D01*
G01Y1754000D01*
X486800D01*
Y1788380D01*
X553820Y1855400D01*
X553730Y1857620D01*
G02X595240Y1816110I43170J1660D01*
G01X593020Y1816200D01*
X542240Y1765420D01*
Y1754000D01*
X584740D01*
Y1583560D01*
X444300D01*
Y1617130D01*
G03X430760Y1626710I-10158J1D01*
G03X336540Y1567340I83749J-237357D01*
G01X271060Y1501860D01*
G02X266100Y1497240I-67359J67344D01*
G03X272750Y1479400I6651J-7680D01*
G01X347780D01*
Y1548260D01*
X488220D01*
Y1379080D01*
G02X516280Y1376590I-14244J-319865D01*
G03X527780Y1386660I1342J10069D01*
G01Y1548260D01*
X668220D01*
Y1377820D01*
X592190D01*
G03X588560Y1358170I1J-10161D01*
G02X633300Y1336910I-114638J-298952D01*
G01X634470Y1336240D01*
X765940D01*
Y1293740D01*
X792400D01*
X793500Y1292640D01*
X807520D01*
Y1350140D01*
X947960D01*
Y1179700D01*
X807520D01*
Y1237200D01*
X765940D01*
Y1195800D01*
X595500D01*
Y1294390D01*
G03X526660Y1318650I-121573J-235174D01*
G03X514480Y1308700I-2021J-9955D01*
G01Y1193260D01*
X344040D01*
Y1206330D01*
G03X325930Y1212650I-10159J-3D01*
G02X253630Y1259180I-33835J26863D01*
G03X244590Y1273960I-9047J4621D01*
G01X212080D01*
Y1223960D01*
X201570D01*
G03X191680Y1211510I7J-10159D01*
G03X239180Y1125910I173271J40170D01*
G01X326700Y1038390D01*
G03X344040Y1045570I7181J7185D01*
G01Y1153700D01*
X514480D01*
Y1013260D01*
X376350D01*
G03X369170Y995920I3J-10158D01*
G01X372640Y992440D01*
G02X386740Y975560I-87109J-87092D01*
G01X466220D01*
Y835120D01*
X295780D01*
Y975560D01*
X298860D01*
G03X302450Y984230I-4J5080D01*
G01X199980Y1086710D01*
G02X133860Y1219580I164967J164979D01*
G01X133250Y1223960D01*
X112080D01*
Y1130920D01*
G03X156970Y975560I291300J3D01*
G01X263020D01*
Y835120D01*
X92580D01*
Y977190D01*
X92060Y978250D01*
G02X78060Y1010930I311307J152702D01*
G03X58530Y1009190I-9529J-3518D01*
G02X53850Y988400I-228194J40447D01*
G03X59820Y976310I9800J-2680D01*
G01Y835120D01*
X-110620D01*
Y975560D01*
X-53120D01*
Y985330D01*
X-54750Y986840D01*
G02X-7690Y1057940I29351J31697D01*
G03X6640Y1067200I4169J9266D01*
G01Y1123960D01*
X-94840D01*
G02X-147740Y1032250I-197333J52713D01*
G01X-184540Y995440D01*
G03X-177360Y978100I7183J-7182D01*
G01X-168780D01*
Y837660D01*
X-339220D01*
Y978100D01*
X-266140D01*
G02X-233080Y1025310I150505J-70215D01*
G01X-186940Y1071450D01*
G03X-166860Y1096410I-105236J105218D01*
G03X-174350Y1103090I-4277J2743D01*
G02X-254240Y1074640I-79899J97969D01*
G01X-276860D01*
G03X-291950Y1068390I0J-21342D01*
G01X-687430Y672900D01*
G03X-687390Y658490I7181J-7185D01*
G02X-750500Y685250I-65187J-65937D01*
G02X-733690Y705050I129286J-92727D01*
G01X-619790Y818950D01*
G03X-632580Y834610I-7180J7189D01*
G02X-814810Y757280I-299606J452648D01*
G01X-816250Y756960D01*
X-932180Y641030D01*
X-1063310Y772160D01*
X-932180Y903290D01*
X-837970Y809070D01*
G03X-587550Y942630I-94213J478189D01*
G01X-373150Y1157030D01*
G03X-357920Y1193800I-36772J36770D01*
G02X-333640Y1252420I82910J-2D01*
G01X-332020Y1254040D01*
G02X-329630Y1256350I61355J-61089D01*
G03X-334630Y1273780I-6903J7452D01*
G01X-354400D01*
G03X-381040Y1247140I0J-26640D01*
G01Y1216410D01*
G02X-398000Y1175460I-57917J0D01*
G01X-420650Y1152810D01*
G02X-576380Y1067030I-225948J225948D01*
G01Y1001900D01*
X-716820D01*
Y1172340D01*
X-576380D01*
Y1138060D01*
G03X-564910Y1127990I10160J6D01*
G03X-460110Y1192270I-81695J250764D01*
G01X-437460Y1214920D01*
G03X-436840Y1216410I-1480J1490D01*
G01Y1247140D01*
G02X-410190Y1307830I82430J0D01*
G03X-418410Y1323960I-8222J5969D01*
G01X-457210D01*
G03X-469700Y1322070I5J-42245D01*
G01Y1212720D01*
X-610140D01*
Y1383160D01*
X-469700D01*
Y1378600D01*
G02X-457250Y1379400I12476J-96885D01*
G01X-293360D01*
Y1423960D01*
X-439450D01*
G02X-458270Y1425140I17J150942D01*
G03X-469660Y1415920I-1268J-10078D01*
G01X-610140D01*
Y1586360D01*
X-576400D01*
G03X-572810Y1595030I-5J5080D01*
G01X-580740Y1602960D01*
X-803860D01*
X-868780Y1538040D01*
X-868690Y1535820D01*
G02X-910200Y1577330I-43170J-1660D01*
G01X-907980Y1577240D01*
X-826820Y1658400D01*
X-557780D01*
X-512200Y1612820D01*
Y1586360D01*
X-469700D01*
Y1484330D01*
G03X-439420Y1479400I30287J90570D01*
G01X-293360D01*
Y1529400D01*
X-193360D01*
Y1626080D01*
G03X-195640Y1628360I-2280J0D01*
G01X-266700D01*
G02X-410150Y1713100I0J163788D01*
G01X-472980D01*
Y1883540D01*
X-332540D01*
Y1706100D01*
G03X-266700Y1683800I65840J86045D01*
G01X-195640D01*
G02X-159820Y1671340I0J-57718D01*
G03X-143360Y1679310I6300J7971D01*
G01Y1754630D01*
G03X-158680Y1763380I-10161J-3D01*
G02X-290920Y1838960I-44522J75580D01*
G01Y1967420D01*
G02X-288560Y1987620I87721J-11D01*
G01X-288420Y1988200D01*
Y2037620D01*
X-255770D01*
G02X-150630I52570J-70220D01*
G01X-117980D01*
Y1988200D01*
X-117840Y1987620D01*
G02X-115480Y1967420I-85361J-20211D01*
G01Y1851110D01*
G02X-111500Y1846340I-82337J-72746D01*
G03X-93360Y1852630I7980J6289D01*
G01Y1893340D01*
G02X-55160Y1985560I130420J-2D01*
G01X-12900Y2027820D01*
Y2137540D01*
X127540D01*
Y1967100D01*
X4780D01*
X-15960Y1946360D01*
G03X-37920Y1893340I53021J-53018D01*
G37*
G36*
G01X167460Y-1908580D02*
Y-1832230D01*
G03X148860Y-1826580I-10160J-5D01*
G02X60110Y-1886500I-117980J79060D01*
G01X56080Y-1887350D01*
Y-1947040D01*
X-76420D01*
Y-1982340D01*
X-37560D01*
Y-2152780D01*
X-178000D01*
Y-1982340D01*
X-131860D01*
Y-1947040D01*
X-264360D01*
Y-1776600D01*
X-221860D01*
Y-1728300D01*
G02X-134620Y-1641060I87240J0D01*
G01X15180D01*
G03X17460Y-1638780I0J2280D01*
G01Y-1544640D01*
X-74170D01*
G03X-102320Y-1556300I0J-39810D01*
G01X-167800Y-1621780D01*
G02X-314760Y-1703610I-217189J217174D01*
G01Y-1769240D01*
X-357260D01*
Y-1803620D01*
X-424280Y-1870640D01*
X-424190Y-1872860D01*
G02X-465700Y-1831350I-43170J-1660D01*
G01X-463480Y-1831440D01*
X-412700Y-1780660D01*
Y-1769240D01*
X-455200D01*
Y-1598800D01*
X-314760D01*
Y-1632370D01*
G03X-301220Y-1641950I10158J-1D01*
G03X-207000Y-1582580I-83749J237357D01*
G01X-141520Y-1517100D01*
G02X-136560Y-1512480I67359J-67344D01*
G03X-143210Y-1494640I-6651J7680D01*
G01X-218240D01*
Y-1563500D01*
X-358680D01*
Y-1394320D01*
G02X-386740Y-1391830I14244J319865D01*
G03X-398240Y-1401900I-1342J-10069D01*
G01Y-1563500D01*
X-538680D01*
Y-1393060D01*
X-462650D01*
G03X-459020Y-1373410I-1J10161D01*
G02X-503760Y-1352150I114638J298952D01*
G01X-504930Y-1351480D01*
X-636400D01*
Y-1308980D01*
X-662860D01*
X-663960Y-1307880D01*
X-677980D01*
Y-1365380D01*
X-818420D01*
Y-1194940D01*
X-677980D01*
Y-1252440D01*
X-636400D01*
Y-1211040D01*
X-465960D01*
Y-1309630D01*
G03X-397120Y-1333890I121573J235174D01*
G03X-384940Y-1323940I2021J9955D01*
G01Y-1208500D01*
X-214500D01*
Y-1222720D01*
G03X-198800Y-1231240I10161J-2D01*
G02X-133090Y-1276840I23541J-36222D01*
G03X-123170Y-1289200I9918J-2201D01*
G01X-82540D01*
Y-1239200D01*
X-72030D01*
G03X-62140Y-1226750I-7J10159D01*
G03X-109640Y-1141150I-173271J-40170D01*
G01X-197160Y-1053630D01*
G03X-214500Y-1060810I-7181J-7185D01*
G01Y-1168940D01*
X-384940D01*
Y-1028500D01*
X-246810D01*
G03X-239630Y-1011160I-3J10158D01*
G01X-243100Y-1007680D01*
G02X-257200Y-990800I87109J87092D01*
G01X-336680D01*
Y-850360D01*
X-166240D01*
Y-990800D01*
X-169320D01*
G03X-172910Y-999470I4J-5080D01*
G01X-70440Y-1101950D01*
G02X-4320Y-1234820I-164967J-164979D01*
G01X-3710Y-1239200D01*
X17460D01*
Y-1146160D01*
G03X-27430Y-990800I-291300J-3D01*
G01X-133480D01*
Y-850360D01*
X36960D01*
Y-992430D01*
X37480Y-993490D01*
G02X51480Y-1026170I-311307J-152702D01*
G03X71010Y-1024430I9529J3518D01*
G02X75690Y-1003640I228194J-40447D01*
G03X69720Y-991550I-9800J2680D01*
G01Y-850360D01*
X240160D01*
Y-990800D01*
X182660D01*
Y-1000570D01*
X184290Y-1002080D01*
G02X137230Y-1073180I-29351J-31697D01*
G03X122900Y-1082440I-4169J-9266D01*
G01Y-1139200D01*
X224380D01*
G02X277280Y-1047490I197333J-52713D01*
G01X314080Y-1010680D01*
G03X306900Y-993340I-7183J7182D01*
G01X298320D01*
Y-852900D01*
X468760D01*
Y-993340D01*
X395680D01*
G02X362620Y-1040550I-150505J70215D01*
G01X316480Y-1086690D01*
G03X296400Y-1111650I105236J-105218D01*
G03X303890Y-1118330I4277J-2743D01*
G02X383780Y-1089880I79899J-97969D01*
G01X406400D01*
G03X421490Y-1083630I0J21342D01*
G01X816970Y-688140D01*
G03X816930Y-673730I-7181J7185D01*
G02X880040Y-700490I65187J65937D01*
G02X863230Y-720290I-129286J92727D01*
G01X460690Y-1122830D01*
G02X406400Y-1145320I-54290J54282D01*
G01X383780D01*
G03X333590Y-1166110I1J-70981D01*
G03X322900Y-1191920I25813J-25810D01*
G01Y-1239200D01*
X383700D01*
X863220Y-759680D01*
X958310D01*
X1061720Y-656270D01*
X1192850Y-787400D01*
X1061720Y-918530D01*
X958310Y-815120D01*
X886180D01*
X427120Y-1274180D01*
X426750Y-1275360D01*
G02X426600Y-1275790I-26245J8914D01*
G03X434320Y-1289020I9627J-3250D01*
G01X483940D01*
G03X510580Y-1262380I0J26640D01*
G01Y-1231650D01*
G02X527540Y-1190700I57917J0D01*
G01X550190Y-1168050D01*
G02X705920Y-1082270I225948J-225948D01*
G01Y-1017140D01*
X846360D01*
Y-1187580D01*
X705920D01*
Y-1153300D01*
G03X694450Y-1143230I-10160J-6D01*
G03X589650Y-1207510I81695J-250764D01*
G01X567000Y-1230160D01*
G03X566380Y-1231650I1480J-1490D01*
G01Y-1262380D01*
G02X539730Y-1323070I-82430J0D01*
G03X547950Y-1339200I8222J-5969D01*
G01X586750D01*
G03X599240Y-1337310I-5J42245D01*
G01Y-1227960D01*
X739680D01*
Y-1398400D01*
X599240D01*
Y-1393840D01*
G02X586790Y-1394640I-12476J96885D01*
G01X422900D01*
Y-1439200D01*
X568990D01*
G02X587810Y-1440380I-17J-150942D01*
G03X599200Y-1431160I1268J10078D01*
G01X739680D01*
Y-1601600D01*
X705940D01*
G03X702350Y-1610270I5J-5080D01*
G01X710280Y-1618200D01*
X933400D01*
X998320Y-1553280D01*
X998230Y-1551060D01*
G02X1039740Y-1592570I43170J1660D01*
G01X1037520Y-1592480D01*
X956360Y-1673640D01*
X687320D01*
X641740Y-1628060D01*
Y-1601600D01*
X599240D01*
Y-1499570D01*
G03X568960Y-1494640I-30287J-90570D01*
G01X422900D01*
Y-1544640D01*
X322900D01*
Y-1641320D01*
G03X325180Y-1643600I2280J0D01*
G01X396240D01*
G02X539690Y-1728340I0J-163788D01*
G01X602520D01*
Y-1898780D01*
X462080D01*
Y-1721340D01*
G03X396240Y-1699040I-65840J-86045D01*
G01X325180D01*
G02X289360Y-1686580I0J57718D01*
G03X272900Y-1694550I-6300J-7971D01*
G01Y-1769870D01*
G03X288220Y-1778620I10161J3D01*
G02X420460Y-1854200I44522J-75580D01*
G01Y-1982660D01*
G02X418100Y-2002860I-87721J11D01*
G01X417960Y-2003440D01*
Y-2052860D01*
X385310D01*
G02X280170I-52570J70220D01*
G01X247520D01*
Y-2003440D01*
X247380Y-2002860D01*
G02X245020Y-1982660I85361J20211D01*
G01Y-1866350D01*
G02X241040Y-1861580I82337J72746D01*
G03X222900Y-1867870I-7980J-6289D01*
G01Y-1908580D01*
G02X184700Y-2000800I-130420J2D01*
G01X142440Y-2043060D01*
Y-2152780D01*
X2000D01*
Y-1982340D01*
X124760D01*
X145500Y-1961600D01*
G03X167460Y-1908580I-53021J53018D01*
G37*
G36*
G01X-652980Y1713100D02*
Y1735600D01*
X-738940D01*
Y1713100D01*
X-879380D01*
Y1883540D01*
X-738940D01*
Y1861040D01*
X-652980D01*
Y1883540D01*
X-512540D01*
Y1713100D01*
X-652980D01*
G37*
G36*
G01X-1047260Y1998120D02*
Y1945120D01*
X-985680Y1883540D01*
X-918940D01*
Y1713100D01*
X-1059380D01*
Y1735600D01*
X-1152960D01*
Y1713100D01*
X-1293400D01*
Y1883540D01*
X-1234280D01*
X-1172700Y1945120D01*
Y1998120D01*
G02X-1150790Y2045750I62726J0D01*
G02X-1069170I40810J-12630D01*
G02X-1047260Y1998120I-40816J-47630D01*
G37*
G36*
G01X-1790990Y1861040D02*
X-1473400D01*
Y1883540D01*
X-1332960D01*
Y1713100D01*
X-1473400D01*
Y1735600D01*
X-1790990D01*
G02Y1861040I-68290J62720D01*
G37*
G36*
G01X823070Y1513620D02*
X865940D01*
Y1604140D01*
X1006380D01*
Y1433700D01*
X865940D01*
Y1458180D01*
X823070D01*
G02Y1513620I-33130J27720D01*
G37*
G36*
G01X807520Y1113740D02*
Y1116460D01*
X947960D01*
Y946020D01*
X807520D01*
Y1058300D01*
X765940D01*
Y1015800D01*
X595500D01*
Y1156240D01*
X765940D01*
Y1113740D01*
X807520D01*
G37*
G36*
G01X1119260Y796900D02*
X1170240D01*
Y686460D01*
X1119260D01*
G02X1089520Y678960I-29740J55215D01*
G01X906980D01*
Y638680D01*
X766540D01*
Y809120D01*
X906980D01*
Y804400D01*
X1089520D01*
G02X1119260Y796900I0J-62715D01*
G37*
G36*
G01X466220Y788060D02*
X516220D01*
G02X529060Y786730I-8J-62721D01*
G01X529570Y786620D01*
X586540D01*
Y809120D01*
X726980D01*
Y638680D01*
X586540D01*
Y661180D01*
X517620D01*
G02X504780Y662510I8J62721D01*
G01X504270Y662620D01*
X466220D01*
Y655120D01*
X295780D01*
Y795560D01*
X466220D01*
Y788060D01*
G37*
G36*
G01X1119260Y542900D02*
X1170240D01*
Y432460D01*
X1119260D01*
G02X1089520Y424960I-29740J55215D01*
G01X906980D01*
Y420240D01*
X766540D01*
Y590680D01*
X906980D01*
Y550400D01*
X1089520D01*
G02X1119260Y542900I0J-62715D01*
G37*
G36*
G01X120530Y655120D02*
X92580D01*
Y795560D01*
X263020D01*
Y654170D01*
G03X258450Y639990I4289J-9209D01*
G03X381000Y568180I122550J68666D01*
G01X586540D01*
Y590680D01*
X726980D01*
Y420240D01*
X586540D01*
Y442740D01*
X381000D01*
G02X120530Y655120I0J265915D01*
G37*
G36*
G01X832400Y143800D02*
X831040Y145160D01*
X797760D01*
Y97660D01*
X657320D01*
Y268100D01*
X797760D01*
Y220600D01*
X862280D01*
X863640Y219240D01*
X873000D01*
Y241740D01*
X983440D01*
Y121300D01*
X873000D01*
Y143800D01*
X832400D01*
G37*
G36*
G01X-1753040Y-233500D02*
X-2115070D01*
X-2115420Y-233550D01*
G02X-2210770Y-42210I-15645J111631D01*
G01X-2176610Y-8060D01*
X-1753040D01*
G02X-1657750Y-60560I0J-112728D01*
G01X-1632820D01*
Y-181000D01*
X-1657750D01*
G02X-1753040Y-233500I-95290J60228D01*
G37*
G36*
G01X470590Y-58200D02*
X416560D01*
G02X232810Y89090I0J188263D01*
G01X231930Y93060D01*
X90800D01*
Y268500D01*
X153300D01*
Y340360D01*
G03X107680Y450500I-155765J0D01*
G01X107400Y450780D01*
G03X-2740Y496400I-110138J-110141D01*
G01X-65720D01*
G02X-219840Y560240I2J217959D01*
G01X-224000Y564400D01*
G02X-280800Y657660I163475J163491D01*
G01X-339220D01*
Y798100D01*
X-168780D01*
Y657660D01*
X-181920D01*
G03X-190390Y641890I0J-10159D01*
G03X-170660Y617740I129883J85977D01*
G01X-166500Y613580D01*
G03X-65730Y571840I100774J100781D01*
G01X-2740D01*
G02X160740Y504120I-6J-231199D01*
G01X161020Y503840D01*
G02X228740Y340360I-163465J-163480D01*
G01Y268500D01*
X356240D01*
Y218500D01*
X365600D01*
X367700Y220600D01*
X477320D01*
Y268100D01*
X617760D01*
Y97660D01*
X477320D01*
Y145160D01*
X398940D01*
X396840Y143060D01*
X356240D01*
Y93060D01*
X303320D01*
G03X293950Y78990I7J-10160D01*
G03X416560Y-2760I122610J51071D01*
G01X470590D01*
G02X545380Y-33740I-1J-105769D01*
G02X612760Y-149660I-185167J-185174D01*
G01X679580D01*
Y-290100D01*
X509140D01*
Y-149660D01*
X539700D01*
G03X548990Y-135390I-1J10160D01*
G03X506180Y-72940I-188783J-83514D01*
G03X470590Y-58200I-35588J-35590D01*
G37*
G36*
G01X873000Y41260D02*
Y71740D01*
X910670D01*
X911350Y71930D01*
G02X945090I16870J-60410D01*
G01X945770Y71740D01*
X983440D01*
Y41260D01*
G02X990940Y11520I-55215J-29740D01*
G01Y-189380D01*
G02X972570Y-233730I-62721J0D01*
G01X743700Y-462600D01*
X679580D01*
Y-470100D01*
X509140D01*
Y-329660D01*
X679580D01*
Y-337160D01*
X691740D01*
X865500Y-163400D01*
Y11520D01*
G02X873000Y41260I62715J0D01*
G37*
G36*
G01X-989720Y-558140D02*
X-1040700D01*
Y-447700D01*
X-989720D01*
G02X-959980Y-440200I29740J-55215D01*
G01X-777440D01*
Y-435480D01*
X-637000D01*
Y-605920D01*
X-777440D01*
Y-565640D01*
X-959980D01*
G02X-989720Y-558140I0J62715D01*
G37*
G36*
G01X-128910Y-655230D02*
G03X-251460Y-583420I-122550J-68666D01*
G01X-457000D01*
Y-605920D01*
X-597440D01*
Y-435480D01*
X-457000D01*
Y-457980D01*
X-251460D01*
G02X9010Y-670360I0J-265915D01*
G01X36960D01*
Y-810800D01*
X-133480D01*
Y-669410D01*
G03X-128910Y-655230I-4289J9209D01*
G37*
G36*
G01X163300Y-537850D02*
Y-486940D01*
X90800D01*
Y-311500D01*
X356240D01*
Y-385690D01*
X356540Y-386520D01*
G02X358740Y-399210I-35521J-12694D01*
G01Y-436100D01*
X421260Y-498620D01*
Y-672900D01*
X468760D01*
Y-813340D01*
X298320D01*
Y-672900D01*
X345820D01*
Y-529860D01*
X302900Y-486940D01*
X218740D01*
Y-537850D01*
G02X163300I-27720J-33130D01*
G37*
G36*
G01X-336680Y-810800D02*
Y-799210D01*
G03X-352590Y-790840I-10160J-5D01*
G02X-388100Y-801860I-35510J51702D01*
G01X-457000D01*
Y-824360D01*
X-597440D01*
Y-653920D01*
X-457000D01*
Y-676420D01*
X-388100D01*
G02X-352590Y-687440I0J-62722D01*
G03X-336680Y-679070I5750J8375D01*
G01Y-670360D01*
X-166240D01*
Y-810800D01*
X-336680D01*
G37*
G36*
G01X-989720Y-812140D02*
X-1040700D01*
Y-701700D01*
X-989720D01*
G02X-959980Y-694200I29740J-55215D01*
G01X-777440D01*
Y-653920D01*
X-637000D01*
Y-824360D01*
X-777440D01*
Y-819640D01*
X-959980D01*
G02X-989720Y-812140I0J62715D01*
G37*
G36*
G01X-636400Y-1073540D02*
Y-1031040D01*
X-465960D01*
Y-1171480D01*
X-636400D01*
Y-1128980D01*
X-677980D01*
Y-1131700D01*
X-818420D01*
Y-961260D01*
X-677980D01*
Y-1073540D01*
X-636400D01*
G37*
G36*
G01X-685910Y-1541560D02*
X-736400D01*
Y-1619380D01*
X-876840D01*
Y-1448940D01*
X-736400D01*
Y-1486120D01*
X-685910D01*
G02Y-1541560I33130J-27720D01*
G37*
G36*
G01X868480Y-1898780D02*
Y-1876280D01*
X782520D01*
Y-1898780D01*
X642080D01*
Y-1728340D01*
X782520D01*
Y-1750840D01*
X868480D01*
Y-1728340D01*
X1008920D01*
Y-1898780D01*
X868480D01*
G37*
G36*
G01X1920530Y-1876280D02*
X1602940D01*
Y-1898780D01*
X1462500D01*
Y-1728340D01*
X1602940D01*
Y-1750840D01*
X1920530D01*
G02Y-1876280I68290J-62720D01*
G37*
G36*
G01X1198710Y-2060990D02*
G02X1176800Y-2013360I40816J47630D01*
G01Y-1960360D01*
X1115220Y-1898780D01*
X1048480D01*
Y-1728340D01*
X1188920D01*
Y-1750840D01*
X1282500D01*
Y-1728340D01*
X1422940D01*
Y-1898780D01*
X1363820D01*
X1302240Y-1960360D01*
Y-2013360D01*
G02X1280330Y-2060990I-62726J0D01*
G02X1198710I-40810J12630D01*
G37*
G36*
G01X-1747760Y-799430D02*
G02X-1746230Y-712190I-81039J45055D01*
G03X-1729710Y-714450I9047J4622D01*
G02X-1683560Y-694200I46150J-42463D01*
G01X-1340700D01*
Y-574700D01*
X-1179260D01*
Y-685140D01*
X-1252900D01*
Y-694460D01*
X-1248730Y-695220D01*
G02X-1230240Y-701700I-11244J-61703D01*
G01X-1179260D01*
Y-812140D01*
X-1230240D01*
G02X-1259980Y-819640I-29740J55215D01*
G01X-1683560D01*
G02X-1731170Y-797750I0J62720D01*
G03X-1747760Y-799430I-7710J-6616D01*
G37*
G36*
G01X1389520Y804400D02*
X1813100D01*
G02X1830110Y802050I2J-62720D01*
G01X1830780Y801860D01*
X1890050D01*
G02Y676420I68290J-62720D01*
G01X1815640D01*
G02X1798630Y678770I-2J62720D01*
G01X1797960Y678960D01*
X1470240D01*
Y559460D01*
X1308800D01*
Y669900D01*
X1382440D01*
Y679220D01*
X1378270Y679980D01*
G02X1359780Y686460I11244J61703D01*
G01X1308800D01*
Y796900D01*
X1359780D01*
G02X1389520Y804400I29740J-55215D01*
G37*
G36*
G01X-1472090Y854410D02*
X-1060320Y442630D01*
Y284440D01*
X-1052820D01*
Y181940D01*
X-1022960D01*
X-1021860Y183040D01*
X-323240D01*
Y301160D01*
G02X-197800I62720J0D01*
G01Y147120D01*
G02X-260520Y37600I-62720J-36801D01*
G01X-980250D01*
X-980670Y37530D01*
G02X-992840Y36500I-12196J71688D01*
G01X-1052820D01*
Y-66000D01*
X-1293260D01*
Y46500D01*
X-1753050D01*
G02X-1769910Y48810I5J62721D01*
G01X-1770590Y49000D01*
X-1873260D01*
Y169440D01*
X-1770590D01*
X-1769910Y169630D01*
G02X-1753050Y171940I16865J-60411D01*
G01X-1293260D01*
Y284440D01*
X-1285760D01*
Y349250D01*
X-1631510Y694990D01*
G02X-1472090Y854410I79710J79710D01*
G37*
G54D43*
X1068220Y11520D03*
Y181520D03*
G54D38*
X-1753040Y339220D03*
G54D40*
X-1259980Y-502920D03*
X1389520Y487680D03*
G54D35*
X1910080Y226760D03*
Y-1273240D03*
G54D42*
X-789940Y-69680D03*
X-513080D03*
X-203200Y2147400D03*
X-25400Y725340D03*
X154940Y-740580D03*
X332740Y-2162640D03*
G54D41*
X-986620Y-1534160D03*
X-928200Y-1046480D03*
X-826600Y1087120D03*
X-719920Y1297940D03*
Y1501140D03*
X-564980Y-1684020D03*
X694520Y1668780D03*
X849460Y-1516380D03*
Y-1313180D03*
X956140Y-1102360D03*
X1057740Y1031240D03*
Y1264920D03*
X1116160Y1518920D03*
G54D39*
X-1851800Y774700D03*
G54D37*
X-2019300Y-944880D03*
Y-563880D03*
X-2049780Y1607820D03*
Y1988820D03*
X-1668780Y1607820D03*
Y1988820D03*
X-1638300Y-944880D03*
Y-563880D03*
X1767840Y548640D03*
Y929640D03*
X1798320Y-2004060D03*
Y-1623060D03*
X2179320Y-2004060D03*
Y-1623060D03*
X2148840Y548640D03*
Y929640D03*
G54D36*
X-2131060Y132080D03*
%LPD*%
G75*
G54D10*
X-2131060Y-121920D03*
X-2019300Y-944880D03*
Y-563880D03*
X-2049780Y1607820D03*
Y1988820D03*
X-1828800Y-754380D03*
X-1859280Y1798320D03*
X-1668780Y1607820D03*
Y1988820D03*
X-1638300Y-944880D03*
Y-563880D03*
X-752570Y592550D03*
X-40640Y1376680D03*
X170180Y-1391920D03*
X882110Y-607790D03*
X1767840Y548640D03*
Y929640D03*
X1798320Y-2004060D03*
Y-1623060D03*
X1988820Y-1813560D03*
X1958340Y739140D03*
X2179320Y-2004060D03*
Y-1623060D03*
X2148840Y548640D03*
Y929640D03*
G54D11*
X-2131060Y132080D03*
G54D20*
X-911860Y1534160D03*
X-652780Y-1513840D03*
X-467360Y-1874520D03*
X-260520Y110320D03*
Y301160D03*
X-203200Y1838960D03*
X-175260Y-1267460D03*
X-25400Y1018540D03*
X154940Y-1033780D03*
X191020Y-570980D03*
X332740Y-1854200D03*
X292100Y1239520D03*
X596900Y1859280D03*
X789940Y1485900D03*
X928220Y-189380D03*
X1041400Y-1549400D03*
G54D30*
G01X-1683560Y-756920D02*
X-1828800D01*
Y-754380D01*
G01X-929640Y-1419860D02*
X-928200Y-1418420D01*
G01D02*
Y-1280160D01*
G01D02*
Y-1167300D01*
G01D02*
X-929640Y-1165860D01*
G01X-932180Y772160D02*
G03X-567950Y923030I-2J515100D01*
G01X-353550Y1137430D01*
G03X-330200Y1193800I-56367J56370D01*
G02X-314040Y1232820I55190J0D01*
G01X-312420Y1234440D01*
G02X-270800Y1251680I41621J-41620D01*
G01X-240640D01*
G01X-911860Y1534160D02*
X-815340Y1630680D01*
X-569260D01*
X-539920Y1601340D01*
Y1501140D01*
G01X-652780Y-1513840D02*
X-786300D01*
X-806620Y-1534160D01*
G01X-551180Y-1281260D02*
X-651380D01*
X-652480Y-1280160D01*
X-748200D01*
G01X-551180Y-1101260D02*
X-693420D01*
X-748200Y-1046480D01*
G01X-752570Y592550D02*
G02X-714090Y685450I131380J1D01*
G01X-311550Y1087990D01*
G02X-276860Y1102360I34690J-34687D01*
G01X-254240D01*
G03X-184450Y1131270I-3J98700D01*
G03X-165640Y1176680I-45408J45410D01*
G01X-240640Y1301680D02*
X-354400D01*
G03X-408940Y1247140I0J-54540D01*
G01Y1216410D01*
G02X-417730Y1195190I-30009J0D01*
G01X-440380Y1172540D01*
G02X-646600Y1087120I-206220J206217D01*
G01X-384980Y-1684020D02*
Y-1792140D01*
X-467360Y-1874520D01*
G01X-29820Y-1366920D02*
X-344380D01*
G02X-551180Y-1281260I1J292460D01*
G01X-388100Y-739140D02*
X-251460D01*
Y-740580D01*
G01X-539920Y1297940D02*
X-506670Y1331190D01*
G02X-457200Y1351680I49470J-49474D01*
G01X-240640D01*
G01X-539920Y1501140D02*
X-526550Y1487770D01*
G03X-439420Y1451680I87130J87131D01*
G01X-240640D01*
G01X-384980Y-1684020D02*
G03X-187400Y-1602180I0J279420D01*
G01X-121920Y-1536700D01*
G02X-74170Y-1516920I47752J-47750D01*
G01X-29820D01*
G01X-402760Y1798320D02*
Y1792140D01*
G03X-266700Y1656080I136060J0D01*
G01X-195640D01*
G02X-165640Y1626080I0J-30000D01*
G01Y1576680D01*
G01X-29820Y-1466920D02*
X-261030D01*
G03X-288460Y-1478280I-3J-38790D01*
G01X-207500Y-1316920D02*
G02X-299720Y-1278720I2J130420D01*
G01X-251460Y-920580D02*
G03X-223500Y-988080I95460J1D01*
G01X-90040Y-1121550D01*
G02X-29820Y-1266920I-145367J-145377D01*
G01X-254000Y907880D02*
G02X-213480Y1005710I138360J-1D01*
G01X-167340Y1051850D01*
G03X-115640Y1176680I-124833J124822D01*
G01X-194140Y-1861820D02*
Y-1728300D01*
G02X-134620Y-1668780I59520J0D01*
G01X15180D01*
G03X45180Y-1638780I0J30000D01*
G01Y-1591920D01*
G01X-29820Y-1316920D02*
X-207500D01*
G01D02*
Y-1299700D01*
X-175260Y-1267460D01*
G01X-203200Y1967400D02*
G03X-155480Y1852210I162907J8D01*
G01X-139700Y1836420D01*
G02X-115640Y1778330I-58090J-58087D01*
G01Y1576680D01*
G01X95180Y-1591920D02*
Y-1663700D01*
G02X34220Y-1724660I-60960J0D01*
G01X-56560D01*
G03X-83650Y-1735880I0J-38314D01*
G03X-104140Y-1785350I49474J-49470D01*
G01Y-2067560D01*
X-107780D01*
G01X-29820Y-1416920D02*
X37480D01*
X62480Y-1391920D01*
X170180D01*
G01X45180Y-1191920D02*
Y-1146160D01*
G03X-48260Y-920580I-319020J-2D01*
G01X34360Y1176680D02*
Y1049610D01*
G02X-25400Y905340I-204030J2D01*
G01D02*
Y1018540D01*
G01X159360Y1401680D02*
X-15640D01*
X-40640Y1376680D01*
G01X57320Y2052320D02*
X47540D01*
Y2055580D01*
X54060D01*
X-35560Y1965960D01*
G03X-65640Y1893340I72620J-72620D01*
G01Y1576680D01*
G01X143680Y1846580D02*
X98660D01*
G03X-15640Y1732280I0J-114300D01*
G01Y1576680D01*
G01X72220Y-2067560D02*
X82000D01*
Y-2070820D01*
X75480D01*
X165100Y-1981200D01*
G03X195180Y-1908580I-72620J72620D01*
G01Y-1591920D01*
G01X-14140Y-1861820D02*
X30880D01*
G03X145180Y-1747520I0J114300D01*
G01Y-1591920D01*
G01X95180Y-1191920D02*
Y-1064850D01*
G02X154940Y-920580I204030J-2D01*
G01X84360Y1176680D02*
Y1130920D01*
G03X177800Y905340I319020J2D01*
G01X323680Y1846580D02*
Y1713060D01*
G02X264160Y1653540I-59520J0D01*
G01X114360D01*
G03X84360Y1623540I0J-30000D01*
G01Y1576680D01*
G01X34360D02*
Y1648460D01*
G02X95320Y1709420I60960J0D01*
G01X186100D01*
G03X213190Y1720640I0J38314D01*
G03X233680Y1770110I-49474J49470D01*
G01Y2052320D01*
X237320D01*
G01X154940Y-920580D02*
Y-1033780D01*
G01X191020Y-399220D02*
Y-570980D01*
G01X381000Y905340D02*
G03X353040Y972840I-95460J-1D01*
G01X219580Y1106310D01*
G02X159360Y1251680I145367J145377D01*
G01Y1301680D02*
X337040D01*
G02X429260Y1263480I-2J-130420D01*
G01X159360Y1351680D02*
X473920D01*
G02X680720Y1266020I-1J-292460D01*
G01X159360Y1451680D02*
X390570D01*
G03X418000Y1463040I3J38790D01*
G01X514520Y1668780D02*
G03X316940Y1586940I0J-279420D01*
G01X251460Y1521460D01*
G02X203710Y1501680I-47752J47750D01*
G01X159360D01*
G01X332740Y-1982640D02*
G03X285020Y-1867450I-162907J-8D01*
G01X269240Y-1851660D01*
G02X245180Y-1793570I58090J58087D01*
G01Y-1591920D01*
G01X532300Y-1813560D02*
Y-1807380D01*
G03X396240Y-1671320I-136060J0D01*
G01X325180D01*
G02X295180Y-1641320I0J30000D01*
G01Y-1591920D01*
G01X383540Y-923120D02*
G02X343020Y-1020950I-138360J1D01*
G01X296880Y-1067090D01*
G03X245180Y-1191920I124833J-124822D01*
G01X882110Y-607790D02*
G02X843630Y-700690I-131380J-1D01*
G01X441090Y-1103230D01*
G02X406400Y-1117600I-34690J34687D01*
G01X383780D01*
G03X313990Y-1146510I3J-98700D01*
G03X295180Y-1191920I45408J-45410D01*
G01X594360Y-219880D02*
Y-218910D01*
G03X525780Y-53340I-234150J2D01*
G03X470590Y-30480I-55189J-55190D01*
G01X416560D01*
G02X256020Y130060I0J160540D01*
G01Y180780D01*
G01X429260Y1263480D02*
X316060D01*
X292100Y1239520D01*
G01X669460Y-1516380D02*
X656090Y-1503010D01*
G03X568960Y-1466920I-87130J-87131D01*
G01X370180D01*
G01X669460Y-1313180D02*
X636210Y-1346430D01*
G02X586740Y-1366920I-49470J49474D01*
G01X370180D01*
G01Y-1316920D02*
X483940D01*
G03X538480Y-1262380I0J54540D01*
G01Y-1231650D01*
G02X547270Y-1210430I30009J0D01*
G01X569920Y-1187780D01*
G02X776140Y-1102360I206220J-206217D01*
G01X395180Y-1266920D02*
X370180D01*
G01X400340D02*
X395180D01*
G01X1061720Y-787400D02*
X874700D01*
X395180Y-1266920D01*
G01X516200Y725340D02*
X656760D01*
G01X517640Y723900D02*
X381000D01*
Y725340D01*
G01X514520Y1668780D02*
Y1776900D01*
X596900Y1859280D01*
G01X1041400Y-1549400D02*
X944880Y-1645920D01*
X698800D01*
X669460Y-1616580D01*
Y-1516380D01*
G01X680720Y1086020D02*
X822960D01*
X877740Y1031240D01*
G01X782020Y1264920D02*
X780920Y1266020D01*
X680720D01*
G01X782020Y1264920D02*
X680720D01*
G01X877740D02*
X782020D01*
G01X789940Y1485900D02*
X903140D01*
X936160Y1518920D01*
G01X1815640Y739140D02*
X1389520D01*
G01X1813100Y741680D02*
X1958340D01*
Y739140D01*
G54D21*
X-789940Y-69680D03*
Y110320D03*
X-551180Y-1281260D03*
Y-1101260D03*
X-513080Y-69680D03*
Y110320D03*
X-299720Y-1278720D03*
Y-1098720D03*
X-251460Y-920580D03*
Y-740580D03*
X-254000Y727880D03*
Y907880D03*
X-203200Y1967400D03*
Y2147400D03*
X-48260Y-920580D03*
Y-740580D03*
X-25400Y725340D03*
Y905340D03*
X154940Y-920580D03*
Y-740580D03*
X177800Y725340D03*
Y905340D03*
X332740Y-2162640D03*
Y-1982640D03*
X383540Y-923120D03*
Y-743120D03*
X381000Y725340D03*
Y905340D03*
X429260Y1083480D03*
Y1263480D03*
X594360Y-399880D03*
Y-219880D03*
X680720Y1086020D03*
Y1266020D03*
G54D12*
X-1753040Y-120780D03*
Y109220D03*
Y339220D03*
G54D31*
G01X-254000Y727880D02*
G03X-197330Y591070I193480J2D01*
G01X-193170Y586910D01*
G03X-65720Y534120I127448J127450D01*
G01X-2740D01*
G02X134070Y477450I-2J-193480D01*
G01X134350Y477170D01*
G02X191020Y340360I-136805J-136810D01*
G01Y180780D01*
G01X383540Y-743120D02*
Y-514240D01*
X321020Y-451720D01*
Y-399220D01*
G01X547540Y182880D02*
X383320D01*
X381220Y180780D01*
X321020D01*
G01X727540Y182880D02*
X846660D01*
X848020Y181520D01*
X928220D01*
G54D13*
G01X-992840Y109220D02*
X-1173040D01*
G01X-925140Y110320D02*
X-991740D01*
X-992840Y109220D01*
G01X-789940Y110320D02*
X-925140D01*
G01X-513080D02*
X-789940D01*
G01X-513080D02*
X-260520D01*
X-1851800Y774700D03*
G54D22*
X-240640Y1251680D03*
Y1301680D03*
Y1351680D03*
Y1401680D03*
Y1451680D03*
Y1501680D03*
X-29820Y-1516920D03*
Y-1466920D03*
Y-1416920D03*
Y-1366920D03*
Y-1316920D03*
Y-1266920D03*
X159360Y1251680D03*
Y1351680D03*
Y1301680D03*
Y1451680D03*
Y1401680D03*
Y1501680D03*
X370180Y-1516920D03*
Y-1366920D03*
Y-1416920D03*
Y-1466920D03*
Y-1266920D03*
Y-1316920D03*
G54D32*
G01X-2199640Y-1419860D02*
X-2252980Y-1366520D01*
Y-1158240D01*
G01X-2181860Y-1367460D02*
X-2140740Y-1326340D01*
G01X-2181860Y-1191260D02*
Y-1367460D01*
G01D02*
X-2194560Y-1380160D01*
Y-1414780D01*
G01D02*
X-2199640Y-1419860D01*
G01X-2123440Y-1309040D02*
X-2140740Y-1326340D01*
G01X-2123440Y-1309040D02*
X-2094560Y-1280160D01*
X-928200D01*
G01X-2123440Y-1165860D02*
Y-1309040D01*
G01X-1041400Y-1358900D02*
X-1073960Y-1326340D01*
X-2140740D01*
G01X-1403180Y1798320D02*
X-1859280D01*
G01X-1259980Y-756920D02*
X-1683560D01*
G01X-1173040Y109220D02*
X-1753040D01*
G01X-1223180Y1798320D02*
Y1805940D01*
X-1109980Y1919140D01*
G01X-1223180Y1798320D02*
X-989160D01*
G01X-1109980Y1919140D02*
X-989160Y1798320D01*
G01X-1109980Y1998120D02*
Y1919140D01*
G01X-959980Y-756920D02*
X-725000D01*
X-707220Y-739140D01*
G01X-959980Y-502920D02*
X-725000D01*
X-707220Y-520700D01*
G01X-992840Y109220D02*
X-926240D01*
X-925140Y110320D01*
G01X-809160Y1798320D02*
X-582760D01*
G01X-527220Y-739140D02*
X-388100D01*
G01X-48260Y-740580D02*
Y-723900D01*
G03X-251460Y-520700I-203200J0D01*
G01X-527220D01*
G01X-260520Y110320D02*
Y301160D01*
G01X177800Y725340D02*
Y708660D01*
G03X381000Y505460I203200J0D01*
G01X656760D01*
G01X381000Y725340D02*
X516200D01*
G01X656760Y723900D02*
X517640D01*
G01X594360Y-399880D02*
X717720D01*
X928220Y-189380D01*
G01X938700Y-1813560D02*
X712300D01*
G01X1089520Y487680D02*
X854540D01*
X836760Y505460D01*
G01X1089520Y741680D02*
X854540D01*
X836760Y723900D01*
G01X928220Y-189380D02*
Y11520D01*
G01X1352720Y-1813560D02*
X1118700D01*
G01D02*
X1239520Y-1934380D01*
G01D02*
Y-2013360D01*
G01Y-1934380D02*
X1352720Y-1821180D01*
Y-1813560D01*
G01X1958340Y739140D02*
X1815640D01*
G01X1389520Y741680D02*
X1813100D01*
G01X1532720Y-1813560D02*
X1988820D01*
G54D23*
X-40640Y1376680D03*
G54D14*
X-1551800Y774700D03*
G54D33*
G01X-1753040Y-120780D02*
X-2129920D01*
X-2131060Y-121920D01*
G01X-1173040Y109220D02*
Y395940D01*
X-1551800Y774700D01*
G54D15*
X-1403180Y1798320D03*
X-1223180D03*
X-986620Y-1534160D03*
X-928200Y-1280160D03*
Y-1046480D03*
X-989160Y1798320D03*
X-806620Y-1534160D03*
X-826600Y1087120D03*
X-809160Y1798320D03*
X-748200Y-1280160D03*
Y-1046480D03*
X-707220Y-739140D03*
Y-520700D03*
X-719920Y1297940D03*
Y1501140D03*
X-564980Y-1684020D03*
X-646600Y1087120D03*
X-582760Y1798320D03*
X-468460Y-1478280D03*
X-527220Y-739140D03*
Y-520700D03*
X-539920Y1297940D03*
Y1501140D03*
X-384980Y-1684020D03*
X-402760Y1798320D03*
X-288460Y-1478280D03*
X-107780Y-2067560D03*
X-194140Y-1861820D03*
X-14140D03*
X72220Y-2067560D03*
X57320Y2052320D03*
X143680Y1846580D03*
X237320Y2052320D03*
X323680Y1846580D03*
X418000Y1463040D03*
X532300Y-1813560D03*
X547540Y182880D03*
X514520Y1668780D03*
X669460Y-1516380D03*
Y-1313180D03*
X656760Y505460D03*
Y723900D03*
X598000Y1463040D03*
X694520Y1668780D03*
X712300Y-1813560D03*
X776140Y-1102360D03*
X727540Y182880D03*
X938700Y-1813560D03*
X849460Y-1516380D03*
Y-1313180D03*
X836760Y505460D03*
Y723900D03*
X877740Y1031240D03*
Y1264920D03*
X936160Y1518920D03*
X956140Y-1102360D03*
X1118700Y-1813560D03*
X1057740Y1031240D03*
Y1264920D03*
X1116160Y1518920D03*
X1352720Y-1813560D03*
X1532720D03*
G54D24*
X-165640Y1176680D03*
Y1576680D03*
X-15640Y1176680D03*
X-65640D03*
X-115640D03*
Y1576680D03*
X-65640D03*
X-15640D03*
X95180Y-1591920D03*
X45180D03*
Y-1191920D03*
X95180D03*
X84360Y1176680D03*
X34360D03*
Y1576680D03*
X84360D03*
X195180Y-1591920D03*
X145180D03*
Y-1191920D03*
X195180D03*
X295180Y-1591920D03*
X245180D03*
Y-1191920D03*
X295180D03*
G54D34*
G01X-203200Y1967400D02*
Y1838960D01*
G01X332740Y-1982640D02*
Y-1854200D01*
G54D25*
X170180Y-1391920D03*
G54D16*
X-1259980Y-756920D03*
Y-629920D03*
Y-502920D03*
X-959980Y-756920D03*
Y-502920D03*
X1089520Y487680D03*
Y741680D03*
X1389520Y487680D03*
Y614680D03*
Y741680D03*
G54D17*
X-1173040Y109220D03*
G54D26*
X191020Y-399220D03*
X126020D03*
Y180780D03*
X191020D03*
X321020Y-399220D03*
X256020D03*
Y180780D03*
X321020D03*
G54D27*
X928220Y11520D03*
Y181520D03*
X1068220Y11520D03*
Y181520D03*
G54D18*
X-1204980Y2208120D03*
X-1109980Y1998120D03*
X-1014980Y2208120D03*
X1144520Y-2223360D03*
X1239520Y-2013360D03*
X1334520Y-2223360D03*
G54D19*
X-932180Y772160D03*
X1061720Y-787400D03*
G54D28*
X1910080Y-1273240D03*
Y226760D03*
G54D29*
G01X-2228860Y132080D02*
X-2131060D01*
G01X-2117100Y-944880D02*
X-2019300D01*
G01X-2117100Y-563880D02*
X-2019300D01*
G01X-2131060Y34280D02*
Y132080D01*
G01D02*
Y229880D01*
G01Y132080D02*
X-2033260D01*
G01X-2147580Y1607820D02*
X-2049780D01*
G01X-2147580Y1988820D02*
X-2049780D01*
G01X-2019300Y-1042680D02*
Y-944880D01*
G01D02*
Y-847080D01*
G01Y-944880D02*
X-1921500D01*
G01X-2019300Y-661680D02*
Y-563880D01*
G01D02*
Y-466080D01*
G01Y-563880D02*
X-1921500D01*
G01X-2049780Y1510020D02*
Y1607820D01*
G01D02*
Y1705620D01*
G01Y1607820D02*
X-1951980D01*
G01X-2049780Y1891020D02*
Y1988820D01*
G01D02*
Y2086620D01*
G01Y1988820D02*
X-1951980D01*
G01X-1878340Y339220D02*
X-1753040D01*
G01X-1851800Y696900D02*
Y774700D01*
G01D02*
Y852500D01*
G01X-1929600Y774700D02*
X-1851800D01*
G01D02*
X-1774000D01*
G01X-1736100Y-944880D02*
X-1638300D01*
G01X-1736100Y-563880D02*
X-1638300D01*
G01X-1753040Y273920D02*
Y339220D01*
G01D02*
Y404520D01*
G01Y339220D02*
X-1627740D01*
G01X-1766580Y1607820D02*
X-1668780D01*
G01X-1766580Y1988820D02*
X-1668780D01*
G01X-1638300Y-1042680D02*
Y-944880D01*
G01D02*
Y-847080D01*
G01Y-944880D02*
X-1540500D01*
G01X-1638300Y-661680D02*
Y-563880D01*
G01D02*
Y-466080D01*
G01Y-563880D02*
X-1540500D01*
G01X-1668780Y1510020D02*
Y1607820D01*
G01D02*
Y1705620D01*
G01Y1607820D02*
X-1570980D01*
G01X-1668780Y1891020D02*
Y1988820D01*
G01D02*
Y2086620D01*
G01Y1988820D02*
X-1570980D01*
G01X-1345780Y-502920D02*
X-1259980D01*
G01Y-563220D02*
Y-502920D01*
G01D02*
Y-442620D01*
G01Y-502920D02*
X-1174180D01*
G01X-1204980Y2125320D02*
Y2208120D01*
G01X-1252780D02*
X-1204980D01*
G01D02*
X-1157180D01*
G01X-1061920Y-1534160D02*
X-986620D01*
G01X-1062780Y2208120D02*
X-1014980D01*
G01X-986620Y-1624460D02*
Y-1534160D01*
G01D02*
Y-1443860D01*
G01Y-1534160D02*
X-911320D01*
G01X-1003500Y-1046480D02*
X-928200D01*
G01X-1014980Y2125320D02*
Y2208120D01*
G01D02*
X-967180D01*
G01X-928200Y-1136780D02*
Y-1046480D01*
G01D02*
Y-956180D01*
G01Y-1046480D02*
X-852900D01*
G01X-880240Y-69680D02*
X-789940D01*
G01X-826600Y996820D02*
Y1087120D01*
G01D02*
Y1177420D01*
G01X-901900Y1087120D02*
X-826600D01*
G01D02*
X-751300D01*
G01X-789940Y-144980D02*
Y-69680D01*
G01D02*
Y5620D01*
G01Y-69680D02*
X-699640D01*
G01X-719920Y1207640D02*
Y1297940D01*
G01D02*
Y1388240D01*
G01X-795220Y1297940D02*
X-719920D01*
G01D02*
X-644620D01*
G01X-719920Y1410840D02*
Y1501140D01*
G01X-795220D02*
X-719920D01*
G01D02*
X-644620D01*
G01X-640280Y-1684020D02*
X-564980D01*
G01X-603380Y-69680D02*
X-513080D01*
G01X-564980Y-1774320D02*
Y-1684020D01*
G01D02*
Y-1593720D01*
G01Y-1684020D02*
X-489680D01*
G01X-543760Y-1478280D02*
X-468460D01*
G01X-513080Y-144980D02*
Y-69680D01*
G01D02*
Y5620D01*
G01Y-69680D02*
X-422780D01*
G01X-468460Y-1568580D02*
Y-1478280D01*
G01D02*
X-393160D01*
G01X-390020Y-1098720D02*
X-299720D01*
G01Y-1174020D02*
Y-1098720D01*
G01D02*
Y-1023420D01*
G01Y-1098720D02*
X-209420D01*
G01X-293500Y2147400D02*
X-203200D01*
G01D02*
Y2222700D01*
G01Y2147400D02*
X-112900D01*
G01X-25400Y650040D02*
Y725340D01*
G01D02*
Y800640D01*
G01X-115700Y725340D02*
X-25400D01*
G01D02*
X64900D01*
G01X64640Y-740580D02*
X154940D01*
G01X85720Y180780D02*
X126020D01*
G01X154940Y-815880D02*
Y-740580D01*
G01D02*
Y-665280D01*
G01Y-740580D02*
X245240D01*
G01X126020Y87980D02*
Y180780D01*
G01D02*
Y273580D01*
G01X242440Y-2162640D02*
X332740D01*
G01Y-2237940D02*
Y-2162640D01*
G01D02*
X423040D01*
G01X429260Y1008180D02*
Y1083480D01*
G01D02*
Y1158780D01*
G01X338960Y1083480D02*
X429260D01*
G01D02*
X519560D01*
G01X522700Y1463040D02*
X598000D01*
G01D02*
Y1553340D01*
G01Y1463040D02*
X673300D01*
G01X619220Y1668780D02*
X694520D01*
G01X774160Y-1516380D02*
X849460D01*
G01X774160Y-1313180D02*
X849460D01*
G01X694520Y1578480D02*
Y1668780D01*
G01D02*
Y1759080D01*
G01Y1668780D02*
X769820D01*
G01X849460Y-1516380D02*
Y-1426080D01*
G01Y-1516380D02*
X924760D01*
G01X849460Y-1403480D02*
Y-1313180D01*
G01D02*
Y-1222880D01*
G01Y-1313180D02*
X924760D01*
G01X880840Y-1102360D02*
X956140D01*
G01Y-1192660D02*
Y-1102360D01*
G01D02*
Y-1012060D01*
G01Y-1102360D02*
X1031440D01*
G01X982440Y1031240D02*
X1057740D01*
G01X982440Y1264920D02*
X1057740D01*
G01X1096720Y-2223360D02*
X1144520D01*
G01X1068220Y116220D02*
Y181520D01*
G01D02*
Y246820D01*
G01X1007920Y181520D02*
X1068220D01*
G01D02*
X1128520D01*
G01X1057740Y940940D02*
Y1031240D01*
G01D02*
Y1121540D01*
G01Y1031240D02*
X1133040D01*
G01X1057740Y1174620D02*
Y1264920D01*
G01D02*
Y1355220D01*
G01Y1264920D02*
X1133040D01*
G01X1116160Y1428620D02*
Y1518920D01*
G01D02*
Y1609220D01*
G01X1040860Y1518920D02*
X1116160D01*
G01D02*
X1191460D01*
G01X1144520Y-2223360D02*
Y-2140560D01*
G01Y-2223360D02*
X1192320D01*
G01X1334520D02*
Y-2140560D01*
G01X1286720Y-2223360D02*
X1334520D01*
G01D02*
X1382320D01*
G01X1303720Y487680D02*
X1389520D01*
G01Y427380D02*
Y487680D01*
G01D02*
Y547980D01*
G01Y487680D02*
X1475320D01*
G01X1670040Y548640D02*
X1767840D01*
G01X1670040Y929640D02*
X1767840D01*
G01X1798320Y-2101860D02*
Y-2004060D01*
G01D02*
Y-1906260D01*
G01X1700520Y-2004060D02*
X1798320D01*
G01D02*
X1896120D01*
G01X1798320Y-1720860D02*
Y-1623060D01*
G01D02*
Y-1525260D01*
G01X1700520Y-1623060D02*
X1798320D01*
G01D02*
X1896120D01*
G01X1767840Y450840D02*
Y548640D01*
G01D02*
Y646440D01*
G01Y548640D02*
X1865640D01*
G01X1767840Y831840D02*
Y929640D01*
G01D02*
Y1027440D01*
G01Y929640D02*
X1865640D01*
G01X2081520Y-2004060D02*
X2179320D01*
G01X2081520Y-1623060D02*
X2179320D01*
G01X2051040Y548640D02*
X2148840D01*
G01X2051040Y929640D02*
X2148840D01*
G01X2179320Y-2101860D02*
Y-2004060D01*
G01D02*
Y-1906260D01*
G01Y-2004060D02*
X2277120D01*
G01X2179320Y-1720860D02*
Y-1623060D01*
G01D02*
Y-1525260D01*
G01Y-1623060D02*
X2277120D01*
G01X2148840Y450840D02*
Y548640D01*
G01D02*
Y646440D01*
G01Y548640D02*
X2246640D01*
G01X2148840Y831840D02*
Y929640D01*
G01D02*
Y1027440D01*
G01Y929640D02*
X2246640D01*
M02*
